<svg xmlns="http://www.w3.org/2000/svg" viewBox="0 0 1920.2 48.9"><path fill="#000000" d="M267.5 14.4c1.7.1 3.8-1.1 4.9 1.2-2.8 1.5-5.9.3-8.8.7-3.1.2-6.3-.4-9.4.4-3.6 0-7.2.9-10.8.2-3.4 1.1-6.9-.3-10.2.8l-3.9 1.2c-1.3 1.5-3.1 2-4.8 2.6-.6.4-2.5.7-.5 1.5 1.7.7 3.7.5 5.6.7.9.1 1.8.5 2.5 1.1 3.5 1 7 3 10.4 2.8 19.2-1.3 38.2 1.9 57.4 1.3-.5 2.9-.5 2.9-6.1 4.1-.3 0-.9 0-.9.1 0 .7.6.2.9.4 4.6-.5 8.3-4.6 13.3-3.5 2.9-.7 5.9-.6 8.9-.4 6.1.3 12.2.6 18.3.7 17.8.4 35.6-1.7 53.4-.8 9.9.5 19.7.2 29.5 1.5 2.9.4 5.8.7 8.2 2.6 2 1.6 1.4 2.9-.3 4.1-1.4 2.8-4.1 2.5-6.5 2.4-11.2-.4-22.4 1.3-33.7 1.3-3.9.3-7.8 1.1-11.7.5-.3-.1-.4-.2-.3-.4.3-.6-.5.2.2.4 2.9.8 5.8-.2 8.7-.2 2.2 0 4.3-.5 6.5-.4h7.7c15 .3 29.9.5 44.6-3.6 4.9-1.4 9.8-1.3 14.7-1.5 2.6-.1 5.3.5 7.9-.4 2.3-1.3 4.8-1.2 7.3-1 12.2.8 24.4 1.6 36.6 2.5 7.3.5 14.6 1.7 22 1.1 11.7-1 23.6-.8 35.1-3.8 1 .5 1.5 2.1 3 1.1 2.3-3.1 4.1.8 6.3.4 12-2.1 24.1-.8 36.2-2 14-1.4 28.2-1 42.3-1.8 12.7-.7 25.5.5 38.1-1.4 3 .4 5.9-1 8.9-.5 1.7 0 3.5.1 5.3.1.7 0 1.5.2 2.4.2-1-.7-2.1-.4-3.1-.6-3.6-.3-7.4.4-11-.6-.5-.2-1.1-.4-1.6-.5-1.7-.6-3.9.1-5-2 1-1.1 2.3-.6 3.3-.9 1.7-.2 3.4-.1 5 .5 3.6-.5 7.2-1.2 10.8-1.3 20.5-.4 41 .3 61.5 1.1 25.3 1 50.6 2.3 75.9 3.1 14.6.5 29.1.1 43.7.2 16.3.1 32.5.3 48.8.3 16 0 32-.2 48.5.2 5.1-1.2 9.8 1.2 14.7 1.4 4.5.1 9-.4 13.4.4 19.7 1.4 39.3-.3 59 .1 2.7-1.5 5.7-1 8.6-1.4 3.8.3 7.7-.2 11.5.5 4.3.3 8.7-1.2 12.8.9 2.7 1.3 5-.3 7.4-1 1.3-.2 2.7-.1 4-.1 9.7 1 19.4-.5 29.1-.4 6.5-.4 13 1.5 19.5.5h2c1.3 1 2.9.5 4.3.5 6.6 0 13.2-.3 19.8-.6 3.4-.2 6.8-.3 10.2-.7 9.1-1.2 18.3.1 27.4-.4 5-1.6 10.2-.5 15.3-1.1 15.1-1.7 30.4-2.1 45.5-3.8 8.5-1 17 .4 25.5-1.9 8.4-2.3 17.2-.8 25.8-1.1 4.1-.4 8.1-1 12.2-.3 6.2 1.3 12.4-.4 18.7 0 7.6.5 15.3-.9 23.1-.2 7.7.7 15.4-.5 23.1-1.5 1.2-.7 2.6-.5 3.9-.5 23-.3 46 1.4 69-.4 1.7.8 3.5.2 5.3.4 3-.1 5.9-1 8.9-1.2.7-.3 1.4-.5 2.1-.7 1.6.5 3.5.1 4.9 1.3h2.8c1.8-.7 3.7-.3 5.5-.8 3.6.9 7.1-.3 10.6-.4 20.6-.7 41.2.6 61.7 1.7 11.8.6 23.3-.1 34.9-1.6 2.4-.6 4.8-1.9 7.4-.9.1.1.1.2-.1.5-.4.5.9-.2.3-.4-.9-1-3.7-.6-2.3-3.2 4.9-.9 10.2.2 15-1.8l2.7-.3c2.1-1 4.4.4 6.4-.9l.2-.2.3.1c1.7-1.2 3.9.9 5.5-.8.6-.3 1.2-.7 1.8-.8 11.5-1.6 23.1-.9 34.7-1.2.1 0 .3 1.1.5 1.7 1.4 1.3-1.5 2.7.1 4h25.5c4.1-1.1 9 1.4 12.2-3.1 3.3-3 6.9-1.9 10.5-.7 1.4.5 2.6 1.3 4.2 1.3 8-.2 16-.3 24-.5 3.5-.1 6.9-1.8 10.2-2.1 3.9-.4 4.1-2 4.1-4.8 3.8-3.4 8.5-3.9 13.3-3.6 5 .3 8.6 4.6 8.8 9.7-2 2.2-4.4 1.8-6.8.9-1.9-.6-3.8-1.4-6.3-1 1.4.9 2.5.8 3.4 1 1.2.2 2.3.7 3.3 1.6 1.9 1.8 2.4 3.9 1 6.3-2.2.7-2.8 2.6-3.5 4.5-.4 1.2-.7 2.3 1.4 2.1 4.6-.4 9.3-.5 13.9-1.2 1.2-.2 2.3-.6 3 .4s.2 2.1-.4 3.2c-2.7 5-1.5 7.1 4.2 6.9 19.3-.6 38.7 3.3 58.1.2 5.6-.9 11.2 1.4 16.8 1 6.9-.4 13.8-1.2 20.7 0 0 2.8-.2 5.7.1 8.5.4 3.8-.9 4.6-4.6 4.6-637-.1-1274-.1-1911-.1-.7 0-1.4-.1-2 0-2.2.4-2.6-.3-2.6-2.5.2-8.2.1-16.4.1-24.6 1 0 2 0 3-.1 13.5-1.6 27-3.2 40.5-3.9 13-.7 25.9-1.1 38.8-2.3 20.3-1.8 40.6-2.6 60.9-3.3 20.7-.7 41.4-1.4 62.1.8 10.2 1 20.5.8 30.7 1 10.4.8 20.9.1 31.4.6z"/></svg>
