<svg xmlns="http://www.w3.org/2000/svg" viewBox="0 0 1920.2 48.9"><path fill="#010101" d="M236.1 35c-10.2.2-20.5 0-30.7 1-20.7 2.2-41.4 1.5-62.1.8-20.3-.7-40.6-1.5-60.9-3.3-12.9-1.2-25.8-1.6-38.8-2.3-13.5-.7-27-2.3-40.5-3.9-1-.1-2-.1-3-.1C.1 19 .2 10.8 0 2.6 0 .4.4-.3 2.6.1c.6.1 1.3 0 2 0 637 0 1274 0 1911-.1 3.7 0 5 .8 4.6 4.6-.3 2.8-.1 5.7-.1 8.5-6.9 1.2-13.8.4-20.7 0-5.6-.4-11.2 1.9-16.8 1-19.4-3.1-38.8.8-58.1.2-5.7-.2-6.9 1.9-4.2 6.9.6 1.1 1.1 2.2.4 3.2s-1.8.6-3 .4c-4.6-.7-9.3-.8-13.9-1.2-2.1-.2-1.8.9-1.4 2.1.7 1.9 1.3 3.8 3.5 4.5 1.4 2.4.9 4.5-1 6.3-1 .9-2.1 1.4-3.3 1.6-.9.2-2 .1-3.4 1 2.5.4 4.4-.4 6.3-1 2.4-.9 4.8-1.3 6.8.9-.2 5.1-3.8 9.4-8.8 9.7-4.8.3-9.5-.2-13.3-3.6 0-2.8-.2-4.4-4.1-4.8-3.3-.3-6.7-2-10.2-2.1-8-.2-16-.3-24-.5-1.6 0-2.8.8-4.2 1.3-3.6 1.2-7.2 2.3-10.5-.7-3.2-4.5-8.1-2-12.2-3.1h-25.5c-1.6 1.3 1.3 2.7-.1 4-.2.6-.4 1.7-.5 1.7-11.6-.3-23.2.4-34.7-1.2-.6-.1-1.2-.5-1.8-.8-1.6-1.7-3.8.4-5.5-.8l-.3.1-.2-.2c-2-1.3-4.3.1-6.4-.9l-2.7-.3c-4.8-2-10.1-.9-15-1.8-1.4-2.6 1.4-2.2 2.3-3.2.6-.2-.7-.9-.3-.4.2.3.2.4.1.5-2.6 1-5-.3-7.4-.9-11.6-1.5-23.1-2.2-34.9-1.6-20.5 1.1-41.1 2.4-61.7 1.7-3.5-.1-7-1.3-10.6-.4-1.8-.5-3.7-.1-5.5-.8h-2.8c-1.4 1.2-3.3.8-4.9 1.3-.7-.2-1.4-.4-2.1-.7-3-.2-5.9-1.1-8.9-1.2-1.8.2-3.6-.4-5.3.4-23-1.8-46-.1-69-.4-1.3 0-2.7.2-3.9-.5-7.7-1-15.4-2.2-23.1-1.5-7.8.7-15.5-.7-23.1-.2-6.3.4-12.5-1.3-18.7 0-4.1.7-8.1.1-12.2-.3-8.6-.3-17.4 1.2-25.8-1.1-8.5-2.3-17-.9-25.5-1.9-15.1-1.7-30.4-2.1-45.5-3.8-5.1-.6-10.3.5-15.3-1.1-9.1-.5-18.3.8-27.4-.4-3.4-.4-6.8-.5-10.2-.7-6.6-.3-13.2-.6-19.8-.6-1.4 0-3-.5-4.3.5h-2c-6.5-1-13 .9-19.5.5-9.7.1-19.4-1.4-29.1-.4-1.3 0-2.7.1-4-.1-2.4-.7-4.7-2.3-7.4-1-4.1 2.1-8.5.6-12.8.9-3.8.7-7.7.2-11.5.5-2.9-.4-5.9.1-8.6-1.4-19.7.4-39.3-1.3-59 .1-4.4.8-8.9.3-13.4.4-4.9.2-9.6 2.6-14.7 1.4-16.5.4-32.5.2-48.5.2-16.3 0-32.5.2-48.8.3-14.6.1-29.1-.3-43.7.2-25.3.8-50.6 2.1-75.9 3.1-20.5.8-41 1.5-61.5 1.1-3.6-.1-7.2-.8-10.8-1.3-1.6.6-3.3.7-5 .5-1-.3-2.3.2-3.3-.9 1.1-2.1 3.3-1.4 5-2 .5-.1 1.1-.3 1.6-.5 3.6-1 7.4-.3 11-.6 1-.2 2.1.1 3.1-.6-.9 0-1.7.2-2.4.2-1.8 0-3.6.1-5.3.1-3 .5-5.9-.9-8.9-.5-12.6-1.9-25.4-.7-38.1-1.4-14.1-.8-28.3-.4-42.3-1.8-12.1-1.2-24.2.1-36.2-2-2.2-.4-4 3.5-6.3.4-1.5-1-2 .6-3 1.1-11.5-3-23.4-2.8-35.1-3.8-7.4-.6-14.7.6-22 1.1-12.2.9-24.4 1.7-36.6 2.5-2.5.2-5 .3-7.3-1-2.6-.9-5.3-.3-7.9-.4-4.9-.2-9.8-.1-14.7-1.5C425.9 7 411 7.2 396 7.5h-7.7c-2.2.1-4.3-.4-6.5-.4-2.9 0-5.8-1-8.7-.2-.7.2.1 1-.2.4-.1-.2 0-.3.3-.4 3.9-.6 7.8.2 11.7.5 11.3 0 22.5 1.7 33.7 1.3 2.4-.1 5.1-.4 6.5 2.4 1.7 1.2 2.3 2.5.3 4.1-2.4 1.9-5.3 2.2-8.2 2.6-9.8 1.3-19.6 1-29.5 1.5-17.8.9-35.6-1.2-53.4-.8-6.1.1-12.2.4-18.3.7-3 .2-6 .3-8.9-.4-5 1.1-8.7-3-13.3-3.5-.3.2-.9-.3-.9.4 0 .1.6.1.9.1 5.6 1.2 5.6 1.2 6.1 4.1-19.2-.6-38.2 2.6-57.4 1.3-3.4-.2-6.9 1.8-10.4 2.8-.7.6-1.6 1-2.5 1.1-1.9.2-3.9 0-5.6.7-2 .8-.1 1.1.5 1.5 1.7.6 3.5 1.1 4.8 2.6l3.9 1.2c3.3 1.1 6.8-.3 10.2.8 3.6-.7 7.2.2 10.8.2 3.1.8 6.3.2 9.4.4 2.9.4 6-.8 8.8.7-1.1 2.3-3.2 1.1-4.9 1.2-10.5.5-21-.2-31.4.6z"/></svg>