<svg xmlns="http://www.w3.org/2000/svg" width="39.096" height="39.095" viewBox="0 0 39.096 39.095"><defs><style>.a,.b{fill:none;stroke:#fff;stroke-linecap:round;stroke-linejoin:round;}.a{stroke-width:2px;}</style></defs><g transform="translate(-279.187 -3771.868)"><g transform="translate(175.433 3413.811)"><path class="a" d="M127.9,383.154c-2.8,2.8-19.991,15.447-22.794,12.644s9.843-19.991,12.645-22.793A7.176,7.176,0,1,1,127.9,383.154Z"/><path class="a" d="M135.714,373.868c-3.625.969-7.783-.834-7.783-.834s3.223-3.774,6.331-4.6,7.588.887,7.588.887S139.339,372.9,135.714,373.868Z"/><path class="a" d="M127.038,365.193c-.968,3.625.835,7.782.835,7.782s3.774-3.223,4.6-6.33-.886-7.588-.886-7.588S128.007,361.567,127.038,365.193Z"/><path class="b" d="M120.1,380.839a18.81,18.81,0,0,0,5.71,3.759"/><path class="b" d="M115.946,374.737a14.477,14.477,0,0,0,1.733,3.252"/><path class="b" d="M116.643,388.645a19.055,19.055,0,0,0,2.3,1.341"/><path class="b" d="M110.8,382.151a18.073,18.073,0,0,0,2.605,3.679"/><path class="b" d="M106.755,388.807a18.527,18.527,0,0,0,5.345,5.184"/></g></g></svg>