<svg xmlns="http://www.w3.org/2000/svg" width="22.352" height="20.828"><g data-name="Group 24"><path data-name="Path 109" d="M9.188 2.856a6.34 6.34 0 00-6.333 6.333 6.34 6.34 0 006.333 6.333 6.34 6.34 0 006.333-6.333 6.34 6.34 0 00-6.333-6.333z" fill="none"/><path data-name="Path 110" d="M21.195 20.632a.684.684 0 00.963 0 .678.678 0 00-.006-.955l-5.336-5.341.294-.5a9.183 9.183 0 001.272-4.644A9.2 9.2 0 009.193.003 9.2 9.2 0 000 9.192a9.2 9.2 0 009.188 9.189 9.122 9.122 0 006.255-2.473l.531-.495zm-12.007-3.61a7.842 7.842 0 01-7.833-7.833 7.842 7.842 0 017.833-7.833 7.841 7.841 0 017.833 7.833 7.841 7.841 0 01-7.833 7.833z" fill="#fff"/></g></svg>