<svg xmlns="http://www.w3.org/2000/svg" width="31.847" height="38.102" viewBox="0 0 31.847 38.102"><defs><style>.a,.b{fill:none;stroke:#fff;stroke-linecap:round;stroke-linejoin:round;}.a{stroke-width:2px;}</style></defs><g transform="translate(-465.416 -3772.085)"><path class="a" d="M320.83,377.236c0,6.181-3.758,15.634-9.113,17.9-1.786.756-3.75-.253-5.811-.253-2.18,0-4.251.96-6.118.119-5.191-2.336-8.8-11.7-8.8-17.766,0-5.088,2.546-8,6.434-9.483,2.41-.919,5.335.13,8.489.13,2.54,0,4.932-1.18,7.026-.606C317.632,368.566,320.83,371.534,320.83,377.236Z" transform="translate(175.433 3413.811)"/><path class="a" d="M306.48,367.037s-.5-7.232,4.621-7.232" transform="translate(175.433 3413.811)"/><path class="a" d="M299.394,365.663c1.978,1.978,6.388,1.312,6.388,1.312s.383-4.692-1.312-6.387-6.282-1.207-6.282-1.207S297.416,363.685,299.394,365.663Z" transform="translate(175.433 3413.811)"/><path class="b" d="M295.216,378.5a16.11,16.11,0,0,0,.826,2.768" transform="translate(175.433 3413.811)"/><path class="b" d="M298.039,371.179a5.366,5.366,0,0,0-3.024,5.045" transform="translate(175.433 3413.811)"/></g></svg>