<svg xmlns="http://www.w3.org/2000/svg" width="45" height="35.014"><path data-name="Path 111" d="M19.128 29.655a3.713 3.713 0 00-.376 1.607 3.754 3.754 0 003.727 3.749H22.515a3.754 3.754 0 003.727-3.749 3.708 3.708 0 00-.376-1.608l8.763-8.763 10-10a1.25 1.25 0 000-1.768 1.251 1.251 0 00-1.769 0l-1.799 1.804A21.27 21.27 0 0022.509.001h-.018A21.271 21.271 0 003.939 10.927L2.132 9.12a1.25 1.25 0 00-1.763.005 1.25 1.25 0 00-.005 1.763l10 10zm4.246 2.493a1.244 1.244 0 01-1.755 0 1.244 1.244 0 01-.009-1.755l.013-.009.009-.014a1.225 1.225 0 011.727 0l.01.014.015.01a1.244 1.244 0 01-.01 1.754zm.724-4.261a3.71 3.71 0 00-1.583-.373H22.479a3.71 3.71 0 00-1.583.373l-7.878-7.879 7.878-7.879a3.7 3.7 0 001.584.373h.034a3.7 3.7 0 001.584-.373l7.878 7.879zm-1.6-25.385a18.719 18.719 0 0116.708 10.279l-5.459 5.459-8.608-8.607h-.007l-.005-.007a1.2 1.2 0 00-.2-.131 1.267 1.267 0 00-.207-.133 1.217 1.217 0 00-.247-.048.676.676 0 00-.491.012 1.246 1.246 0 00-.2.042 1.265 1.265 0 00-.23.153 1.189 1.189 0 00-.177.118v.007l-.007.005a1.212 1.212 0 01-.861.359 1.213 1.213 0 01-.861-.359h-.007v-.007a1.191 1.191 0 00-.2-.13 1.282 1.282 0 00-.211-.14 1.226 1.226 0 00-.241-.05.644.644 0 00-.468 0 1.217 1.217 0 00-.23.045 1.272 1.272 0 00-.2.132 1.189 1.189 0 00-.206.133l-.005.007h-.007l-8.607 8.607-5.46-5.46A18.718 18.718 0 0122.498 2.501z" fill="#fff"/></svg>