<svg xmlns="http://www.w3.org/2000/svg" viewBox="0 0 479.6 479.6"><path d="M475.9 336.4c-.4-2.8-1.1-5.6-2-8.3-8.6-24-33.2-38.3-58.3-34.1-8.3 1.3-16.1-4.4-17.4-12.7l-12.6-80.9C375.1 132 325.6 75.9 259 57.1 252.9 20 218-5.1 180.9.9c-36.6 6-61.7 40.2-56.4 76.9C67 114.1 36.7 181.1 47.3 248.3l13.6 86.1c1.2 8.3-4.4 16.1-12.7 17.4C23 355.4 4 376.7 3.1 402.1c-.3 28.3 22.4 51.4 50.7 51.7h.5c2.7 0 5.3-.2 8-.6l52.5-8.3c18.3 32.6 59.5 44.3 92.2 26 17.2-9.7 29.4-26.3 33.3-45.7l192.9-30.4c28-4.3 47-30.5 42.7-58.4zM186.8 36.3c1.8-.3 3.6-.4 5.4-.4 11.4.1 22.1 5.8 28.4 15.4h-.8c-6.4-.2-12.7 0-19.1.5-6.7.6-13.3 1.7-19.9 3.1-1.4.3-2.8.7-4.2 1-5.4 1.3-10.6 2.7-15.8 4.5-.5.2-1 .2-1.6.4 3.6-12.8 14.4-22.4 27.6-24.5zm-13 409.2c-7.2 0-14.3-2.3-20.1-6.6l47.8-7.5c-6.4 8.9-16.7 14.1-27.7 14.1zm266-92.3c-2.6 4.3-7 7.2-11.9 8l-205.6 32.3-99.9 15.7L57 419.4c-5 .8-10-.6-13.8-3.9-3.9-3.3-6.1-8.1-6-13.2.7-8.8 7.5-15.8 16.2-16.8 26.9-4.3 45.2-29.5 41.1-56.4L81.1 243c-8.9-56.8 18.7-113.1 69.1-140.9l.9-.3c16.3-8.8 34.3-14.3 52.8-15.9 5.6-.5 11.2-.6 16.9-.3l2.8.1c5.8.4 11.6 1.1 17.3 2.2h.5c57.7 12.5 101.7 59.5 110.3 117.9l12.7 80.9c4.2 26.9 29.5 45.3 56.4 41.1 8.6-1.7 17.2 2.9 20.6 11 1.7 4.7 1.1 10.1-1.6 14.4z" fill="#fff"/></svg>