<svg xmlns="http://www.w3.org/2000/svg" viewBox="0 0 30 30"><path fill="#FFF" d="M23.605 1.7c-1.8-2.1-5-2.3-7.1-.4-.3.3-.6.6-.9 1-.1.1-.1.2-.2.3-.1-.1-.1-.2-.2-.3-1.5-2.3-4.6-3-6.9-1.4-.4.2-.7.5-1 .9-1 1-1.5 2.4-1.5 3.8.1 1.8.8 3.4 2 4.7 1.5 1.6 3.1 3.1 4.8 4.4.7.6 1.4 1.3 2.2 2 .3.3.8.3 1.2 0 .8-.7 1.5-1.3 2.3-1.9 1.3-1.1 2.3-2 3.3-2.8 1.8-1.7 3.5-3.7 3.5-6.3-.1-1.5-.6-2.9-1.5-4zm-3.3 8.9c-.9.9-2 1.7-3.2 2.8-.5.5-1.1.9-1.7 1.4-.6-.5-1.1-1-1.7-1.4-3.8-3.2-6.1-5.2-6.1-7.8-.1-2 1.3-3.7 3.3-3.8h.2c1.1 0 2.1.6 2.7 1.5.4.5.7 1.1.8 1.7.1.5.6.7 1.1.6.3-.1.5-.3.6-.6 0 0 .9-3.1 3.5-3.1 2 .1 3.5 1.7 3.5 3.7v.2c-.1 1.4-.9 2.8-3 4.8zM27.4 17.662c-.7 0-1.4.3-1.9.8l-2.6 2.8c-.3-1.1-1.4-1.9-2.5-1.9h-4.1c-.6 0-1.1-.2-1.5-.6-2.3-2-5.7-2-8.1-.1-.5-.5-1.3-1-2.2-1H.9c-.5 0-.9.4-.9.9v10.5c0 .5.4.9.9.9h3.6c.8 0 1.5-.3 2-.9l.5.2c1.8.5 3.6.8 5.5.8h7.8c1.9 0 3.8-.9 4.9-2.5l4.2-5.6c.9-1.2.6-2.8-.5-3.7-.4-.4-1-.6-1.5-.6zm-22 9.7c0 .5-.4.9-.9.9H1.8v-8.8h2.8c.4 0 .8.4.8.9v7zm22.7-6.5l-4.2 5.6c-.8 1.1-2.1 1.8-3.5 1.8h-7.8c-1.7 0-3.4-.2-5-.7l-.3-.1V20.762l.6-.5c1.7-1.5 4.1-1.5 5.8 0 .7.7 1.7 1 2.7 1h4.1c.5 0 .9.4.9.8 0 .5-.4.9-.8.9h-6.3c-.5 0-.9.4-.8.9 0 .5.4.8.8.8h6.8c.7 0 1.4-.3 1.9-.8l3.9-4.2c.2-.2.4-.3.6-.3.5 0 .9.4.9.9-.2.3-.2.4-.3.6z"/></svg>