<svg xmlns="http://www.w3.org/2000/svg" width="50.171" height="33.729" viewBox="0 0 50.171 33.729"><defs><style>.a,.b{fill:none;stroke:#fff;stroke-linecap:round;stroke-linejoin:round;}.a{stroke-width:1.5px;}.b{stroke-width:2px;}</style></defs><g transform="translate(-1773.251 -3774.302)"><g transform="translate(175.433 3413.811)"><circle class="a" cx="3.45" cy="3.45" r="3.45" transform="translate(1602.091 361.241)"/></g><path class="a" d="M1631.914,381.128a2.288,2.288,0,0,0-2.586-1.943l-7.369,1.047-.253-.261-8.25-9.607,1.912-1.489,3.238,3.9a2.287,2.287,0,1,0,3.52-2.922l-4.654-5.607a2.288,2.288,0,0,0-3.166-.343l-5.931,4.619a2.292,2.292,0,0,0-.785,1.149l-1.485,4.962h-5.249a2.287,2.287,0,1,0,0,4.574h6.952a2.288,2.288,0,0,0,2.191-1.631l.712-2.378,1.847,2.362-2.031,5.264a2.291,2.291,0,0,0,.137,1.938l4.206,7.535a2.288,2.288,0,1,0,3.995-2.23l-3.683-6.6,1.008-2.614,3.3,3.4a2.288,2.288,0,0,0,1.964.672l8.521-1.211A2.286,2.286,0,0,0,1631.914,381.128Z" transform="translate(175.433 3413.811)"/><line class="b" x2="7.18" transform="translate(1803.78 3779.573)"/><line class="b" x2="4.66" transform="translate(1815.242 3793.291)"/><line class="b" x2="14.359" transform="translate(1808.063 3786.085)"/></g></svg>