<svg version="1.1" id="Capa_1" xmlns="http://www.w3.org/2000/svg" x="0" y="0" viewBox="0 0 512 512" xml:space="preserve"><style>.st0{fill:#fff}</style><path class="st0" d="M497 121H383V32c0-8.3-6.7-15-15-15H15C6.7 17 0 23.7 0 32v388c0 41.4 33.6 75 75 75h362c41.4 0 75-33.6 75-75V136c0-8.3-6.7-15-15-15zM75 465c-24.8 0-45-20.2-45-45V47h323c0 396.5-.2 374.4.3 380.1 1.3 13.9 6.5 27 14.7 37.9H75zm407-45c0 24.8-20.2 45-45 45h-9c-24.8 0-45-20.2-45-45V151h99v269z"/><path class="st0" d="M304 89H80c-8.3 0-15 6.7-15 15s6.7 15 15 15h224c8.3 0 15-6.7 15-15s-6.7-15-15-15zM304 153H80c-8.3 0-15 6.7-15 15s6.7 15 15 15h224c8.3 0 15-6.7 15-15s-6.7-15-15-15zM304 393H80c-8.3 0-15 6.7-15 15s6.7 15 15 15h224c8.3 0 15-6.7 15-15s-6.7-15-15-15zM304 217H192c-8.3 0-15 6.7-15 15v112c0 8.3 6.7 15 15 15h112c8.3 0 15-6.7 15-15V232c0-8.3-6.7-15-15-15zm-15 112h-82v-82h82v82zM80 271h48c8.3 0 15-6.7 15-15s-6.7-15-15-15H80c-8.3 0-15 6.7-15 15s6.7 15 15 15zM80 335h48c8.3 0 15-6.7 15-15s-6.7-15-15-15H80c-8.3 0-15 6.7-15 15s6.7 15 15 15z"/></svg>