<svg xmlns="http://www.w3.org/2000/svg" width="33.858" height="38.294" viewBox="0 0 33.858 38.294"><defs><style>.a,.b{fill:none;stroke:#fff;stroke-linecap:round;stroke-linejoin:round;}.a{stroke-width:2px;}</style></defs><g transform="translate(-1596.136 -3611.139)"><rect class="a" width="11.09" height="29.842" transform="translate(1597.136 3618.591)"/><path class="a" d="M1450.018,264.9H1429.25V235.056l4.461,1.109,2.461-1.109,3.461,1.109,3.461-1.109,2.461,1.109,4.461-1.109Z" transform="translate(178.976 3383.535)"/><path class="b" d="M1418.16,264.9l5.545-6.452,5.545,6.452" transform="translate(178.976 3383.535)"/><line class="b" y1="23.39" transform="translate(1602.681 3618.591)"/><path class="a" d="M1436.2,234.653v-3.777a2.272,2.272,0,0,1,2.272-2.272h2.33a2.272,2.272,0,0,1,2.272,2.272v3.777" transform="translate(178.976 3383.535)"/><path class="a" d="M1425.107,234.653v-3.777a2.272,2.272,0,0,1,2.272-2.272h2.33a2.272,2.272,0,0,1,2.272,2.272v3.777" transform="translate(178.976 3383.535)"/></g></svg>