<svg xmlns="http://www.w3.org/2000/svg" width="44.267" height="35.535" viewBox="0 0 44.267 35.535"><defs><style>.a{fill:none;stroke:#fff;stroke-miterlimit:10;stroke-width:2px;}</style></defs><g transform="translate(-649.183 -3612.561)"><path class="a" d="M489.125,250.942a3.068,3.068,0,1,0,6.136,0c0-1.694-3.068-3.068-3.068-3.068s-3.068-1.374-3.068-3.068a3.068,3.068,0,1,1,6.136,0" transform="translate(178.976 3383.535)"/><line class="a" y2="2.869" transform="translate(671.169 3622.404)"/><line class="a" y2="3.108" transform="translate(671.169 3637.545)"/><path class="a" d="M512.048,235.53c-7.144-12.276-19.708,0-19.708,0s-12.564-12.272-19.707,0c-7.745,13.31,19.707,27.9,19.707,27.9S519.793,248.84,512.048,235.53Z" transform="translate(178.976 3383.535)"/></g></svg>