<svg xmlns="http://www.w3.org/2000/svg" width="42.059" height="38.073" viewBox="0 0 42.059 38.073"><defs><style>.a,.b{fill:none;stroke:#fff;stroke-width:2px;}.a{stroke-miterlimit:10;}.b{stroke-linejoin:round;}</style></defs><g transform="translate(-467.356 -3611.096)"><path class="a" d="M317.259,248.089v16.544H298.645l-9.265-9.265V228.561h27.879v12.918" transform="translate(178.976 3383.535)"/><path class="a" d="M325.928,239.42l-13.611,13.611-3.685,1.02a.52.52,0,0,1-.64-.64l1.019-3.685,13.611-13.611Z" transform="translate(178.976 3383.535)"/><path class="a" d="M324.075,234.662l1.565-1.565a1.224,1.224,0,0,1,1.731,0l1.575,1.575a1.223,1.223,0,0,1,0,1.73l-1.566,1.566" transform="translate(178.976 3383.535)"/><path class="b" d="M298.645,264.633l-9.265-9.265h9.265Z" transform="translate(178.976 3383.535)"/></g></svg>