<svg version="1.1" id="Layer_1" xmlns="http://www.w3.org/2000/svg" x="0" y="0" viewBox="0 0 512 512" xml:space="preserve"><style>.st0{fill:#fff}</style><path class="st0" d="M256 512c-60.6 0-119.4-21.6-165.5-60.7-10.8-9.2-21-19.4-30.2-30.3C21.4 374.9 0 316.3 0 256c0-68.4 26.6-132.7 75-181S187.6 0 256 0s132.7 26.6 181 75 75 112.6 75 181c0 60.3-21.4 118.9-60.3 165-9.2 10.9-19.4 21.1-30.2 30.3C375.4 490.4 316.6 512 256 512zm0-480C132.5 32 32 132.5 32 256c0 52.8 18.7 104.1 52.7 144.4 8.1 9.5 17 18.5 26.5 26.5C151.5 461.1 203 480 256 480s104.5-18.9 144.8-53.1c9.5-8.1 18.4-17 26.5-26.5 34-40.3 52.7-91.5 52.7-144.4 0-123.5-100.5-224-224-224z"/><path class="st0" d="M256 256c-52.9 0-96-43.1-96-96s43.1-96 96-96 96 43.1 96 96-43.1 96-96 96zm0-160c-35.3 0-64 28.7-64 64s28.7 64 64 64 64-28.7 64-64-28.7-64-64-64z"/><path class="st0" d="M411.2 455.1c-1.3 0-2.6-.2-3.9-.5-8.6-2.2-13.8-10.8-11.6-19.4 2.9-11.4 4.3-23.3 4.3-35.2 0-78.3-63.6-142.9-141.9-144h-4.2C175.6 257.1 112 321.7 112 400c0 11.9 1.5 23.7 4.3 35.2 2.2 8.6-3.1 17.3-11.6 19.4s-17.3-3.1-19.4-11.6c-3.5-14-5.3-28.4-5.3-43 0-46.6 18-90.5 50.7-123.6 32.7-33.1 76.3-51.7 122.8-52.4h5c46.5.6 90.1 19.2 122.8 52.4C414 309.5 432 353.4 432 400c0 14.5-1.8 29-5.3 43-1.8 7.2-8.3 12.1-15.5 12.1z"/></svg>