<svg xmlns="http://www.w3.org/2000/svg" width="53.74" height="32.813" viewBox="0 0 53.74 32.813"><defs><style>.a{fill:none;stroke:#fff;stroke-linecap:round;stroke-linejoin:round;stroke-width:2px;}</style></defs><g transform="translate(-1397.911 -3613.888)"><g transform="translate(178.976 3383.535)"><path class="a" d="M1231.562,256.68l-9.5-9.5a2.141,2.141,0,0,1,0-3.031h0a2.143,2.143,0,0,1,3.032,0"/><path class="a" d="M1237.145,238.008a2.144,2.144,0,0,1,0-3.032h0a2.144,2.144,0,0,1,3.032,0l6.545,6.544"/><path class="a" d="M1231.266,250.32l-10.7-10.7a2.144,2.144,0,0,1,0-3.032h0a2.144,2.144,0,0,1,3.032,0l10.7,10.7"/><path class="a" d="M1237.33,244.257l-12.242-12.242a2.143,2.143,0,0,0-3.032,0h0a2.143,2.143,0,0,0,0,3.031l2.925,2.925"/><path class="a" d="M1228.087,235.013a2.143,2.143,0,0,1,0-3.032h0a2.143,2.143,0,0,1,3.031,0l11.315,11.314"/><path class="a" d="M1246.722,241.52l2.329,2.33a10.719,10.719,0,0,1,0,15.159h0a10.719,10.719,0,0,1-15.16,0l-2.329-2.329"/><path class="a" d="M1242.433,252.909a6.8,6.8,0,0,1,0-9.614"/><path class="a" d="M1259.857,256.68l9.505-9.5a2.143,2.143,0,0,0,0-3.031h0a2.143,2.143,0,0,0-3.032,0"/><path class="a" d="M1254.274,238.008a2.143,2.143,0,0,0,0-3.032h0a2.145,2.145,0,0,0-3.032,0l-5.532,5.533"/><path class="a" d="M1260.153,250.32l10.7-10.7a2.145,2.145,0,0,0,0-3.032h0a2.145,2.145,0,0,0-3.032,0l-10.7,10.7"/><path class="a" d="M1254.089,244.257l12.242-12.242a2.143,2.143,0,0,1,3.032,0h0a2.141,2.141,0,0,1,0,3.031l-2.924,2.925"/><path class="a" d="M1263.333,235.013a2.144,2.144,0,0,0,0-3.032h0a2.144,2.144,0,0,0-3.032,0l-11.314,11.314"/><path class="a" d="M1245.71,261.279a10.724,10.724,0,0,0,11.818-2.27l2.329-2.329"/></g></g></svg>