<svg xmlns="http://www.w3.org/2000/svg" width="59.681" height="33.819"><g data-name="Group 52"><g data-name="Group 38"><g data-name="Group 37"><path data-name="Path 211" d="M52.718 0H6.963A6.971 6.971 0 000 6.963v19.894a6.971 6.971 0 006.963 6.963h45.755a6.971 6.971 0 006.963-6.963V6.963A6.971 6.971 0 0052.718 0zm4.973 26.856a4.979 4.979 0 01-4.973 4.973H6.963a4.979 4.979 0 01-4.973-4.973V6.963A4.979 4.979 0 016.963 1.99h45.755a4.979 4.979 0 014.973 4.973z" fill="#fff"/></g></g><g data-name="Group 40"><g data-name="Group 39"><path data-name="Path 212" d="M52.718 3.979H6.963a2.984 2.984 0 00-2.984 2.984v19.894a2.984 2.984 0 002.984 2.984h45.755a2.984 2.984 0 002.984-2.984V6.963a2.984 2.984 0 00-2.984-2.984zm.995 22.878a1 1 0 01-.995.995H6.963a1 1 0 01-.995-.995v-2.984h47.745zm0-4.973H5.968v-9.947h47.745zm0-11.936H5.968V6.964a1 1 0 01.995-.995h45.755a1 1 0 01.995.995z" fill="#fff"/></g></g><g data-name="Group 42"><g data-name="Group 41"><path data-name="Path 213" d="M19.894 6.963h-1.989a.995.995 0 100 1.989h1.989a.995.995 0 100-1.989z" fill="#fff"/></g></g><g data-name="Group 44"><g data-name="Group 43"><path data-name="Path 214" d="M41.776 6.963h-1.989a.995.995 0 000 1.989h1.989a.995.995 0 000-1.989z" fill="#fff"/></g></g><g data-name="Group 46"><g data-name="Group 45"><path data-name="Path 215" d="M19.894 24.867h-1.989a.995.995 0 100 1.989h1.989a.995.995 0 100-1.989z" fill="#fff"/></g></g><g data-name="Group 48"><g data-name="Group 47"><path data-name="Path 216" d="M41.776 24.867h-1.989a.995.995 0 000 1.989h1.989a.995.995 0 000-1.989z" fill="#fff"/></g></g><g data-name="Group 50"><g data-name="Group 49"><path data-name="Rectangle 11" fill="#fff" d="M28.837 15.915h3.979v1.989h-3.979z"/></g></g><g data-name="Group 51"><path data-name="Path 217" d="M41.422 15.037a.822.822 0 00-.649.417 2.269 2.269 0 00-.328 1.217 2.243 2.243 0 00.328 1.21.833.833 0 00.649.424.8.8 0 00.636-.424 2.244 2.244 0 00.328-1.21 2.27 2.27 0 00-.328-1.217.794.794 0 00-.636-.417z" fill="none"/><path data-name="Path 218" d="M15.076 17.434h1.108l-.554-1.47z" fill="none"/><path data-name="Path 219" d="M48.466 15.037a.9.9 0 00-.9.9.9.9 0 101.8 0 .89.89 0 00-.9-.9z" fill="none"/><path data-name="Path 220" d="M12.006 14.596a.372.372 0 00-.369.369v2.817l-2.209-3.056a.376.376 0 00-.519-.082.369.369 0 00-.15.314v3.979a.373.373 0 10.745 0v-2.838l2.188 3.036a.18.18 0 00.034.041.371.371 0 00.28.137.379.379 0 00.376-.376v-3.973a.378.378 0 00-.376-.368z" fill="#fff"/><path data-name="Path 221" d="M15.992 14.774a.376.376 0 00-.362-.239.382.382 0 00-.362.239l-1.511 4.027a.388.388 0 00.226.492.4.4 0 00.13.021.384.384 0 00.355-.239l.335-.889h1.661l.335.889a.383.383 0 00.479.219.388.388 0 00.226-.492zm-.916 2.66l.554-1.47.554 1.47z" fill="#fff"/><path data-name="Path 222" d="M20.684 14.528h-2.92a.371.371 0 00-.376.376.381.381 0 00.376.383h1.08v3.651a.375.375 0 00.376.376.371.371 0 00.376-.376v-3.653h1.087a.385.385 0 00.376-.383.375.375 0 00-.375-.374z" fill="#fff"/><path data-name="Path 223" d="M24.741 16.709a4.017 4.017 0 00-.943-.287h-.014a2.357 2.357 0 01-.855-.3.656.656 0 01-.184-.178.331.331 0 01-.048-.191.544.544 0 01.26-.431 1.306 1.306 0 01.766-.233 1.983 1.983 0 011.1.438.345.345 0 00.485-.1.352.352 0 00-.1-.485 2.679 2.679 0 00-1.491-.547 2.022 2.022 0 00-1.183.362 1.263 1.263 0 00-.547 1 1.049 1.049 0 00.157.561 1.469 1.469 0 00.636.533 3.694 3.694 0 00.882.267h.014a2.737 2.737 0 01.937.321.645.645 0 01.205.205.391.391 0 01.062.219.615.615 0 01-.294.492 1.473 1.473 0 01-.855.253 2.23 2.23 0 01-1.306-.527.357.357 0 00-.5.048.364.364 0 00.055.5 2.948 2.948 0 001.75.684 2.138 2.138 0 001.265-.39 1.323 1.323 0 00.588-1.06 1.108 1.108 0 00-.164-.581 1.6 1.6 0 00-.678-.573z" fill="#fff"/><path data-name="Path 224" d="M38.741 15.919a1.615 1.615 0 00-.424-1.1 1.646 1.646 0 00-1.217-.54 1.615 1.615 0 00-1.1.424l-.212.191a.378.378 0 00-.027.533.372.372 0 00.533.027l.212-.191a.9.9 0 01.6-.226.868.868 0 01.656.287.886.886 0 01.226.595.857.857 0 01-.287.656l-2.024 1.832a.378.378 0 00-.021.533.368.368 0 00.28.123h2.434a.371.371 0 00.376-.376.377.377 0 00-.376-.383h-1.456l1.292-1.169a1.646 1.646 0 00.535-1.216z" fill="#fff"/><path data-name="Path 225" d="M41.422 14.278a1.541 1.541 0 00-1.272.759 3.1 3.1 0 000 3.268 1.439 1.439 0 002.537 0 3.144 3.144 0 000-3.268 1.548 1.548 0 00-1.265-.759zm.636 3.6a.8.8 0 01-.636.424.833.833 0 01-.65-.424 2.243 2.243 0 01-.328-1.21 2.269 2.269 0 01.328-1.217.823.823 0 01.65-.417.794.794 0 01.636.417 2.27 2.27 0 01.328 1.217 2.244 2.244 0 01-.328 1.213z" fill="#fff"/><path data-name="Path 226" d="M45.908 14.552c-.007-.007-.007-.021-.014-.034s-.007-.021-.014-.034-.007-.014-.007-.021l-.007-.014-.027-.027a.093.093 0 00-.021-.027c-.007-.007-.014-.021-.027-.027s-.021-.014-.027-.02a.09.09 0 01-.027-.021c-.014 0-.021-.007-.041-.021a.041.041 0 00-.027-.007.074.074 0 00-.041-.014.04.04 0 01-.027-.007h-.075a.113.113 0 00-.048.007.041.041 0 00-.027.007c-.014 0-.027.007-.041.007s-.021.021-.034.021-.021.007-.027.014l-.841.5a.383.383 0 00.2.7.342.342 0 00.191-.055l.274-.157v3.364a.371.371 0 00.376.376.381.381 0 00.383-.376v-4.055a.058.058 0 01-.014-.048.29.29 0 01-.01-.031z" fill="#fff"/><path data-name="Path 227" d="M50.12 15.776c-.007-.007-.007-.007-.007-.014a1.659 1.659 0 10-1.648 1.826 1.612 1.612 0 00.656-.137 1.44 1.44 0 01-.089.178 1.394 1.394 0 01-.431.479 1.25 1.25 0 01-.643.191.4.4 0 00-.369.4.381.381 0 00.4.362 1.959 1.959 0 001.026-.321 2.393 2.393 0 00.882-1.169 4.006 4.006 0 00.239-1.4 9.867 9.867 0 00-.016-.395zm-1.654 1.06a.906.906 0 01-.9-.9.9.9 0 11.9.9z" fill="#fff"/></g></g></svg>