<svg xmlns="http://www.w3.org/2000/svg" width="42.56" height="33.904"><path data-name="Path 108" d="M39.889 20.931V9.545l.473-.142c1.817-.545 2.2-1.468 2.2-2.147s-.382-1.6-2.2-2.147L24.814.445a14.239 14.239 0 00-7.068 0L2.2 5.11C.383 5.655 0 6.578 0 7.257s.381 1.6 2.2 2.147l5.815 1.744v6.125c0 1.167.759 2.811 4.373 4.016a32.579 32.579 0 0017.787 0c3.614-1.2 4.373-2.849 4.373-4.016v-6.125l2.849-.855v10.638a3.924 3.924 0 00-2.671 3.713v5.342a3.918 3.918 0 107.836 0v-5.342a3.924 3.924 0 00-2.671-3.713zm-21.426-18.1a11.829 11.829 0 015.634 0l14.742 4.423-5.9 1.771h-.01L24.1 11.679a11.833 11.833 0 01-5.634 0L9.638 9.031h-.01l-5.9-1.771zm13.59 14.439c0 .161-.453.912-2.668 1.65a30.157 30.157 0 01-16.21 0c-2.215-.738-2.668-1.49-2.668-1.65v-5.374l7.239 2.172a14.239 14.239 0 007.068 0l7.239-2.172zm8.013 12.713a1.424 1.424 0 01-2.848 0v-5.339a1.424 1.424 0 112.848 0z" fill="#fff"/></svg>