<svg xmlns="http://www.w3.org/2000/svg" width="47.625" height="36.959"><g data-name="037---Baseball-Shirt" fill="#fff"><path d="M36.837.581A2.4 2.4 0 0035.268 0H12.354a2.4 2.4 0 00-1.567.579L.56 9.343a1.617 1.617 0 00-.241 2.188l3.952 5.262a1.616 1.616 0 002.068.441l4.616-2.562v19.877a2.41 2.41 0 002.41 2.41h20.89a2.41 2.41 0 002.41-2.41V14.671l4.625 2.567a1.607 1.607 0 002.054-.439l3.963-5.276a1.612 1.612 0 00-.241-2.179zM23.814 6.588l-3.32-4.981h6.64zM5.556 15.833L1.603 10.57l1.591-1.366 4.2 5.6zm7.006 18.721v-24.1a.804.804 0 10-1.607 0v2.379L8.814 14.02l-4.4-5.865 7.418-6.357a.794.794 0 01.519-.191h6.207l4.447 6.669v27.076h-9.641a.8.8 0 01-.802-.803zm23.3-24.907a.8.8 0 00-.8.8v24.1a.8.8 0 01-.8.8h-9.648V8.276l4.447-6.669h6.207a.8.8 0 01.521.192l7.416 6.355-4.4 5.865-2.139-1.186v-2.388a.8.8 0 00-.8-.8zm6.207 6.191l-1.848-1.024 4.2-5.607 1.593 1.361z"/><path data-name="Shape" d="M31.711 11.248h-3.749a1.738 1.738 0 00-1.741 1.731v4.136A1.727 1.727 0 0027 18.561l1.873 1.233a1.751 1.751 0 001.928 0l1.873-1.239a1.726 1.726 0 00.774-1.44V12.98a1.738 1.738 0 00-1.74-1.731zm.137 5.867a.123.123 0 01-.057.1L29.92 18.45a.142.142 0 01-.161 0l-1.874-1.235a.123.123 0 01-.055-.1v-4.14a.129.129 0 01.134-.124h3.749a.129.129 0 01.134.124z"/><circle cx=".803" cy=".803" r=".803" transform="translate(19.793 8.838)"/><circle data-name="Oval" cx=".803" cy=".803" r=".803" transform="translate(19.793 13.659)"/><circle data-name="Oval" cx=".803" cy=".803" r=".803" transform="translate(19.793 18.479)"/><circle data-name="Oval" cx=".803" cy=".803" r=".803" transform="translate(19.793 23.3)"/><circle data-name="Oval" cx=".803" cy=".803" r=".803" transform="translate(19.793 28.121)"/></g></svg>