<svg xmlns="http://www.w3.org/2000/svg" viewBox="0 0 25 25"><g fill="#FFF"><path d="M25 9.895s0-.1 0 0v-.1-.1-.1-.1l-1.3-1v-3.4c0-.9-.8-1.7-1.7-1.7h-4.2l-3.4-2.8c-1-.8-2.4-.8-3.4 0l-3.6 2.8H3.2c-.9 0-1.7.8-1.7 1.7v3.2l-1.2 1v12.8c0 .7.3 1.4.8 2 .3.7.9.9 1.6.9h19.6c.7 0 1.3-.2 1.8-.7.5-.5.8-1.2.8-2l.1-12.4zm-21.8-5h18.6c.1 0 .2.1.2.2v5.7l-.4.3-8.3 6.9c-.5.4-1.1.4-1.6 0l-8.3-6.9-.4-.3v-5.7c0-.1.1-.2.2-.2zm-1.7 17.4v-10.8l.3.3 7.2 5.9-7.4 5.1c-.1-.2-.1-.3-.1-.5zm8.6-3.7l.7.6c1 .8 2.4.8 3.4 0l.7-.6 7.1 4.9H3l7.1-4.9zm6-.9l7.2-5.9.3-.3v10.8c0 .1 0 .3-.1.4l-7.4-5zm-4.4-15.9c.5-.4 1.1-.4 1.6 0l2 1.7H9.7l2-1.7z"/><path d="M6.4 8.095c0 .4.3.7.7.7H14c.4 0 .7-.3.7-.7 0-.4-.3-.7-.7-.7H7.2c-.5-.1-.8.3-.8.7zM7.2 11.695h10.7c.4 0 .7-.3.7-.7 0-.4-.3-.7-.7-.7H7.2c-.4 0-.7.3-.7.7-.1.4.2.7.7.7z"/></g></svg>