<svg xmlns="http://www.w3.org/2000/svg" width="34.189" height="34.189" viewBox="0 0 34.189 34.189"><defs><style>.a,.b{fill:none;stroke:#fff;stroke-width:2px;}.a{stroke-miterlimit:10;}.b{stroke-linejoin:round;}</style></defs><g transform="translate(-1031.9 -3613.18)"><circle class="a" cx="6.624" cy="6.624" r="6.624" transform="translate(1042.359 3623.662)"/><path class="b" d="M886.113,248.916v-4.353l-4.271-.542a12.083,12.083,0,0,0-1.544-3.715l2.64-3.408-3.078-3.078-3.408,2.641a12.036,12.036,0,0,0-3.715-1.544l-.542-4.272h-4.353l-.541,4.265a12.07,12.07,0,0,0-3.726,1.543l-3.4-2.633L857.1,236.9l2.628,3.391a12.052,12.052,0,0,0-1.555,3.735l-4.248.539v4.353l4.242.538a12.076,12.076,0,0,0,1.553,3.746l-2.62,3.381,3.078,3.078,3.381-2.62a12.052,12.052,0,0,0,3.746,1.553l.538,4.242H872.2l.539-4.248a12.052,12.052,0,0,0,3.735-1.555l3.391,2.628,3.078-3.078-2.632-3.4a12.084,12.084,0,0,0,1.542-3.726Z" transform="translate(178.976 3383.535)"/></g></svg>