<svg xmlns="http://www.w3.org/2000/svg" width="54.832" height="39.817" viewBox="0 0 54.832 39.817"><defs><style>.a,.b{fill:none;stroke:#fff;stroke-linecap:round;stroke-linejoin:round;}.a{stroke-width:2px;}</style></defs><g transform="translate(-1018.108 -3772.182)"><path class="a" d="M844.908,369.972l16.629,10.116a24.143,24.143,0,0,0,8.264,3.135h0a24.118,24.118,0,0,1,8.265,3.134l10.841,6.6,2.813-4.623-10.841-6.6a24.132,24.132,0,0,1-6.583-5.9h0a24.13,24.13,0,0,0-6.583-5.9l-16.631-10.119a2.465,2.465,0,0,0-2.859.181,13.644,13.644,0,0,0-2.709,3.387,13.953,13.953,0,0,0-1.734,3.842A2.509,2.509,0,0,0,844.908,369.972Z" transform="translate(175.433 3413.811)"/><rect class="a" width="9.787" height="3.835" rx="1.917" transform="matrix(0.52, -0.854, 0.854, 0.52, 1063.203, 3808.632)"/><path class="b" d="M856.585,363.166c-1.754-.33-3.085-.129-3.581.685-1,1.649,1.793,5.182,6.246,7.891s8.876,3.568,9.879,1.919c.49-.805.07-2.059-1-3.446-.141-.09-.272-.193-.415-.279" transform="translate(175.433 3413.811)"/></g></svg>