<svg xmlns="http://www.w3.org/2000/svg" width="47.75" height="29.678" viewBox="0 0 47.75 29.678"><defs><style>.a,.b{fill:none;stroke:#fff;stroke-linecap:round;stroke-linejoin:round;}.a{stroke-width:2px;}.c{fill:#fff;}</style></defs><g transform="translate(-1398.647 -3776.601)"><g transform="translate(175.433 3413.811)"><ellipse class="a" cx="22.875" cy="13.839" rx="22.875" ry="13.839" transform="translate(1224.214 363.79)"/><path class="b" d="M1230.653,371.895c-3.863,1.519-6.439,3.53-6.439,5.734,0,2.248,2.533,4.294,6.439,5.823"/><path class="b" d="M1258.687,370.4a50.542,50.542,0,0,0-22.928-.063"/><path class="b" d="M1263.526,383.452c3.905-1.529,6.438-3.575,6.438-5.823,0-2.2-2.576-4.215-6.438-5.734"/><path class="b" d="M1235.491,384.92a53.064,53.064,0,0,0,23.2,0"/><path class="c" d="M1230.653,387.024a26.453,26.453,0,0,0,4.839,2.371V365.972a27.492,27.492,0,0,0-4.839,2.4Z"/><path class="c" d="M1258.687,389.395a26.474,26.474,0,0,0,4.838-2.371V368.375a27.512,27.512,0,0,0-4.838-2.4Z"/><line class="a" y2="3.913" transform="translate(1247.089 366.849)"/><line class="a" y2="3.913" transform="translate(1243.354 366.849)"/><line class="a" y2="3.913" transform="translate(1250.753 366.849)"/></g></g></svg>