<svg xmlns="http://www.w3.org/2000/svg" viewBox="0 0 477.9 477.9" width="35.799" height="36"><path d="M387.4 233.5c49-44 53-119.4 9-168.4C356 20.2 288.4 12.5 239 47.3 185.2 9.3 110.8 22.2 72.8 76c-34.9 49.4-27.3 117.1 17.7 157.5C34.6 262.9-.3 321 0 384.1v51.2c0 9.4 7.6 17.1 17.1 17.1h443.7c9.4 0 17.1-7.6 17.1-17.1v-51.2c.2-63.1-34.6-121.2-90.5-150.6zM307.2 59.8c47.1-.1 85.3 38.1 85.3 85.1 0 33.6-19.6 64-50.2 77.8-1.3.6-2.6 1.1-4 1.7-4.2 1.7-8.6 3.1-13 4-.9.2-1.7.3-2.6.5-5 .9-10 1.5-15 1.5-2.3 0-4.6-.2-6.8-.4-.9 0-1.7 0-2.6-.2-9.7-1.1-19.1-3.9-27.9-8.2-.3-.2-.7-.1-1-.3-1.7-.8-3.4-1.5-4.9-2.5.1-.2.2-.4.4-.5 7.8-10.1 14-21.3 18.3-33.3l.5-1.4c1.9-5.7 3.5-11.6 4.5-17.6.2-.9.3-1.7.4-2.6 1-6.1 1.5-12.2 1.6-18.3 0-6.1-.6-12.3-1.6-18.3-.1-.9-.3-1.7-.4-2.6-1.1-6-2.6-11.8-4.5-17.6l-.5-1.4c-4.3-12-10.5-23.2-18.3-33.3-.1-.2-.2-.4-.4-.5 12.9-7.6 27.7-11.6 42.7-11.6zM85.3 145.2c-.1-47 37.9-85.2 84.9-85.3 22-.1 43.2 8.4 59.1 23.7 1 1 2 1.9 2.9 2.9 2.9 3.1 5.6 6.4 8.1 9.8.8 1.1 1.4 2.2 2.1 3.3 2.4 3.7 4.5 7.5 6.3 11.5.4 1 .8 2 1.1 2.9 1.8 4.4 3.2 9 4.2 13.7.1.5.2 1 .3 1.6 2.2 10.6 2.2 21.5 0 32.1-.1.5-.1 1-.3 1.6-1 4.7-2.4 9.2-4.2 13.7-.4 1-.7 2-1.1 2.9-1.8 4-3.9 7.8-6.3 11.5l-2.1 3.3c-2.5 3.5-5.2 6.7-8.1 9.8l-2.9 2.9c-6.9 6.6-14.9 12-23.6 15.9-1.4.6-2.8 1.2-4.2 1.7-4.1 1.6-8.3 2.9-12.7 3.9l-3.3.6c-4.6.9-9.3 1.3-14 1.4h-1.9c-4.7-.1-9.4-.6-14-1.4-1.1-.2-2.2-.3-3.3-.6-4.3-1-8.6-2.3-12.7-3.9-1.4-.6-2.8-1.1-4.2-1.7-30.4-13.9-50-44.3-50.1-77.8zm221.9 273H34.1v-34.1c-.2-57.8 36.2-109.5 90.8-128.6 29.3 12.2 62.2 12.2 91.5 0 5.7 2.1 11.3 4.5 16.6 7.4 3.6 1.8 6.8 3.9 10.2 6 2.2 1.4 4.5 2.7 6.6 4.2 3.3 2.3 6.4 4.9 9.5 7.5 2 1.7 3.9 3.4 5.8 5.1 2.8 2.7 5.5 5.5 8 8.4 1.8 2.1 3.6 4.2 5.3 6.4 2.2 2.9 4.4 5.8 6.3 8.8 1.7 2.6 3.2 5.2 4.7 7.9 1.7 2.9 3.3 5.9 4.7 8.9 1.4 3.1 2.7 6.4 3.9 9.7 1.1 2.8 2.2 5.6 3.1 8.5 1.2 4 2 8.1 2.9 12.2.5 2.4 1.2 4.8 1.6 7.3 1 6.8 1.5 13.6 1.6 20.4v34zm136.5 0H341.3v-34.1c0-5.3-.3-10.6-.8-15.9-.1-1.5-.4-3.1-.5-4.6-.5-3.8-1-7.5-1.7-11.2-.3-1.6-.6-3.2-1-4.8-.8-3.8-1.8-7.6-2.9-11.3-.4-1.2-.7-2.5-1.1-3.7-4.8-15.3-11.7-29.8-20.6-43.1l-.7-1c-2.9-4.4-6.1-8.6-9.4-12.6l-.1-.2c-3.4-4.2-7.1-8.3-11-12.2h.7c4.8.6 9.7 1 14.5 1h.9c4.5 0 9-.3 13.4-.9l4.2-.6c3.6-.6 7.2-1.3 10.8-2.2 1-.3 2-.5 3.1-.8 4.6-1.3 9.2-2.8 13.7-4.6 54.6 19.1 91.1 70.8 90.8 128.6l.1 34.2z" fill="#fff"/></svg>