<svg xmlns="http://www.w3.org/2000/svg" width="42.783" height="37.98" viewBox="0 0 42.783 37.98"><defs><style>.a,.b{fill:none;stroke:#fff;stroke-linecap:round;stroke-linejoin:round;}.a{stroke-width:2px;}</style></defs><g transform="translate(-646.723 -3771.616)"><path class="a" d="M476.1,369.154c1.107-6.377,10.4-10.349,10.4-10.349s-.742,2.227,2.863,5.3,9.119-.954,9.119-.954,3.324,18.006,4.914,20.657,10.3,4.14,9.659,7-3.864,3.973-3.864,3.973H496.855c-3.37,0-24.565-21.772-24.565-21.772s3.393-5.3,6.15-4.135,5.815,1.662,8.254,2.616.424,5.341,2.12,8.8,5.288,9.67,10.166,10.518h14.073" transform="translate(175.433 3413.811)"/><line class="b" x1="5.043" y2="1.026" transform="translate(669.766 3784.068)"/><line class="b" x1="5.043" y2="1.026" transform="translate(670.201 3788.446)"/><line class="b" x1="5.043" y2="1.026" transform="translate(671.091 3792.823)"/><line class="b" x2="10.136" y2="10.371" transform="translate(649.867 3784.191)"/></g></svg>