<svg xmlns="http://www.w3.org/2000/svg" width="35.225" height="35.301"><g fill="#fff"><path data-name="Path 1" d="M34.077 3.6h-6.729V1.148a1.15 1.15 0 00-2.3 0V3.6H10.231V1.148a1.15 1.15 0 00-2.3 0V3.6H1.148A1.148 1.148 0 000 4.752v29.4A1.148 1.148 0 001.148 35.3h32.929a1.148 1.148 0 001.148-1.148v-29.4A1.148 1.148 0 0034.077 3.6zM2.296 33.005V5.9h5.64v2.171a1.15 1.15 0 102.3 0V5.9h6.233v27.105zm30.634 0H18.76V5.9h6.288v2.171a1.15 1.15 0 102.3 0V5.9h5.584v27.105z"/><path data-name="Path 2" d="M9.606 26.224a1.114 1.114 0 01-1.114-1.114v-8.218a1.115 1.115 0 01-.554-2.035l1.044-.7a1.114 1.114 0 011.736.923v10.034a1.114 1.114 0 01-1.114 1.114z"/><path data-name="Path 3" d="M29.326 26.278c-.171 0 .995.011-4.692-.05a2.394 2.394 0 01-1.164-4.472c3.778-2.163 3.49-2 3.587-2.043a1.858 1.858 0 00.966-2.536 1.882 1.882 0 00-2.2-.966l-2.285 1.059a1.114 1.114 0 01-.936-2.021c2.551-1.182 2.378-1.105 2.463-1.133a4.086 4.086 0 012.913 7.628l-3.4 1.945a.167.167 0 00.081.312l4.68.05a1.114 1.114 0 01-.012 2.227z"/></g></svg>