<svg xmlns="http://www.w3.org/2000/svg" width="40" height="40" x="0" y="0" viewBox="0 0 512 512" xml:space="preserve"><path fill="#fff" d="M88 456c-8.8 0-16-7.2-16-16V66c0-36.4 29.6-66 66-66h286c8.8 0 16 7.2 16 16v368c0 8.8-7.2 16-16 16s-16-7.2-16-16V32H138c-18.7 0-34 15.3-34 34v374c0 8.8-7.2 16-16 16z"/><path fill="#fff" d="M424 512H144c-39.7 0-72-32.3-72-72s32.3-72 72-72h280c8.8 0 16 7.2 16 16s-7.2 16-16 16H144c-22.1 0-40 17.9-40 40s17.9 40 40 40h280c8.8 0 16 7.2 16 16s-7.2 16-16 16z"/><path fill="#fff" d="M424 456H144c-8.8 0-16-7.2-16-16s7.2-16 16-16h280c8.8 0 16 7.2 16 16s-7.2 16-16 16zM160 400c-8.8 0-16-7.2-16-16V16c0-8.8 7.2-16 16-16s16 7.2 16 16v368c0 8.8-7.2 16-16 16z"/></svg>
