<svg xmlns="http://www.w3.org/2000/svg" width="35.799" height="36" viewBox="0 0 512 512"><path d="M376.4 136c8.4-2.3 14.6-10.1 14.6-19.2 0-11-9-20-20-20s-20 9-20 20c0 5.5 2.2 10.5 5.8 14.1-12.9-2.7-26.2-4.1-39.8-4.1-46.9 0-92.2 16.9-127.6 47.5-32.4 28.1-54.7 66-63.3 107.7L0 312.5v38l19.4 19.4c30.2 30.2 69.9 45.3 109.6 45.3s79.4-15.1 109.6-45.3l22.3-22.3c75.6 18 153.2 27.3 232 27.6H505l2.6-11.9c3-13.6 4.5-27.7 4.5-41.7-.1-86.7-57.2-160.4-135.7-185.6zm-159 212.7c-48.7 48.7-128 48.7-176.8 0L30 338.1v-2L138.1 310c29.3 11.1 58.9 20.7 89 29l-9.7 9.7zm23.6-41.9c0 1.6 0 3.3.1 4.9-28.6-7.7-57-16.7-84.9-27C164 250.8 182.5 220 209 197c28.5-24.7 64.6-38.8 102.2-40.1-15.7 13.1-29.4 28.6-40.4 46.1-19.5 31.1-29.8 66.9-29.8 103.8zm239.4 38.3c-70.9-1.2-140.7-9.8-208.9-25.8-.3-4.2-.5-8.4-.5-12.6 0-31.2 8.7-61.5 25.2-87.8 15.1-24 36.1-43.7 61-57.3 71.6 18 124.8 82.9 124.8 160 0 8-.6 15.8-1.6 23.5z" fill="#fff"/></svg>