<svg version="1.1" id="Capa_1" xmlns="http://www.w3.org/2000/svg" x="0" y="0" viewBox="0 0 512 512" width="35.799" height="36" xml:space="preserve"><style>.st0{fill:#fff}</style><path class="st0" d="M436.8 75.2C388.3 26.7 324.1 0 256 0S123.7 26.7 75.2 75.2 0 187.9 0 256s26.7 132.3 75.2 180.8S187.9 512 256 512s132.3-26.7 180.8-75.2S512 324.1 512 256s-26.7-132.3-75.2-180.8zM256 482C131.4 482 30 380.6 30 256S131.4 30 256 30s226 101.4 226 226-101.4 226-226 226z"/><path class="st0" d="M301 210.8c0 8.3 6.7 15 15 15s15-6.7 15-15c0-16.6-8.6-32.6-23.6-43.8-10.2-7.7-22.8-12.8-36.4-15v-16.2c0-8.3-6.7-15-15-15s-15 6.7-15 15V152c-13.6 2.2-26.2 7.3-36.4 15-15 11.2-23.6 27.2-23.6 43.8s8.6 32.6 23.6 43.8c10.2 7.7 22.8 12.8 36.4 15V329c-17.3-4.2-30-15.4-30-28.2 0-8.3-6.7-15-15-15s-15 6.7-15 15c0 16.6 8.6 32.6 23.6 43.8 10.2 7.7 22.8 12.8 36.4 15V376c0 8.3 6.7 15 15 15s15-6.7 15-15v-16.3c13.6-2.2 26.2-7.3 36.4-15 15-11.2 23.6-27.2 23.6-43.8s-8.6-32.6-23.6-43.8c-10.2-7.7-22.8-12.8-36.4-15v-59.4c17.3 4.2 30 15.4 30 28.1zm-90 0c0-12.8 12.7-24 30-28.2V239c-17.3-4.2-30-15.4-30-28.2zm90 90c0 12.8-12.7 24-30 28.2v-56.4c17.3 4.3 30 15.5 30 28.2z"/></svg>