<svg xmlns="http://www.w3.org/2000/svg" width="87.595" height="35.141"><g data-name="Group 29" fill="#fff"><path data-name="Path 112" d="M50.093 10.264c0 2.677-1.919 3.99-5.773 3.99a10.45 10.45 0 01-5.942-1.517l1.188-2.8a8.556 8.556 0 004.652 1.245c1.46 0 2.054-.29 2.054-.921 0-.546-.543-.8-1.732-.8a8.566 8.566 0 00-2.8.426l-2.734-.7.645-6.734h9.763v3.086h-6.792l-.187 1.944a5.855 5.855 0 013.311-.887c2.799.001 4.347 1.28 4.347 3.668z"/><path data-name="Path 113" d="M50.512 8.251a5.821 5.821 0 016.2-6 5.821 5.821 0 016.2 6 5.82 5.82 0 01-6.2 6 5.821 5.821 0 01-6.2-6zm8.574 0c0-1.654-.917-2.694-2.377-2.694s-2.377 1.04-2.377 2.694.917 2.694 2.377 2.694 2.377-1.037 2.377-2.694z"/><path data-name="Path 114" d="M74.782 10.264c0 2.677-1.918 3.99-5.773 3.99a10.45 10.45 0 01-5.942-1.517l1.188-2.8a8.556 8.556 0 004.652 1.245c1.46 0 2.054-.29 2.054-.921 0-.546-.543-.8-1.732-.8a8.567 8.567 0 00-2.8.426l-2.733-.7.645-6.734h9.763v3.086h-6.792l-.187 1.944a5.857 5.857 0 013.311-.887c2.8.001 4.346 1.28 4.346 3.668z" opacity=".5"/><path data-name="Path 115" d="M75.2 8.251a5.82 5.82 0 016.2-6 5.82 5.82 0 016.2 6 5.82 5.82 0 01-6.2 6 5.82 5.82 0 01-6.2-6zm8.574 0c0-1.654-.917-2.694-2.377-2.694s-2.377 1.04-2.377 2.694.917 2.694 2.377 2.694 2.377-1.037 2.377-2.694z" opacity=".5"/><g data-name="Group 25"><path data-name="Path 116" d="M41.519 26.59v6.623h-2.538V17.602h3.774c1.986 0 3.84.4 3.84 3.613v1.16c0 1.918-.728 2.743-1.721 3.1 1.015.4 1.721 1.271 1.721 3.234v.468c0 2.832.243 3.345.6 4.036h-2.737a9.193 9.193 0 01-.4-3.189v-1.16c0-1.784-.464-2.275-1.92-2.275zm1.015-2.252c1.125 0 1.523-.357 1.523-1.494V21.35c0-1.137-.4-1.516-1.523-1.516h-1.015v4.5z"/><path data-name="Path 117" d="M53.857 30.917h-2.958l-.375 2.3h-2.317l2.67-15.611h3.244l2.671 15.611h-2.535zm-2.6-2.141h2.251l-.441-2.743a83.588 83.588 0 01-.684-5.419 84.924 84.924 0 01-.685 5.419z"/><path data-name="Path 118" d="M61.183 33.214h-2.538V17.603h5.8v2.23h-3.267v4.438h2.825v2.252h-2.825z"/><path data-name="Path 119" d="M68.797 33.214h-2.534V17.603h5.8v2.23h-3.267v4.438h2.825v2.252h-2.825z"/><path data-name="Path 120" d="M73.872 17.603h2.538v13.381h3.266v2.23h-5.8z"/><path data-name="Path 121" d="M83.87 30.984h3.531v2.23h-6.069V17.603h5.958v2.23h-3.421v4.126h2.979v2.252h-2.979z"/></g><g data-name="Group 28"><g data-name="Group 26"><path data-name="Path 122" d="M28.033 8.636h.045z"/><path data-name="Path 123" d="M28.119 8.633z"/><path data-name="Path 124" d="M28.263 8.641h.022z"/><path data-name="Path 125" d="M28.361 8.654h.01z"/><path data-name="Path 126" d="M27.952 8.643l.063-.006z"/><path data-name="Path 127" d="M27.757 8.681l.044-.011z"/><path data-name="Path 128" d="M27.889 8.652l.056-.008z"/><path data-name="Path 129" d="M27.674 8.706l.064-.019z"/><path data-name="Path 130" d="M28.438 8.67l.025.006z"/><path data-name="Path 131" d="M27.824 8.665l.043-.009z"/><path data-name="Path 132" d="M28.183 8.635z"/><path data-name="Path 133" d="M29.717 9.627q.085.129.158.263-.073-.134-.158-.263a2.353 2.353 0 00-.779-.752 2.353 2.353 0 01.779.752z"/><path data-name="Path 134" d="M28.872 8.84a1.988 1.988 0 010 0z"/><path data-name="Path 135" d="M30.426 11.566q.03.168.054.338-.019-.17-.054-.338z"/><path data-name="Path 136" d="M30.528 12.311a6.407 6.407 0 00-.026-.238l-.022-.17.022.17c.01.079.018.158.026.238z"/><path data-name="Path 137" d="M28.663 8.742l.023.009z"/><path data-name="Path 138" d="M30.387 11.368q.021.1.039.2-.018-.106-.039-.2z"/><path data-name="Path 139" d="M28.586 8.71l.028.01z"/><path data-name="Path 140" d="M28.51 8.689l.028.008z"/><path data-name="Path 141" d="M31.128 13.459a11.2 11.2 0 00-.077-1.453 7.994 7.994 0 00-.3-1.437 4.874 4.874 0 00-.577-1.249 2.878 2.878 0 00-1.18-1.039 2.048 2.048 0 00-.876-.2 2 2 0 00-.616.1 2.237 2.237 0 00-.9.559l-.1.1L17.663.001l-14.6 14.6 17.733 17.733 14.6-14.6zm-3.733-4.634a1.59 1.59 0 01.278-.12l.064-.019.02-.005.044-.011.022-.005.044-.009h.021l.056-.008h.007l.063-.006h.272l.075.011h.01l.065.013.025.006.05.013.028.008.048.015.027.01.05.019.024.009.073.032c.039.018.076.037.113.057l.062.035a2.351 2.351 0 01.779.752 3.39 3.39 0 01.229.398 4.812 4.812 0 01.281.71c.065.209.119.42.163.633q.021.1.039.2.03.168.054.338l.022.17q.015.119.026.238c.031.317.045.635.047.953 0 .238 0 .477-.015.716l-.016.285q-.021.3-.055.593-.017.146-.037.291a14.313 14.313 0 01-.385 1.875 12.647 12.647 0 01-.95 2.454 8.723 8.723 0 01-.55.929q-.183.267-.392.517a9.31 9.31 0 01-.13.15q-.1.111-.2.216-.14.14-.29.268a4.426 4.426 0 01-.393.3 4.811 4.811 0 01-.168.108 3.4 3.4 0 01-1.282.472l-.112.014h-.037l-.076.007H25.07l-.079-.005h-.027l-.077-.008h-.016l-.091-.013h-.024l-.071-.013h-.025l-.09-.02h-.009l-.082-.021-.026-.007-.073-.022-.019-.006-.089-.03-.021-.008-.07-.027-.025-.01-.088-.038a1.792 1.792 0 01-.116-.058l-.117-.062-.042.058a4.127 4.127 0 01-.849.922q-.108.086-.223.164t-.236.149a4.029 4.029 0 01-.379.194l-.13.056q-.131.053-.266.095l-.135.04a3.838 3.838 0 01-.555.107c-.048.006-.1.01-.144.014h-.042l-.108.006h-.358l-.139-.008h-.024l-.127-.012h-.022l-.139-.019h-.031l-.142-.024a2.2 2.2 0 01-.26-.066q-.089-.028-.175-.064a2.453 2.453 0 01-.581-.342 2.961 2.961 0 01-.3-.268 3.291 3.291 0 01-.514-.705l-.021-.04-.047-.09q-.045-.089-.085-.18a4.546 4.546 0 01-.183-.492 3.628 3.628 0 01-.075-.28 6.4 6.4 0 01-.042-.189l-.018-.1-.017-.1q-.029-.18-.048-.36l-.016-.18q-.019-.27-.016-.542 0-.181.014-.362.022-.341.07-.677.018-.125.04-.249l.027-.152.026-.133q.03-.146.065-.291.076-.317.176-.63.092-.287.192-.57l.1-.283c.173-.47.362-.934.558-1.4a22.628 22.628 0 01.85-1.806l.042-.09-.131.017a2.347 2.347 0 00-.121.018 3.677 3.677 0 00-.5.122q-.105.034-.208.074a3.088 3.088 0 00-.4.192 2.283 2.283 0 00-.8.727l-.032.052-.029.054c-.022.042-.042.086-.065.134l.078.04a1.415 1.415 0 01.409.305 1.2 1.2 0 01.089.109 1.236 1.236 0 01.138.25 1.4 1.4 0 01.069.216 1.2 1.2 0 01.031.285v.05c0 .016 0 .056-.008.084a1.175 1.175 0 01-.027.141 1.135 1.135 0 01-.079.214 1.121 1.121 0 01-.068.119.642.642 0 01-.038.053 1.1 1.1 0 01-.107.125 1.152 1.152 0 01-.265.2l-.064.032-.021.01-.043.019-.026.01-.04.014-.028.009-.038.011-.029.007-.037.008-.03.005-.037.006H16.727l-.035-.006-.027-.005-.036-.008-.027-.006-.038-.01-.025-.007-.042-.013-.021-.007-.063-.023-.054-.023a1.192 1.192 0 01-.212-.126l-.056-.044a1.269 1.269 0 01-.068-.06l-.072-.07a1.26 1.26 0 01-.1-.11 2.278 2.278 0 01-.215-.271 1.806 1.806 0 01-.1-.173 2.206 2.206 0 01-.194-.531 2.4 2.4 0 01-.056-.437 2.906 2.906 0 01.146-1.022q.062-.19.139-.37a4.316 4.316 0 01.231-.465 4.2 4.2 0 01.366-.534q.082-.1.17-.2t.185-.19l.091-.085q.092-.083.19-.16t.2-.148l.1-.07q.1-.068.211-.132a5.931 5.931 0 01.633-.323l.069-.03c.065-.028.13-.055.2-.08s.155-.059.233-.086c.234-.082.474-.154.716-.216a11.117 11.117 0 011.171-.233q.326-.047.654-.08c.109-.011.219-.021.328-.029l.329-.023.179-.01h.04l.178-.008h.698l-.008.017-.021.045c-.212.375-.411.756-.6 1.141q-.1.192-.191.386c-.173.354-.35.705-.517 1.062l-.157.341q-.387.855-.72 1.733-.133.351-.257.706-.089.254-.171.509-.166.51-.307 1.028-.07.259-.133.52c-.059.244-.113.489-.161.736-.053.272-.1.546-.132.821a4.84 4.84 0 00-.038.578q0 .108.006.217v.072a3 3 0 00.074.462 1.867 1.867 0 00.081.25 1.514 1.514 0 00.076.159c.014.026.029.052.045.077a1.35 1.35 0 00.083.118 1.163 1.163 0 00.092.1 1.177 1.177 0 00.09.081c.026.021.053.041.08.059a1.218 1.218 0 00.555.195l.078.006H20.76l.07-.005h.016l.069-.008h.008l.063-.01H21l.068-.014h.013l.061-.015h.01l.067-.02h.015l.068-.022a2.793 2.793 0 00.52-.242l.08-.05c.053-.034.1-.07.155-.108q.113-.085.219-.182a3.044 3.044 0 00.266-.278l.029-.038a.252.252 0 00-.018-.029 4.465 4.465 0 01-.515-.812q-.09-.183-.165-.374-.05-.127-.093-.257a5.013 5.013 0 01-.141-.531l-.029-.137a6.572 6.572 0 01-.025-.137 6.851 6.851 0 01-.083-.692l-.009-.14a8.28 8.28 0 01-.011-.568c0-.315.025-.63.059-.943v-.013c.012-.108.024-.216.038-.323v-.027c.044-.335.1-.668.175-1l.033-.14q.042-.171.092-.34a8.045 8.045 0 01.486-1.262l.061-.121q.092-.181.2-.356.069-.117.143-.232c.053-.081.106-.161.163-.239q.056-.078.114-.154.088-.114.181-.222a4.2 4.2 0 01.333-.344q.106-.1.22-.188l.1-.08c.07-.052.143-.1.217-.145.037-.022.074-.044.112-.064a2.173 2.173 0 01.484-.193l.076-.018h.021l.064-.012h.013l.075-.011h.019l.061-.006h.256l.1.009h.025l.073.011.031.005.072.015.025.006.1.026.017.005.078.026.03.011.068.026.028.011.094.042c.058.027.113.057.167.089s.1.065.154.1l.073.055a2.219 2.219 0 01.435.459 2.034 2.034 0 01.121.187c.022.038.05.086.073.13q.067.127.121.258a3.752 3.752 0 01.228.82 5.764 5.764 0 01.074.984q0 .163-.01.327c-.017.32-.051.636-.1.951l-.025.155q-.033.194-.072.387-.072.352-.163.7a11.861 11.861 0 01-.461 1.411q-.137.343-.294.677a11.665 11.665 0 01-.855 1.5c-.063.094-.129.186-.193.278a.321.321 0 00-.017.029l-.007.012h.13l.036-.008h.013l.028-.006c.034-.008.067-.016.1-.026a2.177 2.177 0 00.63-.322 3.73 3.73 0 00.374-.3 4.856 4.856 0 00.539-.592q.078-.1.151-.2a6.58 6.58 0 00.367-.574l.068-.122q.059-.107.113-.217t.106-.222q.093-.2.176-.41a8.708 8.708 0 00.465-1.631l.034-.192a10.717 10.717 0 00.152-1.944q0-.091-.006-.182a8.848 8.848 0 00-.025-.363q-.013-.136-.032-.27c0-.03-.009-.06-.014-.09q-.014-.09-.032-.179l-.018-.089q-.028-.133-.064-.266a3.466 3.466 0 00-.5-1.1 2.506 2.506 0 00-.945-.822 2.476 2.476 0 00-.433-.168l-.116-.031-.068-.017v-.035a.573.573 0 010-.068.62.62 0 01.011-.067c0-.022.01-.044.016-.066l.009-.033a1.576 1.576 0 01.078-.213q.023-.051.049-.1.04-.074.086-.143l.032-.046a2.084 2.084 0 01.219-.257 1.762 1.762 0 01.398-.321z"/><path data-name="Path 142" d="M25.417 14.671c0-.032 0-.064.007-.1s0-.066 0-.1a3.175 3.175 0 00-.009-.383 2.097 2.097 0 00-.024-.192c0-.019-.006-.037-.01-.056a1.326 1.326 0 00-.06-.218.841.841 0 00-.047-.1l-.029-.05a.372.372 0 00-.2-.162.4.4 0 00-.075-.017h-.171l-.053.006-.051.01h-.009l-.05.014h-.01l-.05.018-.049.022h-.009l-.047.025-.009.005-.048.03a1.258 1.258 0 00-.279.257l-.045.058a2.71 2.71 0 00-.291.513 3.98 3.98 0 00-.18.5 6.129 6.129 0 00-.15.643c-.016.086-.029.173-.042.26s-.021.164-.03.246c0 .048-.01.1-.014.146a6.81 6.81 0 00-.018.269c0 .084-.008.169-.01.253v.268q0 .248.016.494.02.329.066.655l.025.163q.016.1.036.2c.03.16.064.318.1.475.014.056.029.112.045.167q.07.25.161.5c0 .013.009.026.015.038s.021.052.032.08l.018.044v-.007l.017-.028c.006-.01.012-.019.016-.029l.055-.109c.055-.109.11-.219.162-.33.174-.378.331-.763.474-1.153q.137-.375.258-.757l.086-.28c.1-.33.19-.661.267-.995q.033-.143.062-.287a8.373 8.373 0 00.151-1.006z"/></g><g data-name="Group 27"><path data-name="Path 143" d="M2.483 17.295l.409-.408a.78.78 0 00.278-.653.9.9 0 00-.289-.511l-.485-.486-2.4 2.395.35.35.833-.833.135.136a.73.73 0 001.169.01zm-.867-.347l-.116-.116.929-.929.116.116c.192.192.193.321 0 .511l-.425.425c-.184.187-.312.185-.504-.007z"/><path data-name="Path 144" d="M4.54 17.382l-.99.989-.406-.406.99-.989-.35-.35-2.4 2.395.35.35 1.089-1.089.406.406-1.089 1.089.35.35 2.4-2.395z"/><path data-name="Rectangle 7" d="M2.918 20.55l2.395-2.395.35.35L3.268 20.9z"/><path data-name="Path 145" d="M4.359 21.357l2.079-2.078-.35-.35-2.4 2.395.859.859.316-.316z"/><path data-name="Path 146" d="M7.481 20.322l-2.8 1.985.325.325.438-.313.427.427-.309.441.351.351 1.985-2.8zm-.506.887c-.138.177-.269.352-.393.527l-.462.651-.323-.324.651-.462c.175-.123.35-.253.527-.392z"/><path data-name="Path 147" d="M9.42 22.262l-1.244 1.244c-.047.047-.1.1-.161.169l.125-.211.885-1.6-.437-.437-2.4 2.395.311.311 1.44-1.44c.046-.046.1-.1.159-.164l-.123.207-1.021 1.852.374.374 2.395-2.4z"/><path data-name="Path 148" d="M10.722 24.197l.316-.316-1.053-1.053-.317.316.352.352-2.078 2.079.35.35 2.078-2.079z"/><path data-name="Path 149" d="M12.058 24.901l-.989.989-.406-.406.99-.989-.35-.35-2.395 2.395.35.35 1.089-1.089.406.406-1.089 1.089.35.35 2.4-2.395z"/><path data-name="Path 150" d="M12.26 28.427a.672.672 0 00.248-.662.658.658 0 00.652-.238l.216-.216a.679.679 0 00-.021-1.114l-.518-.518-2.4 2.395.35.35 1.032-1.033.083.083c.125.125.179.22.175.308a.562.562 0 01-.2.328l-.2.2a2.213 2.213 0 00-.424.532l-.018.033.383.384.028-.072c.056-.146.111-.255.517-.662zm.023-1.21l-.142-.142.729-.729.142.142c.191.191.192.3 0 .484l-.249.249c-.187.19-.286.19-.48-.004z"/><path data-name="Path 151" d="M14.805 28.775a.9.9 0 00.309-.6.762.762 0 00-.26-.55.765.765 0 00-.552-.262.9.9 0 00-.6.31l-1.268 1.268a.723.723 0 00-.049 1.151.765.765 0 00.539.259.888.888 0 00.613-.307zm-2.2.787a.412.412 0 01.139-.234l1.342-1.341a.381.381 0 01.252-.141.277.277 0 01.193.1c.141.141.128.274-.042.445l-1.341 1.341c-.171.171-.3.183-.445.042a.264.264 0 01-.094-.213z"/><path data-name="Path 152" d="M15.84 30.652l.408-.408a.78.78 0 00.278-.653.9.9 0 00-.289-.511l-.486-.485-2.395 2.395.35.35.833-.833.136.136a.73.73 0 001.165.009zm-.867-.347l-.116-.116.928-.929.116.116c.192.192.193.321 0 .511l-.425.425c-.183.187-.311.185-.503-.007z"/><path data-name="Rectangle 8" d="M14.74 32.372l2.395-2.395.35.35-2.395 2.395z"/><path data-name="Path 153" d="M16.955 32.408l.47.47.316-.316-.47-.47.673-.673.529.529.316-.316-.879-.879-2.4 2.395.9.9.316-.316-.545-.545z"/><path data-name="Path 154" d="M19.651 32.42a.736.736 0 00-.538-.254.863.863 0 00-.567.3l-.007.007a1.266 1.266 0 00-.366 1.178.87.87 0 01-.2.81l-.046.046c-.177.178-.295.193-.432.055a.238.238 0 01-.09-.2.444.444 0 01.145-.231l.351-.351-.334-.334-.314.314c-.4.4-.421.779-.068 1.131a.737.737 0 00.517.252.85.85 0 00.585-.3l.03-.03a1.268 1.268 0 00.365-1.175.881.881 0 01.207-.817l.02-.02c.2-.2.319-.168.432-.056.14.14.125.257-.052.435l-.288.288.33.33.251-.251c.396-.397.42-.776.069-1.127z"/></g></g></g></svg>