<svg xmlns="http://www.w3.org/2000/svg" viewBox="0 0 484 152"><path fill="#FFF" d="M119.3 38.4h0zM119.7 38.4c.1 0 0 0 0 0zM120.4 38.4h.1-.1zM120.8 38.5zM119 38.4h.3-.3zM118.1 38.6h.2-.2zM118.7 38.5h0zM117.7 38.7c.1 0 .2-.1.3-.1-.1.1-.2.1-.3.1zM121.1 38.6h0zM118.4 38.5h.2-.2zM120 38.4h0zM126.8 42.8c.3.4.5.8.7 1.2-.2-.4-.4-.8-.7-1.2-.9-1.4-2.1-2.5-3.5-3.3 1.5.8 2.6 1.9 3.5 3.3zM123.1 39.3c-.2-.1-.3-.2-.5-.3.1.1.3.2.5.3zM130 51.4c.1.5.2 1 .2 1.5 0-.5-.1-1-.2-1.5zM130.4 54.8c0-.4-.1-.7-.1-1.1 0-.3-.1-.5-.1-.8 0 .3.1.5.1.8.1.3.1.7.1 1.1zM122.1 38.9h0zM129.8 50.6c.1.3.1.6.2.9-.1-.4-.1-.6-.2-.9zM121.8 38.8h0zM121.5 38.6h.1c-.1.1-.1.1-.1 0z"/><path fill="#FFF" d="M133.1 59.9c0-2.3-.1-4.4-.3-6.5-.3-2.3-.7-4.4-1.3-6.4-.7-2.1-1.5-4-2.6-5.6-1.4-2.1-3.1-3.6-5.3-4.6-1.3-.6-2.6-.9-3.9-.9-.9 0-1.8.1-2.7.4-1.5.5-2.8 1.3-4 2.5l-.4.4L73.2 0 0 73.1 78.9 152l73.2-73.1-19-19zm-16.6-20.6c.4-.2.8-.4 1.2-.5.1 0 .2-.1.3-.1H120.7c.1 0 .2 0 .3.1h.1c.1 0 .1 0 .2.1h.1c.1 0 .1 0 .2.1h.1c.1 0 .1.1.2.1h.1c.1 0 .2.1.3.1.2.1.3.2.5.3.1.1.2.1.3.2 1.4.8 2.6 2 3.5 3.3.3.4.5.8.7 1.2l.3.6c.5 1 .9 2.1 1.3 3.2.3.9.5 1.9.7 2.8.1.3.1.6.2.9.1.5.2 1 .2 1.5 0 .3.1.5.1.8 0 .4.1.7.1 1.1.1 1.4.2 2.8.2 4.2 0 1.1 0 2.1-.1 3.2 0 .4 0 .8-.1 1.3-.1.9-.1 1.8-.2 2.6 0 .4-.1.9-.2 1.3-.4 2.8-1 5.6-1.7 8.3-1 3.8-2.4 7.4-4.2 10.9-.7 1.4-1.5 2.8-2.4 4.1-.5.8-1.1 1.6-1.7 2.3-.2.2-.4.4-.6.7-.3.3-.6.6-.9 1-.4.4-.8.8-1.3 1.2-.6.5-1.1.9-1.8 1.3-.2.2-.5.3-.7.5-1.8 1.1-3.7 1.8-5.7 2.1-.2 0-.3 0-.5.1h-1.8-.5-.5-.4-.1c-.1 0-.3 0-.4-.1h-.1c-.1 0-.2 0-.3-.1h-.1c-.1 0-.3-.1-.4-.1-.1 0-.2-.1-.4-.1h-.1c-.1 0-.2-.1-.3-.1h-.1c-.1 0-.3-.1-.4-.1h-.1c-.1 0-.2-.1-.3-.1h-.1c-.1-.1-.3-.1-.4-.2-.2-.1-.3-.2-.5-.3-.2-.1-.3-.2-.5-.3-.1.1-.1.2-.2.3-1.1 1.6-2.3 3-3.8 4.1-.3.3-.7.5-1 .7s-.7.5-1.1.7c-.5.3-1.1.6-1.7.9-.2.1-.4.2-.6.2-.4.2-.8.3-1.2.4-.2.1-.4.1-.6.2-.8.2-1.6.4-2.5.5-.2 0-.4 0-.6.1h-2.1-.7-.1c-.2 0-.4 0-.6-.1h-.1c-.2 0-.4-.1-.6-.1h-.1c-.2 0-.4-.1-.6-.1l-1.2-.3c-.3-.1-.5-.2-.8-.3-.9-.4-1.8-.9-2.6-1.5-.5-.4-.9-.8-1.3-1.2-.9-.9-1.7-2-2.3-3.1 0-.1-.1-.1-.1-.2.1-.6 0-.7 0-.9-.1-.3-.3-.5-.4-.8-.1-.3-.3-.6-.4-1-.2-.4-.3-.8-.4-1.2-.1-.3-.2-.5-.2-.8 0-.1-.1-.3-.1-.4-.1-.3-.1-.6-.2-.8 0-.1-.1-.3-.1-.4 0-.1-.1-.3-.1-.4-.1-.5-.2-1.1-.2-1.6 0-.3-.1-.5-.1-.8-.1-.8-.1-1.6-.1-2.4 0-.5 0-1.1.1-1.6l.3-3c.1-.4.1-.7.2-1.1 0-.2.1-.5.1-.7 0-.2.1-.4.1-.6.1-.4.2-.9.3-1.3.2-.9.5-1.9.8-2.8.3-.9.6-1.7.9-2.5.1-.4.3-.8.5-1.3.8-2.1 1.6-4.2 2.5-6.2 1.1-2.6 2.3-5.2 3.6-7.7.1-.1.1-.2.2-.4.1-.1.1-.3.2-.4-.2 0-.4.1-.6.1-.2 0-.4 0-.5.1-.8.1-1.5.3-2.2.5l-.9.3c-.6.2-1.2.5-1.8.9-1.4.8-2.6 1.9-3.5 3.2 0 .1-.1.2-.1.2 0 .1-.1.2-.1.2l-.3.6c.1.1.2.1.3.2.7.4 1.3.8 1.8 1.4.1.2.3.3.4.5.2.3.5.7.6 1.1.1.3.2.6.3 1 .1.4.1.8.1 1.3V71c0 .2-.1.4-.1.6-.1.3-.2.6-.4 1-.1.2-.2.4-.3.5-.1.1-.1.2-.2.2-.1.2-.3.4-.5.6-.3.3-.7.6-1.2.9-.1.1-.2.1-.3.1h-.1c-.1 0-.1.1-.2.1h-.1c-.1 0-.1 0-.2.1H71.1 70.8 70.5 70.2 69.9h-.1H69.5 69.2 68.9 68.6 68.3h-.1c-.1 0-.1 0-.2-.1h-.1c-.1 0-.2-.1-.3-.1-.1 0-.2-.1-.2-.1-.3-.2-.6-.3-.9-.6-.1-.1-.2-.1-.2-.2l-.3-.3-.3-.3-.5-.5c-.3-.4-.7-.8-1-1.2-.2-.2-.3-.5-.5-.8-.4-.8-.7-1.5-.9-2.4-.1-.6-.2-1.3-.2-1.9-.1-1.6.2-3.1.7-4.5.2-.6.4-1.1.6-1.6.3-.7.6-1.4 1-2.1.5-.8 1-1.6 1.6-2.4.2-.3.5-.6.8-.9.3-.3.5-.6.8-.8l.4-.4c.3-.2.6-.5.8-.7.3-.2.6-.4.9-.7.2-.1.3-.2.5-.3l.9-.6c.9-.5 1.9-1 2.8-1.4.1 0 .2-.1.3-.1.3-.1.6-.2.9-.4.3-.1.7-.3 1-.4 1-.4 2.1-.7 3.2-1 1.7-.4 3.5-.8 5.2-1 1-.1 1.9-.3 2.9-.4.5 0 1-.1 1.5-.1s1-.1 1.5-.1H95.8v.1c0 .1-.1.1-.1.2L93 52.1c-.3.6-.6 1.1-.9 1.7-.8 1.6-1.6 3.1-2.3 4.7-.2.5-.5 1-.7 1.5-1.1 2.5-2.2 5.1-3.2 7.7-.4 1-.8 2.1-1.1 3.1-.3.8-.5 1.5-.8 2.3-.5 1.5-1 3-1.4 4.6-.2.8-.4 1.5-.6 2.3-.3 1.1-.5 2.2-.7 3.3-.2 1.2-.4 2.4-.6 3.7-.1.9-.2 1.7-.2 2.6v1.3c0 .4.1.9.2 1.3 0 .3.1.5.2.8.1.4.2.8.4 1.1.1.2.2.5.3.7.1.1.1.2.2.3.1.2.2.4.4.5.1.2.3.3.4.5.1.1.3.2.4.4.1.1.2.2.4.3.7.5 1.5.8 2.5.9H88c.1 0 .2 0 .3-.1h.1c.1 0 .2 0 .3-.1.1 0 .2-.1.3-.1h.1c.1 0 .2-.1.3-.1.8-.3 1.6-.6 2.3-1.1.1-.1.2-.1.4-.2.2-.2.5-.3.7-.5.3-.3.7-.5 1-.8l1.2-1.2s.1-.1.1-.2c0 0 0-.1-.1-.1-.9-1.1-1.7-2.3-2.3-3.6-.3-.5-.5-1.1-.7-1.7-.1-.4-.3-.8-.4-1.1-.1-.2-.1-.4-.2-.6-.2-.6-.3-1.2-.5-1.8 0-.2-.1-.4-.1-.6 0-.2-.1-.4-.1-.6-.2-1-.3-2-.4-3.1v-.6c0-.8-.1-1.7-.1-2.5 0-1.4.1-2.8.3-4.2v-.1c.1-.5.1-1 .2-1.4v-.1c.2-1.5.4-3 .8-4.4 0-.2.1-.4.1-.6.1-.5.3-1 .4-1.5.6-1.9 1.3-3.8 2.2-5.6.1-.2.2-.4.3-.5.3-.5.6-1.1.9-1.6.2-.3.4-.7.6-1 .2-.4.5-.7.7-1.1.2-.2.3-.5.5-.7.3-.3.5-.7.8-1l1.5-1.5c.3-.3.6-.6 1-.8.2-.1.3-.2.5-.4.3-.2.6-.4 1-.6.2-.1.3-.2.5-.3.7-.4 1.4-.7 2.2-.9.1 0 .2-.1.3-.1h.1c.1 0 .2 0 .3-.1h2.9c.1 0 .2 0 .3.1h.1c.1 0 .3.1.4.1h.1c.1 0 .2.1.3.1h.1c.1 0 .2.1.3.1 0 0 .1 0 .1.1.1.1.3.1.4.2.3.1.5.3.7.4.2.1.5.3.7.4.1.1.2.2.3.2.7.6 1.4 1.3 1.9 2 .1.1.2.2.2.3.1.2.2.3.3.5l.3.6c.2.4.4.8.5 1.1.5 1.2.8 2.4 1 3.6.2 1.5.3 2.9.3 4.4v1.5c-.1 1.4-.2 2.8-.4 4.2 0 .2-.1.5-.1.7-.1.6-.2 1.1-.3 1.7-.2 1-.5 2.1-.7 3.1-.6 2.1-1.2 4.2-2.1 6.3-.4 1-.8 2-1.3 3-1.1 2.3-2.4 4.5-3.8 6.7l-.9 1.2s0 .1-.1.1v.1H107.8c.1 0 .3-.1.4-.1 1-.3 1.9-.8 2.8-1.4.6-.4 1.1-.9 1.7-1.3.9-.8 1.7-1.7 2.4-2.6.2-.3.5-.6.7-.9.6-.8 1.1-1.7 1.6-2.6.1-.2.2-.4.3-.5.2-.3.3-.6.5-1 .2-.3.3-.7.5-1 .3-.6.5-1.2.8-1.8.9-2.4 1.6-4.8 2.1-7.3.1-.3.1-.6.2-.9.5-2.9.7-5.7.7-8.6v-.8c0-.5-.1-1.1-.1-1.6 0-.4-.1-.8-.1-1.2 0-.1 0-.3-.1-.4 0-.3-.1-.5-.1-.8 0-.1-.1-.3-.1-.4l-.3-1.2c-.5-1.7-1.2-3.4-2.2-4.9-1.1-1.6-2.5-2.8-4.2-3.7-.3-.2-.6-.3-.9-.4-.3-.1-.7-.2-1-.3-.2 0-.3-.1-.5-.1-.1 0-.2 0-.3-.1v-.2-.3-.3c0-.1 0-.2.1-.3v-.1l.3-.9c.1-.2.1-.3.2-.4.1-.2.2-.4.4-.6 0-.1.1-.1.1-.2.3-.4.6-.8 1-1.1.6-.9 1.1-1.4 1.8-1.7z"/><path fill="#FFF" d="M107.7 65.3v-.4-.4-1.7c0-.3-.1-.6-.1-.9v-.2c-.1-.3-.1-.7-.3-1-.1-.2-.1-.3-.2-.5 0-.1-.1-.1-.1-.2-.2-.3-.5-.6-.9-.7-.1 0-.2-.1-.3-.1h-.2H104.7c-.1 0-.1 0-.2.1-.1 0-.2.1-.2.1-.1 0-.1.1-.2.1s-.1.1-.2.1-.1.1-.2.1c-.5.3-.9.7-1.2 1.1-.1.1-.1.2-.2.3-.2.3-.4.5-.5.8-.2.3-.3.6-.5.9l-.3.6c-.3.7-.6 1.5-.8 2.2-.3.9-.5 1.9-.7 2.9-.1.4-.1.8-.2 1.2-.1.4-.1.7-.1 1.1 0 .2 0 .4-.1.6v3.5c0 .7 0 1.5.1 2.2.1 1 .2 1.9.3 2.9 0 .2.1.5.1.7 0 .3.1.6.2.9.1.7.3 1.4.5 2.1.1.2.1.5.2.7.2.7.4 1.5.7 2.2 0 .1 0 .1.1.2 0 .1.1.2.1.4 0 .1.1.1.1.2l.1-.1.1-.1c.1-.2.2-.3.2-.5.2-.5.5-1 .7-1.5.8-1.7 1.5-3.4 2.1-5.1.4-1.1.8-2.2 1.1-3.4.1-.4.3-.8.4-1.2.4-1.5.8-2.9 1.2-4.4.1-.4.2-.9.3-1.3-.4-1.5-.1-3 0-4.5z"/><path fill="#FFF" d="M200.5 16.4v61.9h-12L179.4 46c-1.1-4.1-2.4-9.9-3.5-14.2.3 4.2.6 10.3.6 14.3v32.2H168V16.4h13.4l7.8 27.2c1.1 4.2 2.4 9.9 3.4 14.2-.2-4.3-.5-10.3-.5-14.3V16.4h8.4zM230.2 69.2h-11.9l-1.5 9.1h-9.3l10.7-61.9h13L242 78.3h-10.2l-1.6-9.1zm-10.4-8.5h9L227 49.9c-.9-5.7-1.9-12.8-2.7-21.5-.8 8.7-1.9 15.8-2.7 21.5l-1.8 10.8zM274.5 25.3h-9.4v53.1h-10.2V25.3h-9.4v-8.8h29v8.8zM281 16.4h10.2v61.9H281V16.4zM300.3 31.8c0-11.3 5.5-16.4 15.4-16.4s15.5 5 15.5 16.4V63c0 11.3-5.6 16.4-15.5 16.4s-15.4-5-15.4-16.4V31.8zm15.4 38.7c3.7 0 5.3-2 5.3-6.1v-34c0-4.1-1.6-6.1-5.3-6.1-3.7 0-5.2 2-5.2 6.1v34c0 4 1.5 6.1 5.2 6.1zM372.9 16.4v61.9h-12l-9-32.3c-1.1-4.1-2.4-9.9-3.5-14.2.3 4.2.6 10.3.6 14.3v32.2h-8.6V16.4h13.4l7.8 27.2c1.1 4.2 2.4 9.9 3.4 14.2-.2-4.3-.5-10.3-.5-14.3V16.4h8.4zM402.7 69.2h-11.9l-1.5 9.1H380l10.7-61.9h13l10.7 61.9h-10.2l-1.5-9.1zm-10.5-8.5h9l-1.8-10.9c-.9-5.7-1.9-12.8-2.7-21.5-.8 8.7-1.9 15.8-2.7 21.5l-1.8 10.9zM421.9 16.4h10.2v53.1h13.1v8.8h-23.3V16.4zM459.7 64.4c0 4.1 1.3 6.1 5 6.1s5-2 5-6.1V63c0-13.7-19.5-11.2-19.5-32.2v-.2c0-10.2 5-15.2 14.9-15.2 9.7 0 14.8 5 14.8 16.4v4.7h-9.5v-6.1c0-4.1-1.3-6.1-5-6.1s-5 2-5 6.1v.5c0 13.8 19.5 11.3 19.5 32.2v1.1c0 10.1-5 15.1-14.9 15.1-9.7 0-14.8-5.1-14.8-16.4v-6.3h9.5v7.8z"/><path fill="#FFF" d="M176.4 95.8h-8.5v42.1h6.2v-14.6h2.4c6.9 0 10.3-3.4 10.3-10.1V106c-.1-6.8-3.5-10.2-10.4-10.2zm-2.4 5.6h2c3.4 0 4.5 1.1 4.5 4.5v7.5c0 3.3-1.1 4.4-4.5 4.4h-2v-16.4zM205.6 113.2h-7.1V95.8h-6.2v42.1h6.2v-19.1h7.1v19.1h6.2V95.8h-6.2zM219.2 95.8h6.2v42.1h-6.2zM239 95.8h-6.2v42.1h15.1v-5.6H239zM264.5 95.8h-7.2l-7.2 42.1h5.7l1.1-6.6h7.5l1.2 6.6h6.2l-7.1-41.6-.2-.5zm-2.7 20.3l1.7 9.8h-5.7l1.7-9.8c.4-2.6.8-5.3 1.2-8.1.3 2.8.7 5.5 1.1 8.1zM291.4 117.7c0 .8 0 1.8.1 2.9-.3-1.1-.5-2.1-.8-3l-6.3-21.8h-7.7v42.1h5.5v-25.3c0-.8 0-1.8-.1-2.8.3 1 .5 2 .7 2.9l7.3 25.2h6.6V95.8h-5.4v21.9zM301.4 101.4h6.1v36.5h6.2v-36.5h6.2v-5.6h-18.5zM337.8 113.2h-7.1V95.8h-6.2v42.1h6.2v-19.1h7.1v19.1h6.2V95.8h-6.2zM370.6 126.7V125c0-4-1.2-6.6-3.6-8 2.4-1.4 3.6-4 3.6-7.8v-3.8c0-8.5-5-9.6-10-9.6h-9.1v42.1h6.2v-18.1h1.5c4.2 0 5.3 1.2 5.3 5.9v3.4c0 5 .6 7.1.9 8.4l.1.5h6.7l-.4-.9c-.7-1.9-1.2-3.3-1.2-10.4zm-12.9-25.3h2.5c3.4 0 4.3.9 4.3 4.2v4.4c0 3.4-.9 4.2-4.3 4.2h-2.5v-12.8zM386.3 95.2c-6.4 0-9.7 3.5-9.7 10.5V128c0 7 3.3 10.5 9.7 10.5S396 135 396 128v-22.3c0-7-3.2-10.5-9.7-10.5zm-3.5 9.9c0-3 1-4.3 3.5-4.3s3.5 1.3 3.5 4.3v23.6c0 3-1.1 4.3-3.5 4.3-2.5 0-3.5-1.2-3.5-4.3v-23.6zM411.3 95.8h-8.5v42.1h6.2v-14.6h2.4c6.9 0 10.3-3.4 10.3-10.1V106c-.1-6.8-3.5-10.2-10.4-10.2zm-2.4 5.6h2c3.4 0 4.5 1.1 4.5 4.5v7.5c0 3.3-1.1 4.4-4.5 4.4h-2v-16.4zM427.1 95.8h6.2v42.1h-6.2zM446.9 118.8h8.3v-5.6h-8.3v-11.8h9.3v-5.6h-15.5v42.1h15.8v-5.6h-9.6zM480 110.1v-4.4c0-7-3.1-10.5-9.3-10.5-6.2 0-9.3 3.4-9.3 10.1v.1c0 7.6 3.8 10.8 7.1 13.6 2.9 2.4 5.3 4.4 5.3 8.9v.8c0 3.1-.9 4.3-3.3 4.3-2 0-3.3-.7-3.3-4.3v-6.2h-5.9v5.5c0 7 3.1 10.5 9.3 10.5 6.2 0 9.3-3.4 9.3-10.1v-.5c0-7.6-3.8-10.7-7.1-13.5-2.9-2.4-5.4-4.5-5.4-9v-.4c0-3.6 1.3-4.3 3.3-4.3 2.5 0 3.4 1.2 3.4 4.3v5.1h5.9z"/></svg>