<svg xmlns="http://www.w3.org/2000/svg" viewBox="0 0 92 91"><g fill="#FFF"><path d="M72.8 22.4h0zM73.1 22.4s-.1 0 0 0zM73.4 22.4c.1 0 .1 0 0 0 .1 0 .1 0 0 0zM73.7 22.4zM72.6 22.4h.2-.2zM72.1 22.5h0zM72.5 22.4h0zM71.9 22.5h.2-.2zM73.9 22.5zM72.3 22.4h0zM73.2 22.4c.1 0 .1 0 0 0 .1 0 .1 0 0 0zM77.2 24.9c.1.2.3.4.4.7-.1-.2-.2-.4-.4-.7-.5-.8-1.2-1.5-2-1.9.8.5 1.5 1.1 2 1.9zM75 22.9c-.1-.1-.2-.1-.3-.1.1 0 .2 0 .3.1zM79.1 29.9c.1.3.1.6.1.9 0-.3-.1-.6-.1-.9zM79.3 31.9c0-.2 0-.4-.1-.6 0-.1 0-.3-.1-.4 0 .1 0 .3.1.4.1.2.1.4.1.6zM74.5 22.6s0 .1 0 0c0 .1 0 0 0 0zM79 29.4c0 .2.1.3.1.5-.1-.1-.1-.3-.1-.5zM74.3 22.6zM74.1 22.5z"/><path d="M80.9 34.9c0-1.3-.1-2.6-.2-3.8-.2-1.4-.4-2.6-.8-3.7-.4-1.2-.9-2.3-1.5-3.2-.8-1.2-1.8-2.1-3.1-2.7-.7-.3-1.5-.5-2.3-.5-.5 0-1.1.1-1.6.3-.9.3-1.7.8-2.3 1.4-.1.1-.2.2-.2.3l-23-23L8 37.8l46.1 45.9L92 45.9l-11.1-11zm-9.7-12c.2-.1.5-.2.7-.3H74.6c.1 0 .1.1.2.1s.2.1.3.1c.1 0 .1.1.2.1.8.5 1.5 1.1 2 1.9.1.2.3.4.4.7.1.1.1.2.2.4.3.6.5 1.2.7 1.8.2.5.3 1.1.4 1.6 0 .2.1.3.1.5.1.3.1.6.1.9 0 .1 0 .3.1.4 0 .2 0 .4.1.6.1.8.1 1.6.1 2.5V36.8c0 .5-.1 1-.1 1.5 0 .3-.1.5-.1.8-.2 1.6-.6 3.3-1 4.9-.6 2.2-1.4 4.3-2.5 6.4-.4.8-.9 1.6-1.4 2.4-.3.5-.7.9-1 1.3-.1.1-.2.3-.3.4-.2.2-.3.4-.5.6-.2.2-.5.5-.8.7-.3.3-.7.5-1 .8-.1.1-.3.2-.4.3-1 .6-2.1 1.1-3.3 1.2h-.3H66.5 66.2h-.5-.5-.5H64.4h-.1c-.1 0-.2 0-.2-.1-.1 0-.1 0-.2-.1h-.1c-.1 0-.1 0-.2-.1-.1 0-.2-.1-.2-.1h-.1c-.1 0-.1 0-.2-.1H63c-.1 0-.2-.1-.2-.1-.1 0-.2-.1-.3-.1-.1-.1-.2-.1-.3-.2 0 .1-.1.1-.1.2-.6.9-1.4 1.7-2.2 2.4-.2.1-.4.3-.6.4-.2.1-.4.3-.6.4-.3.2-.6.4-1 .5-.1.1-.2.1-.3.1-.2.1-.5.2-.7.2-.1 0-.2.1-.4.1-.5.1-1 .2-1.4.3h-.4-.4-.9-.5-.4-.5-.1c-.1 0-.2 0-.4-.1-.2 0-.5-.1-.7-.2-.2 0-.3-.1-.5-.2-.5-.2-1-.5-1.5-.9-.3-.2-.5-.4-.8-.7-.5-.5-1-1.2-1.3-1.8 0 0 0-.1-.1-.1 0-.1-.1-.2-.1-.2-.1-.2-.2-.3-.2-.5-.1-.2-.2-.4-.2-.6-.1-.2-.2-.5-.2-.7 0-.2-.1-.3-.1-.5 0-.1 0-.2-.1-.2 0-.2-.1-.3-.1-.5v-.2-.2c-.1-.3-.1-.6-.1-.9v-.5-1.4-.9c0-.6.1-1.2.2-1.8 0-.2.1-.4.1-.6 0-.1 0-.3.1-.4 0-.1 0-.2.1-.3.1-.3.1-.5.2-.8.1-.5.3-1.1.5-1.6s.3-1 .5-1.5c.1-.2.2-.5.3-.7.5-1.2.9-2.4 1.5-3.6.6-1.5 1.3-3 2.1-4.5 0-.1.1-.1.1-.2s.1-.1.1-.2h-.6c-.4.1-.9.2-1.3.3-.2.1-.4.1-.5.2-.4.1-.7.3-1 .5-.8.5-1.5 1.1-2.1 1.9l-.1.1-.1.1c-.1.1-.1.2-.2.3.1 0 .1.1.2.1.4.2.8.5 1.1.8.1.1.2.2.2.3.1.2.3.4.4.6.1.2.1.4.2.6.1.2.1.5.1.7V41.1c0 .1 0 .2-.1.4s-.1.4-.2.6c-.1.1-.1.2-.2.3l-.1.1-.3.3c-.2.2-.4.4-.7.5-.1 0-.1.1-.2.1h-.1-.1-.1-.1-.1-.1-.1-.1-.1-.1-.1-.1-.1-.1-.1-.1-.1-.1-.1-.1-.1-.1-.1-.1-.1-.1-.1-.1c-.1 0-.1 0-.2-.1 0 0-.1 0-.1-.1l-.6-.3-.1-.1c-.1 0-.1-.1-.2-.2l-.2-.2-.3-.3c-.2-.2-.4-.5-.6-.7-.1-.1-.2-.3-.3-.4-.2-.4-.4-.9-.5-1.4-.1-.4-.1-.7-.1-1.1 0-.9.1-1.8.4-2.6.1-.3.2-.6.4-1l.6-1.2c.3-.5.6-.9 1-1.4.1-.2.3-.3.4-.5l.5-.5c.1-.1.2-.1.2-.2.2-.1.3-.3.5-.4.2-.1.3-.3.5-.4.1-.1.2-.1.3-.2.2-.1.4-.2.5-.3.5-.3 1.1-.6 1.6-.8.1 0 .1-.1.2-.1.2-.1.3-.1.5-.2s.4-.2.6-.2c.6-.2 1.2-.4 1.9-.6 1-.3 2-.5 3-.6.6-.1 1.1-.2 1.7-.2.3 0 .6-.1.9-.1.3 0 .6 0 .9-.1H59.2s0 .1-.1.1c-.6 1-1.1 2-1.6 3-.2.3-.3.7-.5 1-.5.9-.9 1.8-1.3 2.8-.1.3-.3.6-.4.9-.7 1.5-1.3 3-1.9 4.5-.2.6-.5 1.2-.7 1.8-.2.4-.3.9-.4 1.3-.3.9-.6 1.8-.8 2.7-.1.4-.2.9-.3 1.3-.2.6-.3 1.3-.4 1.9-.1.7-.3 1.4-.3 2.1-.1.5-.1 1-.1 1.5v.8c0 .2.1.5.1.7 0 .2.1.3.1.4.1.2.1.4.2.6.1.1.1.3.2.4 0 .1.1.1.1.2.1.1.1.2.2.3.1.1.2.2.2.3.1.1.2.1.2.2l.2.2c.4.3.9.4 1.4.5H54.9c.1 0 .1 0 .2-.1.1 0 .1 0 .2-.1.5-.2.9-.4 1.4-.6.1 0 .1-.1.2-.1.1-.1.3-.2.4-.3.2-.1.4-.3.6-.5l.7-.7s0-.1.1-.1v-.1c-.5-.7-1-1.4-1.3-2.1-.2-.3-.3-.6-.4-1-.1-.2-.2-.4-.2-.7 0-.1-.1-.2-.1-.3-.1-.3-.2-.7-.3-1 0-.1-.1-.2-.1-.4 0-.1 0-.2-.1-.4-.1-.6-.2-1.2-.2-1.8v-.4-1.5c0-.8.1-1.6.2-2.4 0-.3.1-.6.1-.8v-.1c.1-.9.3-1.7.5-2.6 0-.1.1-.2.1-.4.1-.3.2-.6.2-.9.3-1.1.7-2.2 1.3-3.3.1-.1.1-.2.2-.3.2-.3.3-.6.5-.9.1-.2.2-.4.4-.6.1-.2.3-.4.4-.6.1-.1.2-.3.3-.4.2-.2.3-.4.5-.6l.9-.9c.2-.2.4-.3.6-.5.1-.1.2-.1.3-.2.2-.1.4-.3.6-.4.1-.1.2-.1.3-.2.4-.2.8-.4 1.3-.5H67.2c.1 0 .2 0 .2.1.1 0 .1 0 .2.1h.1c.1 0 .1 0 .2.1h.1c.1 0 .2.1.2.1.1.1.3.1.4.2.1.1.3.2.4.3.1 0 .1.1.2.1.4.3.8.7 1.1 1.2 0 .1.1.1.1.2.1.1.1.2.2.3.1.1.1.2.2.3.1.2.2.4.3.7.3.7.5 1.4.6 2.1.1.8.2 1.7.2 2.5v.8c0 .8-.1 1.6-.3 2.5 0 .1 0 .3-.1.4-.1.3-.1.7-.2 1-.1.6-.3 1.2-.4 1.8-.3 1.3-.7 2.5-1.2 3.7-.2.6-.5 1.2-.8 1.8-.6 1.3-1.4 2.6-2.2 3.9-.2.2-.3.5-.5.7v.1h.5c.1 0 .2 0 .3-.1.6-.2 1.1-.5 1.6-.8.3-.2.7-.5 1-.8.5-.5 1-1 1.4-1.5.1-.2.3-.3.4-.5.3-.5.7-1 1-1.5.1-.1.1-.2.2-.3l.3-.6.3-.6c.2-.3.3-.7.5-1.1.5-1.4.9-2.8 1.2-4.2 0-.2.1-.3.1-.5.3-1.7.4-3.3.4-5v-.5c0-.3 0-.6-.1-.9 0-.2-.1-.5-.1-.7v-.2c0-.2-.1-.3-.1-.5v-.2c0-.2-.1-.5-.2-.7-.3-1-.7-2-1.3-2.8-.7-.9-1.5-1.6-2.5-2.1-.2-.1-.4-.2-.5-.2-.2-.1-.4-.1-.6-.2-.1 0-.2-.1-.3-.1h-.2v-.1-.2-.2-.2-.1c.1-.2.1-.4.2-.6 0-.1.1-.2.1-.3.1-.1.1-.3.2-.4l.1-.1c.2-.2.4-.5.6-.7-.2.2.1 0 .5-.2z"/><path d="M66.1 38v-.2-.3-1c0-.2 0-.3-.1-.5v-.1c0-.2-.1-.4-.2-.6 0-.1-.1-.2-.1-.3 0 0 0-.1-.1-.1-.1-.2-.3-.3-.5-.4h-.2-.1-.1-.1-.1-.1-.1-.1s-.1 0-.1.1c0 0-.1 0-.1.1 0 0-.1 0-.1.1-.3.2-.5.4-.7.7l-.1.1c-.1.1-.2.3-.3.5-.1.2-.2.3-.3.5-.1.1-.1.2-.2.3-.2.4-.3.9-.5 1.3-.2.6-.3 1.1-.4 1.7 0 .2-.1.4-.1.7 0 .2-.1.4-.1.6V45c0 .6.1 1.1.2 1.7 0 .1 0 .3.1.4 0 .2.1.4.1.5l.3 1.2c0 .1.1.3.1.4.1.4.3.9.4 1.3v.1c0 .1.1.1.1.2v-.1c0-.1.1-.2.1-.3.1-.3.3-.6.4-.9.5-1 .9-2 1.2-3 .2-.6.5-1.3.7-2 .1-.2.2-.5.2-.7.3-.9.5-1.7.7-2.6.1-.2.1-.5.2-.7-.1-.7 0-1.6.1-2.5z"/></g><g fill="#FFF"><path d="M6.5 44.8l1.1-1.1c.6-.6.8-1.1.7-1.7-.1-.4-.3-.9-.8-1.3l-1.3-1.3L0 45.7l.9.9 2.2-2.2.4.4c.4.4.9.7 1.3.8.5 0 1.1-.3 1.7-.8zm-2.3-.9l-.3-.3 2.4-2.4.3.3c.3.2.4.4.4.6 0 .2-.1.4-.4.7l-1.1 1.1c-.5.5-.8.5-1.3 0zM11.8 45l-2.6 2.6-1-1.1 2.5-2.5-.9-.9-6.2 6.2.9.9 2.9-2.9 1 1.1-2.8 2.8.9.9 6.2-6.2zM13.8 47l-6.2 6.2.9.9 6.2-6.2zM11.3 55.3l5.4-5.4-.9-.9-6.2 6.2 2.2 2.2.9-.8zM19.4 52.6l-7.3 5.1.8.8 1.1-.8 1.1 1.1-.7 1.2.9.9 5.2-7.3-1.1-1zm-1.3 2.3c-.4.5-.7.9-1 1.4L15.9 58l-.8-.8 1.7-1.2c.4-.4.9-.7 1.3-1.1zM24.5 57.7l-3.2 3.2-.4.4c.1-.2.2-.4.3-.5l2.3-4.1-1.1-1.1-6.2 6.2.8.8 3.7-3.7.4-.4c-.1.2-.2.4-.3.5l-2.7 4.8 1 1 6.2-6.2-.8-.9zM27.9 62.7l.8-.9-2.8-2.7-.8.8.9.9-5.4 5.4.9.9 5.5-5.3zM31.3 64.5L28.8 67l-1.1-1 2.6-2.6-.9-.9-6.3 6.2 1 .9 2.8-2.8 1 1.1-2.8 2.8.9.9 6.2-6.2zM31.9 73.6c.6-.6.8-1.1.6-1.7.6.2 1.1 0 1.7-.6l.6-.6c1.3-1.2.7-2.2-.1-2.9l-1.3-1.3-6.2 6.2.9.9 2.7-2.7.2.2c.3.3.5.6.5.8 0 .2-.2.5-.5.8l-.5.5c-.7.7-1 1.1-1.1 1.4v.1l1 1 .1-.2c.1-.4.3-.7 1.3-1.7l.1-.2zm0-3.1l-.4-.4 1.9-1.9.4.4c.3.3.4.5.4.6 0 .2-.1.4-.4.6l-.6.6c-.5.6-.8.6-1.3.1zM38.5 74.5c.5-.5.8-1 .8-1.6 0-.5-.2-1-.7-1.4-1-.9-2-.9-3 .1l-3.3 3.3c-.5.5-.8 1-.8 1.6 0 .5.2 1 .7 1.4.4.4.9.7 1.4.7.5 0 1-.3 1.6-.8l3.3-3.3zm-5.4 1.4l3.5-3.5c.2-.2.5-.4.7-.4.2 0 .3.1.5.3.2.2.3.4.2.5 0 .2-.1.4-.4.6L34.2 77c-.4.4-.8.5-1.2.1-.4-.4-.3-.7.1-1.2zM41.2 79.4l1.1-1.1c1-1 1-2 0-3L40.9 74l-6.2 6.2.9.9 2.2-2.2.4.4c1 1.1 2 1.1 3 .1zm-2.3-.9l-.3-.3 2.4-2.4.3.3c.3.3.4.5.4.7 0 .2-.1.4-.4.7l-1.1 1.1c-.5.4-.8.4-1.3-.1zM44.5 77.6l-6.2 6.2.9.9 6.2-6.2zM44.1 83.9l1.2 1.2.8-.8-1.2-1.2 1.7-1.7 1.4 1.3.8-.8-2.3-2.3-6.2 6.2 2.3 2.4.9-.9-1.4-1.4zM51.1 84c-.5-.5-.9-.7-1.4-.7-.5 0-1 .3-1.5.8-1.1 1.1-1 2.1-1 3 .1.8.1 1.4-.5 2.1l-.1.1c-.5.5-.8.5-1.1.1-.3-.3-.4-.6.1-1.1l.9-.9-.9-.9-.8.8c-.5.5-.8 1-.8 1.5s.2 1 .6 1.4c.4.4.9.7 1.3.7.5 0 1-.3 1.5-.8l.1-.1c1.1-1.1 1-2.1.9-3-.1-.8-.1-1.5.5-2.1l.1-.1c.5-.5.8-.4 1.1-.1.2.2.3.4.2.5 0 .2-.1.4-.4.6l-.7.7.9.9.7-.7c1.1-.9 1.2-1.8.3-2.7z"/></g></svg>