<svg xmlns="http://www.w3.org/2000/svg" width="100.644" height="42.589"><g data-name="Group 36" fill="#fff"><g data-name="Group 32"><g data-name="Group 30"><path data-name="Path 155" d="M33.015 11.374h.053z"/><path data-name="Path 156" d="M33.116 11.37z"/><path data-name="Path 157" d="M33.286 11.38h.027z"/><path data-name="Path 158" d="M33.401 11.396h.011z"/><path data-name="Path 159" d="M32.919 11.382l.074-.007z"/><path data-name="Path 160" d="M32.69 11.427l.052-.013z"/><path data-name="Path 161" d="M32.845 11.394l.065-.01z"/><path data-name="Path 162" d="M32.591 11.455l.075-.022z"/><path data-name="Path 163" d="M33.489 11.414l.029.007z"/><path data-name="Path 164" d="M32.769 11.407l.051-.01z"/><path data-name="Path 165" d="M33.192 11.373h.033z"/><path data-name="Path 166" d="M34.994 12.541q.1.152.187.31-.086-.158-.187-.31a2.774 2.774 0 00-.918-.885 2.774 2.774 0 01.918.885z"/><path data-name="Path 167" d="M34.003 11.615a1.839 1.839 0 010 0z"/><path data-name="Path 168" d="M35.833 14.824q.036.2.064.4-.028-.202-.064-.4z"/><path data-name="Path 169" d="M35.953 15.702q-.013-.14-.03-.28l-.026-.2.026.2.03.28z"/><path data-name="Path 170" d="M33.757 11.495l.028.011z"/><path data-name="Path 171" d="M35.787 14.591l.046.232a7.326 7.326 0 00-.046-.232z"/><path data-name="Path 172" d="M33.665 11.464l.032.011z"/><path data-name="Path 173" d="M33.578 11.436l.033.01z"/><path data-name="Path 174" d="M36.66 17.05a13.22 13.22 0 00-.091-1.711 9.413 9.413 0 00-.352-1.692 5.724 5.724 0 00-.68-1.471 3.385 3.385 0 00-1.39-1.224 2.412 2.412 0 00-1.032-.239 2.357 2.357 0 00-.725.116 2.632 2.632 0 00-1.06.659 3.135 3.135 0 00-.113.119l-10.41-10.41L3.614 18.398l20.884 20.885 17.195-17.195zm-4.4-5.458a1.877 1.877 0 01.328-.141l.075-.022.024-.006.052-.013.026-.006.051-.01h.024l.065-.01h.009l.074-.007h.231l.062.005h.027l.088.013h.011l.076.016.029.007.059.016.033.01.056.018.032.011.059.023.028.011.086.038c.045.021.089.044.133.067l.073.041a2.774 2.774 0 01.918.885q.1.152.187.31.043.079.083.159a5.661 5.661 0 01.332.836c.077.246.14.494.192.745l.046.232q.036.2.064.4l.026.2q.017.14.03.28c.036.374.053.748.056 1.122 0 .281 0 .562-.017.843q-.008.168-.019.335-.024.35-.064.7-.02.172-.043.343a16.9 16.9 0 01-.453 2.208 14.906 14.906 0 01-1.119 2.89 10.269 10.269 0 01-.648 1.094c-.144.21-.3.413-.461.609q-.076.09-.154.177-.117.131-.24.254-.165.165-.341.316a5.163 5.163 0 01-.463.353q-.1.065-.2.127a4 4 0 01-1.51.556l-.132.017h-.044l-.089.008h-.494l-.093-.007h-.032l-.091-.01h-.019l-.107-.015h-.028l-.084-.015-.03-.006-.107-.023h-.011l-.1-.025-.031-.009-.085-.026-.022-.007-.1-.036-.025-.009-.083-.032-.03-.012-.1-.045a2.462 2.462 0 01-.136-.068l-.138-.073a1.464 1.464 0 00-.049.069 4.864 4.864 0 01-1 1.086q-.128.1-.263.194t-.278.176a4.738 4.738 0 01-.446.229q-.076.034-.154.065-.155.062-.313.112-.079.025-.159.047a4.515 4.515 0 01-.653.126 4.89 4.89 0 01-.17.017h-.05l-.127.007H23.977l-.164-.01h-.029l-.15-.014h-.026l-.163-.022-.036-.006-.167-.028a2.622 2.622 0 01-.306-.077q-.1-.033-.206-.075a2.883 2.883 0 01-.684-.4 3.433 3.433 0 01-.35-.316 3.868 3.868 0 01-.606-.831l-.025-.047-.055-.106q-.053-.105-.1-.212-.056-.127-.105-.257-.06-.159-.109-.322-.033-.109-.061-.219l-.027-.11q-.026-.111-.049-.223l-.021-.112-.02-.113q-.035-.212-.056-.424-.011-.106-.018-.212-.023-.319-.018-.638 0-.213.017-.427.026-.4.083-.8.021-.147.046-.293l.032-.18.031-.157q.035-.172.077-.343.09-.373.207-.742.108-.338.226-.672.059-.167.12-.333c.2-.554.427-1.1.658-1.644.294-.69.6-1.372.955-2.034.016-.03.03-.06.045-.093l.049-.106-.154.02c-.049.006-.1.013-.142.021a4.346 4.346 0 00-.591.144q-.124.04-.244.088a3.636 3.636 0 00-.47.226 2.687 2.687 0 00-.937.856l-.038.061-.035.063c-.026.05-.049.1-.077.158l.092.047a1.668 1.668 0 01.482.36 1.426 1.426 0 01.1.129 1.449 1.449 0 01.163.295 1.637 1.637 0 01.081.254 1.4 1.4 0 01.037.336v.059c0 .02-.005.066-.009.1a1.332 1.332 0 01-.126.418 1.326 1.326 0 01-.08.14 2.4 2.4 0 01-.044.063 1.326 1.326 0 01-.126.147 1.347 1.347 0 01-.312.232l-.076.038-.025.011-.051.022-.031.011-.046.017-.033.01-.044.013-.034.008-.044.01-.035.006-.043.007h-.374l-.041-.007-.032-.006-.042-.009-.031-.007-.044-.012-.029-.008-.049-.016-.025-.008-.074-.028-.064-.027a1.4 1.4 0 01-.25-.149l-.066-.052a1.474 1.474 0 01-.08-.071l-.085-.082a5.114 5.114 0 01-.124-.13 2.706 2.706 0 01-.253-.319 2.158 2.158 0 01-.121-.2 2.583 2.583 0 01-.228-.625 2.833 2.833 0 01-.066-.515 3.427 3.427 0 01.173-1.2q.073-.223.163-.436a5.068 5.068 0 01.273-.548 4.911 4.911 0 01.431-.629q.1-.119.2-.234t.217-.223q.053-.051.107-.1.109-.1.224-.189t.235-.174l.121-.082q.122-.081.249-.155a7.062 7.062 0 01.745-.38l.081-.035q.115-.049.231-.094.136-.053.274-.1c.276-.1.558-.181.843-.254a13.069 13.069 0 011.379-.274q.384-.056.77-.094.193-.019.386-.035t.387-.027l.211-.011h.046l.209-.009h.034l.191-.006h.595l-.01.021c-.009.02-.016.036-.025.052-.25.441-.485.891-.712 1.344q-.114.227-.225.454c-.2.417-.412.831-.609 1.251q-.094.2-.185.4-.456 1.007-.848 2.041-.157.413-.3.831l-.2.6q-.2.6-.362 1.21-.083.3-.157.612c-.069.288-.133.576-.189.866-.062.32-.115.642-.155.967a5.63 5.63 0 00-.045.681q0 .128.007.255a3.294 3.294 0 00.093.625 2.225 2.225 0 00.1.295 1.826 1.826 0 00.089.188q.025.046.053.091a1.615 1.615 0 00.1.139 1.45 1.45 0 00.108.123 1.355 1.355 0 00.106.1c.03.025.062.048.094.069a1.435 1.435 0 00.654.23l.091.008H24.455l.082-.006h.018l.081-.01h.009l.075-.012h.017l.079-.017h.015l.072-.018h.012l.079-.023.018-.006.08-.026a3.283 3.283 0 00.613-.285l.094-.059q.093-.06.182-.127a3.317 3.317 0 00.257-.214 3.547 3.547 0 00.313-.328l.034-.044a.3.3 0 00-.021-.034 5.256 5.256 0 01-.606-.956q-.106-.216-.194-.44-.059-.15-.109-.3l-.049-.154q-.07-.232-.124-.473-.018-.08-.034-.161t-.03-.162a8.192 8.192 0 01-.1-.815l-.01-.164q-.018-.335-.014-.669c0-.371.029-.741.069-1.111v-.015q.02-.191.045-.381v-.031c.051-.394.117-.786.206-1.174l.039-.164q.05-.2.108-.4a9.437 9.437 0 01.573-1.486l.071-.142q.109-.212.231-.419.081-.138.169-.273t.191-.281q.066-.092.134-.181.1-.134.214-.262a5 5 0 01.392-.4q.125-.115.259-.221.061-.048.123-.094c.083-.061.168-.118.255-.171q.065-.04.133-.076a2.557 2.557 0 01.57-.227l.09-.021.024-.005.076-.014h.015l.088-.013h.022l.072-.007H29.765q.057 0 .114.01h.029l.086.013.037.007.085.018.03.007.112.03.02.006.092.03.035.013.08.031.033.014.11.049q.1.048.2.1t.182.119q.044.031.086.064a2.621 2.621 0 01.512.541l.061.089c.028.043.055.086.081.131s.059.1.086.153q.079.15.143.3a4.424 4.424 0 01.268.965 6.748 6.748 0 01.088 1.159q0 .192-.012.385a11.214 11.214 0 01-.117 1.12l-.029.182q-.038.229-.085.456-.084.414-.192.825a14.01 14.01 0 01-.543 1.662q-.161.4-.347.8a13.7 13.7 0 01-1.007 1.771c-.074.11-.151.219-.227.328l-.02.034-.008.014h.119l.038-.006.042-.009h.015l.033-.008q.059-.014.117-.031a2.56 2.56 0 00.742-.379 4.359 4.359 0 00.441-.357 5.708 5.708 0 00.634-.7q.092-.118.178-.238a7.782 7.782 0 00.432-.676q.041-.071.08-.143.069-.127.133-.256t.125-.261q.11-.238.207-.483a10.258 10.258 0 00.548-1.92c.014-.075.028-.151.04-.227a12.553 12.553 0 00.179-2.29q0-.108-.007-.215-.009-.214-.03-.427-.015-.16-.038-.318l-.016-.106q-.017-.106-.037-.211-.01-.053-.021-.1-.034-.157-.076-.313a4.083 4.083 0 00-.586-1.291 2.956 2.956 0 00-1.114-.968q-.121-.06-.248-.109t-.262-.089l-.136-.037-.08-.02v-.041a.625.625 0 010-.08c0-.026.007-.053.013-.079l.019-.078.011-.039a1.841 1.841 0 01.092-.251q.027-.06.058-.118.047-.087.1-.169l.037-.054a2.447 2.447 0 01.258-.3 2.075 2.075 0 01.476-.387z"/><path data-name="Path 175" d="M29.935 18.482c0-.038.005-.076.007-.113s0-.077.005-.116a3.761 3.761 0 00-.01-.451 3.485 3.485 0 00-.028-.226l-.012-.066a1.535 1.535 0 00-.07-.257 1.048 1.048 0 00-.055-.122 1.101 1.101 0 00-.034-.058.438.438 0 00-.233-.19.464.464 0 00-.089-.021l-.055-.005H29.216l-.063.007-.06.012h-.011l-.059.017h-.012l-.059.022-.057.026-.011.005-.056.03-.011.006-.056.035a1.474 1.474 0 00-.328.3q-.027.033-.053.068-.076.1-.141.211a3.575 3.575 0 00-.129.235c-.026.052-.05.1-.073.157a4.726 4.726 0 00-.212.59 7.34 7.34 0 00-.177.758q-.027.153-.049.306t-.035.29c-.006.057-.012.114-.016.171l-.012.155a9.377 9.377 0 00-.01.162q-.008.149-.012.3v.317q0 .292.019.582.024.387.078.772.014.1.029.192a9.313 9.313 0 00.165.801q.025.1.053.2.083.295.19.584l.017.045.038.094.021.051.005-.009.021-.033c.007-.012.014-.023.019-.034l.065-.129c.065-.129.13-.257.19-.388.206-.446.391-.9.559-1.358q.162-.442.3-.891.052-.164.1-.33c.116-.388.224-.778.314-1.171q.039-.169.073-.338a9.846 9.846 0 00.165-1.195z"/></g><g data-name="Group 31"><path data-name="Path 176" d="M2.924 21.572l.481-.481a.919.919 0 00.327-.769 1.061 1.061 0 00-.34-.6l-.572-.572-2.821 2.821.412.412.981-.982.16.16a.859.859 0 001.372.011zm-1.021-.409l-.136-.136 1.094-1.094.136.136c.226.226.227.378 0 .6l-.5.5c-.217.222-.368.22-.594-.006z"/><path data-name="Path 177" d="M5.348 21.675L4.183 22.84l-.478-.478 1.165-1.165-.412-.412-2.821 2.821.412.412 1.283-1.283.478.478-1.283 1.283.412.412 2.821-2.82z"/><path data-name="Rectangle 9" d="M3.436 25.405l2.82-2.82.413.412-2.82 2.82z"/><path data-name="Path 178" d="M5.135 26.358l2.448-2.448-.412-.412-2.821 2.82 1.012 1.012.373-.373z"/><path data-name="Path 179" d="M8.81 25.137l-3.3 2.338.383.383.515-.368.5.5-.364.519.413.413 2.338-3.3zm-.6 1.045c-.163.209-.317.414-.463.621l-.544.767-.381-.381.767-.544c.211-.146.417-.3.626-.463z"/><path data-name="Path 180" d="M11.094 27.422l-1.465 1.465a5.9 5.9 0 00-.19.2c.054-.089.1-.173.147-.248l1.043-1.88-.514-.514-2.821 2.821.366.366 1.7-1.7c.054-.054.118-.121.187-.194-.053.087-.1.171-.145.243l-1.2 2.181.441.441 2.821-2.821z"/><path data-name="Path 181" d="M12.628 29.7l.373-.373-1.24-1.24-.373.373.414.414-2.448 2.448.412.412 2.448-2.448z"/><path data-name="Path 182" d="M14.202 30.529l-1.165 1.165-.478-.478 1.165-1.165-.412-.412-2.821 2.82.412.412 1.283-1.283.478.478-1.283 1.283.412.412 2.821-2.821z"/><path data-name="Path 183" d="M14.444 34.683a.792.792 0 00.292-.779.774.774 0 00.767-.28l.254-.254a.8.8 0 00-.025-1.312l-.61-.61-2.821 2.821.412.412 1.216-1.216.1.1c.147.147.211.259.206.363a.661.661 0 01-.241.386l-.231.231a2.6 2.6 0 00-.5.626l-.022.039.452.452.032-.085c.066-.171.13-.3.609-.78zm.026-1.426l-.167-.167.859-.859.167.167c.226.226.226.348 0 .57l-.293.293c-.224.225-.341.225-.57-.004z"/><path data-name="Path 184" d="M17.437 35.091a1.059 1.059 0 00.364-.708 1.068 1.068 0 00-.956-.956 1.063 1.063 0 00-.706.365l-1.494 1.494a.851.851 0 00-.057 1.356.9.9 0 00.634.3 1.045 1.045 0 00.722-.362zm-2.587.926a.485.485 0 01.164-.276l1.58-1.58a.449.449 0 01.3-.166.326.326 0 01.227.116c.166.166.151.323-.05.524l-1.58 1.58c-.2.2-.358.216-.524.05a.311.311 0 01-.117-.248z"/><path data-name="Path 185" d="M18.655 37.303l.481-.481a.919.919 0 00.327-.769 1.061 1.061 0 00-.34-.6l-.572-.572-2.821 2.821.412.412.982-.982.16.16a.859.859 0 001.371.011zm-1.021-.409l-.136-.136 1.094-1.094.136.136c.226.226.227.378 0 .6l-.5.5c-.217.222-.368.22-.594-.006z"/><path data-name="Rectangle 10" d="M17.36 39.328l2.82-2.82.413.412-2.82 2.82z"/><path data-name="Path 186" d="M19.968 39.371l.553.553.373-.373-.553-.553.793-.793.623.623.373-.373-1.035-1.035-2.821 2.821 1.055 1.055.373-.373-.642-.642z"/><path data-name="Path 187" d="M23.144 39.385a.867.867 0 00-.633-.3 1.016 1.016 0 00-.668.348l-.008.008a1.49 1.49 0 00-.431 1.387 1.025 1.025 0 01-.239.954l-.055.055c-.209.209-.347.227-.508.065a.279.279 0 01-.105-.237.521.521 0 01.171-.271l.413-.413-.393-.393-.37.37c-.469.469-.5.917-.081 1.333a.868.868 0 00.609.3 1 1 0 00.689-.35l.035-.035a1.493 1.493 0 00.43-1.383 1.038 1.038 0 01.243-.962l.023-.023c.238-.238.375-.2.508-.065.164.164.148.3-.062.512l-.339.339.389.389.3-.3c.466-.468.495-.915.082-1.328z"/></g></g><g data-name="Group 33"><path data-name="Path 188" d="M51.236 29.952h-1.837v10.4h-1.993v-10.4h-1.837v-1.733h5.667z"/><path data-name="Path 189" d="M54.512 40.351h-1.993V28.219h1.993v4.939h2.062v-4.939h1.993v12.132h-1.993v-5.445h-2.062z"/><path data-name="Path 190" d="M62.605 38.618h2.773v1.733h-4.766V28.219h4.679v1.733h-2.686v3.206h2.34v1.75h-2.34z"/><path data-name="Path 191" d="M72.38 40.351h-1.993V28.219h2.79a5.475 5.475 0 011.152.121 2.569 2.569 0 011.005.451 2.313 2.313 0 01.711.919 3.7 3.7 0 01.269 1.525v1.971a3.7 3.7 0 01-.269 1.525 2.382 2.382 0 01-.711.927 2.5 2.5 0 01-1.005.459 5.451 5.451 0 01-1.152.121h-.8zm0-10.4v4.541h.71a1.328 1.328 0 00.945-.277 1.268 1.268 0 00.286-.936v-2.1a1.3 1.3 0 00-.286-.953 1.329 1.329 0 00-.945-.277z"/><path data-name="Path 192" d="M81.667 38.566h-2.322l-.295 1.785h-1.82l2.1-12.132h2.548l2.1 12.132h-1.993zm-2.045-1.664h1.768l-.347-2.132q-.139-.832-.277-1.88t-.26-2.331q-.122 1.283-.26 2.331t-.277 1.88z"/><path data-name="Path 193" d="M87.423 35.206v5.147H85.43V28.219h2.964a7.244 7.244 0 011.135.087 2.251 2.251 0 01.962.381 2.046 2.046 0 01.667.849 3.671 3.671 0 01.251 1.49v.9a3.906 3.906 0 01-.1.962 2.381 2.381 0 01-.286.693 1.76 1.76 0 01-.425.468 2 2 0 01-.537.286 2.083 2.083 0 01.979.806 3.135 3.135 0 01.373 1.707v.364q0 .832.035 1.343a7.946 7.946 0 00.1.849 2.472 2.472 0 00.147.537q.087.2.191.407h-2.149q-.052-.138-.1-.329a4.28 4.28 0 01-.1-.477q-.043-.286-.078-.693t-.035-.979v-.9a3.927 3.927 0 00-.078-.858 1.3 1.3 0 00-.251-.546.882.882 0 00-.459-.286 2.788 2.788 0 00-.719-.078zm.8-1.75a1.35 1.35 0 00.927-.251 1.223 1.223 0 00.269-.91v-1.161a1.256 1.256 0 00-.269-.918 1.318 1.318 0 00-.927-.26h-.8v3.5z"/><path data-name="Path 194" d="M95.308 33.956q.225-.607.555-1.387t.762-1.768l1.2-2.582h1.924l-2.271 5.113 2.34 7.019h-2.045l-1.577-4.957-.884 1.716v3.241h-1.993V28.219h1.993z"/></g><g data-name="Group 34"><path data-name="Path 195" d="M48.633 17.572v7.448h-2.884V7.465h4.289a10.485 10.485 0 011.643.125 3.258 3.258 0 011.392.552 2.958 2.958 0 01.966 1.229 5.31 5.31 0 01.364 2.157v1.3a5.67 5.67 0 01-.151 1.392 3.442 3.442 0 01-.414 1 2.536 2.536 0 01-.614.677 2.893 2.893 0 01-.777.414 3.013 3.013 0 011.417 1.166 4.532 4.532 0 01.539 2.47v.527q0 1.2.05 1.944a11.475 11.475 0 00.138 1.229 3.578 3.578 0 00.213.777q.125.289.276.589h-3.11q-.075-.2-.15-.477a6.1 6.1 0 01-.138-.69q-.063-.414-.113-1t-.05-1.417v-1.3a5.657 5.657 0 00-.113-1.241 1.875 1.875 0 00-.364-.79 1.278 1.278 0 00-.665-.414 4.037 4.037 0 00-1.041-.113zm1.154-2.533a1.953 1.953 0 001.342-.364 1.769 1.769 0 00.389-1.317v-1.68a1.818 1.818 0 00-.389-1.329 1.908 1.908 0 00-1.342-.376h-1.154v5.066z"/><path data-name="Path 196" d="M60.044 22.514h4.013v2.508h-6.9V7.465h6.771v2.508h-3.887v4.64h3.385v2.533h-3.385z"/><path data-name="Path 197" d="M69.875 15.54q.175 1.053.351 2.37t.326 2.871q.15-1.555.326-2.871t.351-2.37l1.329-8.075h2.658L72.207 25.02h-3.586L65.587 7.465h2.934z"/><path data-name="Path 198" d="M83.967 22.387a1.461 1.461 0 001.154.4q1.479 0 1.48-1.655V7.465h2.683v13.442a4.3 4.3 0 11-8.552 0V7.465h2.884v13.668a1.869 1.869 0 00.351 1.254z"/><path data-name="Path 199" d="M94.952 25.02h-2.884V7.465h4.038a7.919 7.919 0 011.668.176 3.717 3.717 0 011.454.652 3.347 3.347 0 011.028 1.329 5.357 5.357 0 01.389 2.207v2.859a5.356 5.356 0 01-.389 2.207 3.448 3.448 0 01-1.028 1.342 3.613 3.613 0 01-1.454.665 7.9 7.9 0 01-1.668.176h-1.154zm0-15.047v6.571h1.028a1.922 1.922 0 001.367-.4 1.835 1.835 0 00.414-1.354v-3.035a1.876 1.876 0 00-.414-1.379 1.924 1.924 0 00-1.367-.4z"/></g><g data-name="Group 35"><path data-name="Path 200" d="M47.289 3.38h-.745l-.095.573h-.584l.673-3.891h.817l.673 3.891h-.639zm-.656-.534h.567l-.111-.684q-.045-.267-.089-.6t-.083-.748q-.039.411-.083.748t-.089.6z"/><path data-name="Path 201" d="M49.826.061h.906a1.759 1.759 0 01.37.039.825.825 0 01.323.145.744.744 0 01.228.295 1.188 1.188 0 01.086.489v1.957a1.188 1.188 0 01-.086.489.743.743 0 01-.228.295.823.823 0 01-.323.145 1.748 1.748 0 01-.37.039h-.906zm.639.556v2.78h.239a.426.426 0 00.3-.089.416.416 0 00.092-.306v-1.99a.416.416 0 00-.092-.306.426.426 0 00-.3-.089z"/><path data-name="Path 202" d="M54.866 3.38h-.745l-.094.573h-.584l.673-3.891h.817l.673 3.891h-.639zm-.656-.534h.567l-.111-.684q-.044-.267-.089-.6t-.083-.748q-.039.411-.083.748t-.089.6z"/><path data-name="Path 203" d="M58.773 2.702q.028-.256.072-.525t.089-.509l.323-1.607h.889v3.891h-.623V2.095q0-.317.011-.609t.028-.609q-.044.317-.092.6t-.108.609l-.384 1.862h-.5l-.384-1.862q-.061-.322-.108-.609t-.092-.6q.017.317.028.609t.011.609v1.857h-.534V.061h.9l.322 1.607q.044.239.089.509t.063.525z"/><path data-name="Path 204" d="M65.466 3.395h.889v.556h-1.529V.06h1.5v.556h-.862v1.028h.75v.562h-.75z"/><path data-name="Path 205" d="M69.51 3.38h-.745l-.094.573h-.584L68.76.062h.817l.673 3.891h-.639zm-.656-.534h.567l-.111-.684q-.045-.267-.089-.6t-.083-.748q-.039.411-.083.748t-.089.6z"/><path data-name="Path 206" d="M73.446.617h-.589v3.335h-.639V.617h-.589V.061h1.818z"/><path data-name="Path 207" d="M75.176 1.028a1.066 1.066 0 01.247-.784.982.982 0 01.72-.245.992.992 0 01.723.245 1.059 1.059 0 01.25.784v1.957a1.059 1.059 0 01-.25.784.992.992 0 01-.723.245.982.982 0 01-.72-.245 1.066 1.066 0 01-.247-.784zm.639 2.046a.461.461 0 00.075.289.3.3 0 00.253.094.313.313 0 00.256-.094.448.448 0 00.078-.289V.941a.448.448 0 00-.078-.289.313.313 0 00-.256-.094.3.3 0 00-.253.094.461.461 0 00-.075.289z"/><path data-name="Path 208" d="M81.007.061v3.891h-.75l-.573-2.035q-.05-.195-.108-.442t-.108-.448q.005.1.014.217t.014.239l.008.236q.003.114 0 .209v2.023h-.539V.06h.839l.489 1.707q.05.2.108.445t.1.45q-.011-.206-.022-.459t-.011-.442v-1.7z"/><path data-name="Path 209" d="M82.9.061h.567v.845l-.545.6-.05-.039.322-.562h-.295z"/><path data-name="Path 210" d="M85.899 3.074a.488.488 0 00.069.289.281.281 0 00.242.094.288.288 0 00.247-.094.488.488 0 00.069-.289v-.083a.647.647 0 00-.092-.359 1.175 1.175 0 00-.225-.256 3.647 3.647 0 00-.295-.225 1.581 1.581 0 01-.295-.264 1.354 1.354 0 01-.225-.372 1.426 1.426 0 01-.092-.548V.956A.836.836 0 0186.236 0a.919.919 0 01.692.245 1.1 1.1 0 01.236.784v.295h-.595V.941A.489.489 0 0086.5.652a.281.281 0 00-.242-.094.288.288 0 00-.247.094.489.489 0 00-.069.289v.033a.649.649 0 00.092.359 1.234 1.234 0 00.225.258 3.237 3.237 0 00.295.228 1.581 1.581 0 01.295.264 1.366 1.366 0 01.225.37 1.407 1.407 0 01.092.545v.067a.833.833 0 01-.934.951.913.913 0 01-.692-.247 1.1 1.1 0 01-.236-.781v-.395h.595z"/></g></g></svg>