<svg xmlns="http://www.w3.org/2000/svg" viewBox="0 0 30.94 25.14"><title>Twitter icon</title><path d="M27.8 7.07a17.93 17.93 0 0 1-2.12 8.4 17.3 17.3 0 0 1-6.1 6.83 17.48 17.48 0 0 1-9.85 2.84A17.62 17.62 0 0 1 0 22.3c.44 0 1 .06 1.51.06a12.62 12.62 0 0 0 7.92-2.72 6 6 0 0 1-3.72-1.24 6.36 6.36 0 0 1-2.21-3.11c.41 0 .79.06 1.15.06a8 8 0 0 0 1.69-.18 6.43 6.43 0 0 1-3.62-2.24 6.08 6.08 0 0 1-1.45-4v-.11a5.91 5.91 0 0 0 2.84.85 7.12 7.12 0 0 1-2.06-2.3 6.13 6.13 0 0 1-.78-3 6 6 0 0 1 .91-3.17A17.5 17.5 0 0 0 8 5.86a17.48 17.48 0 0 0 7.28 1.93 8.78 8.78 0 0 1-.12-1.45A6.35 6.35 0 0 1 16 3.17 6.24 6.24 0 0 1 18.25.85 6.3 6.3 0 0 1 24 .54 7.4 7.4 0 0 1 26 2 12.76 12.76 0 0 0 30.09.48 6.31 6.31 0 0 1 27.31 4a13.76 13.76 0 0 0 3.63-1 13.87 13.87 0 0 1-3.21 3.32 3.53 3.53 0 0 1 .07.75z"/></svg>