<svg xmlns="http://www.w3.org/2000/svg" viewBox="0 0 27.07 27.07"><title>Facebook icon</title><path d="M27.07 25.56a1.53 1.53 0 0 1-.42 1.06 1.45 1.45 0 0 1-1.09.45h-6.89V16.56h3.51l.54-4h-4V9.91A2.24 2.24 0 0 1 19 8.46a2.12 2.12 0 0 1 1.63-.54h2.18V4.23C22 4.15 21 4.11 19.7 4.11a5.27 5.27 0 0 0-3.81 1.39 5.25 5.25 0 0 0-1.45 4v3h-3.5v4h3.5v10.57H1.51a1.43 1.43 0 0 1-1.09-.45A1.53 1.53 0 0 1 0 25.56v-24A1.49 1.49 0 0 1 .42.42 1.49 1.49 0 0 1 1.51 0h24a1.53 1.53 0 0 1 1.06.42 1.43 1.43 0 0 1 .45 1.09z"/></svg>