<?xml version="1.0" encoding="utf-8"?>
<!-- Generator: Adobe Illustrator 24.0.3, SVG Export Plug-In . SVG Version: 6.00 Build 0)  -->
<svg version="1.1" id="Layer_1" xmlns="http://www.w3.org/2000/svg" xmlns:xlink="http://www.w3.org/1999/xlink" x="0px" y="0px"
	 viewBox="0 0 1954 1303" style="enable-background:new 0 0 1954 1303;" xml:space="preserve">
<style type="text/css">
	.st0{clip-path:url(#SVGID_2_);fill:#273B84;}
</style>
<g>
	<g>
		<defs>
			<path id="SVGID_1_" d="M1954,0H0v1254h0.8c-0.4,0.4-0.6,1.1-0.6,2.3c0.2,8.3,0.1,16.7,0.1,25c1,0,2,0,3.1,0.1
				c13.7,1.6,27.5,3.3,41.2,4c13.2,0.7,26.4,1.1,39.5,2.3c20.7,1.8,41.3,2.6,62,3.4c21.1,0.7,42.1,1.4,63.2-0.8
				c10.4-1,20.9-0.8,31.2-1c10.6-0.8,21.3-0.1,31.9-0.6c1.7-0.1,3.9,1.1,5-1.2c-2.8-1.5-6-0.3-9-0.7c-3.2-0.2-6.4,0.4-9.6-0.4
				c-3.7,0-7.3-0.9-11-0.2c-3.5-1.1-7,0.3-10.4-0.8c-1.3-0.4-2.6-0.8-4-1.2c-1.3-1.5-3.2-2-4.9-2.6c-0.6-0.4-2.5-0.7-0.5-1.5
				c1.7-0.7,3.8-0.5,5.7-0.7c0.9-0.1,1.8-0.5,2.5-1.1c3.6-1,7.1-3.1,10.6-2.8c19.5,1.3,38.9-1.9,58.4-1.3c-0.5-3-0.5-3-6.2-4.2
				c-0.3,0-0.9,0-0.9-0.1c0-0.7,0.6-0.2,0.9-0.4c4.7,0.5,8.4,4.7,13.5,3.6c3,0.7,6,0.6,9.1,0.4c6.2-0.3,12.4-0.6,18.6-0.7
				c18.1-0.4,36.2,1.7,54.3,0.8c10.1-0.5,20-0.2,30-1.5c3-0.4,5.9-0.7,8.3-2.6c2-1.6,1.4-3-0.3-4.2c-1.4-2.8-4.2-2.5-6.6-2.4
				c-9.8,0.3-19.5-0.9-29.3-1.2c2.1,0,4.2,0,6.4,0c15.3-0.3,30.4-0.5,45.4,3.7c5,1.4,10,1.3,15,1.5c2.6,0.1,5.4-0.5,8,0.4
				c2.3,1.3,4.9,1.2,7.4,1c12.4-0.8,24.8-1.6,37.2-2.5c7.4-0.5,14.9-1.7,22.4-1.1c11.9,1,24,0.8,35.7,3.9c1-0.5,1.5-2.1,3.1-1.1
				c2.3,3.2,4.2-0.8,6.4-0.4c12.2,2.1,24.5,0.8,36.8,2c14.2,1.4,28.7,1,43,1.8c12.9,0.7,25.9-0.5,38.8,1.4c3.1-0.4,6,1,9.1,0.5
				c1.7,0,3.6-0.1,5.4-0.1c0.7,0,1.5-0.2,2.4-0.2c-1,0.7-2.1,0.4-3.2,0.6c-3.7,0.3-7.5-0.4-11.2,0.6c-0.5,0.2-1.1,0.4-1.6,0.5
				c-1.7,0.6-4-0.1-5.1,2c1,1.1,2.3,0.6,3.4,0.9c1.7,0.2,3.5,0.1,5.1-0.5c3.7,0.5,7.3,1.2,11,1.3c20.9,0.4,41.7-0.3,62.6-1.1
				c25.7-1,51.5-2.3,77.2-3.2c14.9-0.5,29.6-0.1,44.5-0.2c16.6-0.1,33.1-0.3,49.7-0.3c16.3,0,32.6,0.2,49.3-0.2
				c5.2,1.2,10-1.2,15-1.4c4.6-0.1,9.2,0.4,13.6-0.4c20-1.4,40,0.3,60-0.1c2.7,1.5,5.8,1,8.8,1.4c3.9-0.3,7.8,0.2,11.7-0.5
				c4.4-0.3,8.9,1.2,13-0.9c2.7-1.3,5.1,0.3,7.5,1c1.3,0.2,2.7,0.1,4.1,0.1c9.9-1,19.7,0.5,29.6,0.4c6.6,0.4,13.2-1.5,19.8-0.5
				c0.7,0,1.3,0,2,0c1.3-1,3-0.5,4.4-0.5c6.7,0,13.4,0.3,20.1,0.6c3.5,0.2,6.9,0.3,10.4,0.7c9.3,1.2,18.6-0.1,27.9,0.4
				c5.1,1.6,10.4,0.5,15.6,1.1c15.4,1.7,30.9,2.1,46.3,3.9c8.6,1,17.3-0.4,25.9,1.9c8.5,2.3,17.5,0.8,26.3,1.1
				c4.2,0.4,8.2,1,12.4,0.3c6.3-1.3,12.6,0.4,19,0c7.7-0.5,15.6,0.9,23.5,0.2c7.8-0.7,15.7,0.5,23.5,1.5c1.2,0.7,2.6,0.5,4,0.5
				c23.4,0.3,46.8-1.4,70.2,0.4c1.7-0.8,3.6-0.2,5.4-0.4c3.1,0.1,6,1,9.1,1.2c0.7,0.3,1.4,0.5,2.1,0.7c1.6-0.5,3.6-0.1,5-1.3
				c0.9,0,1.9,0,2.8,0c1.8,0.7,3.8,0.3,5.6,0.8c3.7-0.9,7.2,0.3,10.8,0.4c21,0.7,41.9-0.6,62.8-1.7c12-0.6,23.7,0.1,35.5,1.6
				c2.4,0.6,4.9,1.9,7.5,0.9c0.1-0.1,0.1-0.2-0.1-0.5c-0.4-0.5,0.9,0.2,0.3,0.4c-0.9,1-3.8,0.6-2.3,3.3c5,0.9,10.4-0.2,15.3,1.8
				c0.9,0.1,1.8,0.2,2.7,0.3c2.1,1,4.5-0.4,6.5,0.9l0.2,0.2l0.3-0.1c1.7,1.2,4-0.9,5.6,0.8c0.6,0.3,1.2,0.7,1.8,0.8
				c11.7,1.6,23.5,0.9,35.3,1.2c0.1,0,0.3-1.1,0.5-1.7c1.4-1.3-1.5-2.7,0.1-4.1c8.6,0,17.3,0,25.9,0c4.2,1.1,9.2-1.4,12.4,3.2
				c3.4,3.1,7,1.9,10.7,0.7c1.4-0.5,2.6-1.3,4.3-1.3c8.1,0.2,16.3,0.3,24.4,0.5c3.6,0.1,7,1.8,10.4,2.1c4,0.4,4.2,2,4.2,4.9
				c3.9,3.5,8.6,4,13.5,3.7c5.1-0.3,8.8-4.7,9-9.9c-2-2.2-4.5-1.8-6.9-0.9c-1.9,0.6-3.9,1.4-6.4,1c1.4-0.9,2.5-0.8,3.5-1
				c1.2-0.2,2.3-0.7,3.4-1.6c1.9-1.8,2.4-4,1-6.4c-2.2-0.7-2.8-2.6-3.6-4.6c-0.4-1.2-0.7-2.3,1.4-2.1c4.7,0.4,9.5,0.5,14.1,1.2
				c1.2,0.2,2.3,0.6,3.1-0.4s0.2-2.1-0.4-3.3c-2.7-5.1-1.5-7.2,4.3-7c19.6,0.6,39.4-3.4,59.1-0.2c5.7,0.9,11.4-1.4,17.1-1
				c7,0.4,14,1.2,21.1,0c0-2.8-0.2-5.8,0.1-8.6c0.3-2.6-0.2-3.8-1.8-4.3h1.8L1954,0L1954,0z M379.9,1260.7c-0.3,0.1-0.4,0.2-0.3,0.4
				C379.9,1261.7,379.1,1260.9,379.9,1260.7c1.4-0.4,2.9-0.4,4.5-0.2C382.9,1260.4,381.4,1260.5,379.9,1260.7z M391.8,1261.2
				c-1-0.1-2-0.2-3.1-0.3c1.4,0,2.7,0.2,4,0.3C392.5,1261.2,392.1,1261.2,391.8,1261.2z"/>
		</defs>
		<clipPath id="SVGID_2_">
			<use xlink:href="#SVGID_1_"  style="overflow:visible;"/>
		</clipPath>
		
			<image style="overflow:visible;clip-path:url(#SVGID_2_);enable-background:new    ;" width="1954" height="1303" xlink:href="../web/wp-content/themes/nats-philanthropies-theme/images/bg-home-hero.jpg" >
		</image>
		<rect class="st0" width="1954" height="1303"/>
	</g>
</g>
</svg>
