<?xml version="1.0" encoding="utf-8"?>
<!-- Generator: Adobe Illustrator 24.0.3, SVG Export Plug-In . SVG Version: 6.00 Build 0)  -->
<!DOCTYPE svg PUBLIC "-//W3C//DTD SVG 1.1//EN" "http://www.w3.org/Graphics/SVG/1.1/DTD/svg11.dtd" [
	<!ENTITY ns_extend "http://ns.adobe.com/Extensibility/1.0/">
	<!ENTITY ns_ai "http://ns.adobe.com/AdobeIllustrator/10.0/">
	<!ENTITY ns_graphs "http://ns.adobe.com/Graphs/1.0/">
	<!ENTITY ns_vars "http://ns.adobe.com/Variables/1.0/">
	<!ENTITY ns_imrep "http://ns.adobe.com/ImageReplacement/1.0/">
	<!ENTITY ns_sfw "http://ns.adobe.com/SaveForWeb/1.0/">
	<!ENTITY ns_custom "http://ns.adobe.com/GenericCustomNamespace/1.0/">
	<!ENTITY ns_adobe_xpath "http://ns.adobe.com/XPath/1.0/">
]>
<svg version="1.1" id="Layer_1" xmlns:x="&ns_extend;" xmlns:i="&ns_ai;" xmlns:graph="&ns_graphs;"
	 xmlns="http://www.w3.org/2000/svg" xmlns:xlink="http://www.w3.org/1999/xlink" x="0px" y="0px" viewBox="0 0 1920.2 48.9"
	 enable-background="new 0 0 1920.2 48.9" xml:space="preserve">
<metadata>
	<sfw  xmlns="&ns_sfw;">
		<slices></slices>
		<sliceSourceBounds  bottomLeftOrigin="true" height="48.8" width="1920.3" x="0" y="0.1"></sliceSourceBounds>
	</sfw>
</metadata>
<path fill="#010101" d="M267.5,14.4c1.7,0.1,3.8-1.1,4.9,1.2c-2.8,1.5-5.9,0.3-8.8,0.7c-3.1,0.2-6.3-0.4-9.4,0.4
	c-3.6,0-7.2,0.9-10.8,0.2c-3.4,1.1-6.9-0.3-10.2,0.8c-1.3,0.4-2.6,0.8-3.9,1.2c-1.3,1.5-3.1,2-4.8,2.6c-0.6,0.4-2.5,0.7-0.5,1.5
	c1.7,0.7,3.7,0.5,5.6,0.7c0.9,0.1,1.8,0.5,2.5,1.1c3.5,1,7,3,10.4,2.8c19.2-1.3,38.2,1.9,57.4,1.3c-0.5,2.9-0.5,2.9-6.1,4.1
	c-0.3,0-0.9,0-0.9,0.1c0,0.7,0.6,0.2,0.9,0.4c4.6-0.5,8.3-4.6,13.3-3.5c2.9-0.7,5.9-0.6,8.9-0.4c6.1,0.3,12.2,0.6,18.3,0.7
	c17.8,0.4,35.6-1.7,53.4-0.8c9.9,0.5,19.7,0.2,29.5,1.5c2.9,0.4,5.8,0.7,8.2,2.6c2,1.6,1.4,2.9-0.3,4.1c-1.4,2.8-4.1,2.5-6.5,2.4
	c-11.2-0.4-22.4,1.3-33.7,1.3c-3.9,0.3-7.8,1.1-11.7,0.5c-0.3-0.1-0.4-0.2-0.3-0.4c0.3-0.6-0.5,0.2,0.2,0.4c2.9,0.8,5.8-0.2,8.7-0.2
	c2.2,0,4.3-0.5,6.5-0.4c2.6,0,5.1,0,7.7,0c15,0.3,29.9,0.5,44.6-3.6c4.9-1.4,9.8-1.3,14.7-1.5c2.6-0.1,5.3,0.5,7.9-0.4
	c2.3-1.3,4.8-1.2,7.3-1c12.2,0.8,24.4,1.6,36.6,2.5c7.3,0.5,14.6,1.7,22,1.1c11.7-1,23.6-0.8,35.1-3.8c1,0.5,1.5,2.1,3,1.1
	c2.3-3.1,4.1,0.8,6.3,0.4c12-2.1,24.1-0.8,36.2-2c14-1.4,28.2-1,42.3-1.8c12.7-0.7,25.5,0.5,38.1-1.4c3,0.4,5.9-1,8.9-0.5
	c1.7,0,3.5,0.1,5.3,0.1c0.7,0,1.5,0.2,2.4,0.2c-1-0.7-2.1-0.4-3.1-0.6c-3.6-0.3-7.4,0.4-11-0.6c-0.5-0.2-1.1-0.4-1.6-0.5
	c-1.7-0.6-3.9,0.1-5-2c1-1.1,2.3-0.6,3.3-0.9c1.7-0.2,3.4-0.1,5,0.5c3.6-0.5,7.2-1.2,10.8-1.3c20.5-0.4,41,0.3,61.5,1.1
	c25.3,1,50.6,2.3,75.9,3.1c14.6,0.5,29.1,0.1,43.7,0.2c16.3,0.1,32.5,0.3,48.8,0.3c16,0,32-0.2,48.5,0.2c5.1-1.2,9.8,1.2,14.7,1.4
	c4.5,0.1,9-0.4,13.4,0.4c19.7,1.4,39.3-0.3,59,0.1c2.7-1.5,5.7-1,8.6-1.4c3.8,0.3,7.7-0.2,11.5,0.5c4.3,0.3,8.7-1.2,12.8,0.9l0,0
	c2.7,1.3,5-0.3,7.4-1c1.3-0.2,2.7-0.1,4-0.1c9.7,1,19.4-0.5,29.1-0.4c6.5-0.4,13,1.5,19.5,0.5c0.7,0,1.3,0,2,0
	c1.3,1,2.9,0.5,4.3,0.5c6.6,0,13.2-0.3,19.8-0.6c3.4-0.2,6.8-0.3,10.2-0.7c9.1-1.2,18.3,0.1,27.4-0.4c5-1.6,10.2-0.5,15.3-1.1
	c15.1-1.7,30.4-2.1,45.5-3.8c8.5-1,17,0.4,25.5-1.9c8.4-2.3,17.2-0.8,25.8-1.1c4.1-0.4,8.1-1,12.2-0.3c6.2,1.3,12.4-0.4,18.7,0
	c7.6,0.5,15.3-0.9,23.1-0.2c7.7,0.7,15.4-0.5,23.1-1.5c1.2-0.7,2.6-0.5,3.9-0.5c23-0.3,46,1.4,69-0.4c1.7,0.8,3.5,0.2,5.3,0.4
	c3-0.1,5.9-1,8.9-1.2c0.7-0.3,1.4-0.5,2.1-0.7c1.6,0.5,3.5,0.1,4.9,1.3c0.9,0,1.9,0,2.8,0c1.8-0.7,3.7-0.3,5.5-0.8
	c3.6,0.9,7.1-0.3,10.6-0.4c20.6-0.7,41.2,0.6,61.7,1.7c11.8,0.6,23.3-0.1,34.9-1.6c2.4-0.6,4.8-1.9,7.4-0.9c0.1,0.1,0.1,0.2-0.1,0.5
	c-0.4,0.5,0.9-0.2,0.3-0.4c-0.9-1-3.7-0.6-2.3-3.2l0,0c4.9-0.9,10.2,0.2,15-1.8c0.9-0.1,1.8-0.2,2.7-0.3c2.1-1,4.4,0.4,6.4-0.9
	l0.2-0.2l0.3,0.1c1.7-1.2,3.9,0.9,5.5-0.8c0.6-0.3,1.2-0.7,1.8-0.8c11.5-1.6,23.1-0.9,34.7-1.2c0.1,0,0.3,1.1,0.5,1.7
	c1.4,1.3-1.5,2.7,0.1,4c8.5,0,17,0,25.5,0c4.1-1.1,9,1.4,12.2-3.1c3.3-3,6.9-1.9,10.5-0.7c1.4,0.5,2.6,1.3,4.2,1.3
	c8-0.2,16-0.3,24-0.5c3.5-0.1,6.9-1.8,10.2-2.1c3.9-0.4,4.1-2,4.1-4.8c3.8-3.4,8.5-3.9,13.3-3.6c5,0.3,8.6,4.6,8.8,9.7
	c-2,2.2-4.4,1.8-6.8,0.9c-1.9-0.6-3.8-1.4-6.3-1c1.4,0.9,2.5,0.8,3.4,1c1.2,0.2,2.3,0.7,3.3,1.6c1.9,1.8,2.4,3.9,1,6.3
	c-2.2,0.7-2.8,2.6-3.5,4.5c-0.4,1.2-0.7,2.3,1.4,2.1c4.6-0.4,9.3-0.5,13.9-1.2c1.2-0.2,2.3-0.6,3,0.4s0.2,2.1-0.4,3.2
	c-2.7,5-1.5,7.1,4.2,6.9c19.3-0.6,38.7,3.3,58.1,0.2c5.6-0.9,11.2,1.4,16.8,1c6.9-0.4,13.8-1.2,20.7,0c0,2.8-0.2,5.7,0.1,8.5
	c0.4,3.8-0.9,4.6-4.6,4.6c-637-0.1-1274-0.1-1911-0.1c-0.7,0-1.4-0.1-2,0C0.4,49.1,0,48.4,0,46.2C0.2,38,0.1,29.8,0.1,21.6
	c1,0,2,0,3-0.1c13.5-1.6,27-3.2,40.5-3.9c13-0.7,25.9-1.1,38.8-2.3c20.3-1.8,40.6-2.6,60.9-3.3c20.7-0.7,41.4-1.4,62.1,0.8
	c10.2,1,20.5,0.8,30.7,1C246.5,14.6,257,13.9,267.5,14.4z"/>
</svg>
