<svg xmlns="http://www.w3.org/2000/svg" width="35.799" height="36" viewBox="0 0 35.799 36">
  <g id="icon" transform="translate(-493.2 41.8)">
    <g id="Group_22" data-name="Group 22" transform="translate(493.2 -41.8)">
      <path id="Path_58" data-name="Path 58" d="M528.965-24.739c0-.134-.034-.268-.034-.4,0-.168-.034-.335-.034-.5-.034-.168-.034-.335-.067-.5,0-.134-.034-.235-.034-.369l-.1-.6c0-.1-.034-.168-.034-.268-.034-.2-.1-.436-.134-.637,0-.067-.034-.134-.034-.2-.067-.235-.1-.436-.168-.67,0-.067-.034-.1-.034-.168a3.955,3.955,0,0,0-.235-.67c0-.034-.034-.1-.034-.134a4,4,0,0,0-.268-.67.117.117,0,0,0-.033-.067v-.034l-.3-.7c0-.034-.034-.067-.034-.1-.1-.235-.235-.469-.335-.7,0-.034-.034-.067-.034-.1-.134-.235-.235-.469-.369-.67a.117.117,0,0,0-.034-.067c-.134-.235-.268-.436-.4-.637-.034-.034-.034-.067-.067-.067a7.194,7.194,0,0,0-.436-.637c-.034-.034-.034-.067-.067-.067a7.38,7.38,0,0,0-.469-.6c-.034-.034-.034-.067-.067-.067-.168-.2-.335-.4-.469-.57-.034-.034-.034-.067-.067-.067-.168-.2-.335-.369-.5-.57l-.034-.034a1.458,1.458,0,0,1-.2-.235A18.048,18.048,0,0,0,511.1-41.8a17.91,17.91,0,0,0-12.7,5.263,1.461,1.461,0,0,0-.2.235l-.034.034c-.168.168-.335.369-.5.57-.034.034-.034.067-.067.067a7.024,7.024,0,0,0-.469.57c-.034.034-.034.067-.067.067-.168.2-.3.4-.469.6-.034.034-.034.067-.067.1-.134.2-.3.4-.436.637-.034.034-.034.067-.067.067-.134.2-.268.436-.4.637a.117.117,0,0,1-.034.067,6.65,6.65,0,0,0-.369.67c0,.034-.034.067-.034.1a6.69,6.69,0,0,0-.335.7c0,.034-.034.067-.034.1l-.3.7v.034a.117.117,0,0,1-.034.067c-.1.235-.168.436-.268.67-.067.067-.1.1-.1.168-.067.235-.134.436-.2.67,0,.067-.034.1-.034.168a3.922,3.922,0,0,0-.168.67.425.425,0,0,0-.034.2c-.034.2-.1.4-.134.637a.738.738,0,0,0-.034.268c-.034.2-.067.4-.1.57a1.375,1.375,0,0,0-.034.369c-.034.168-.034.335-.067.5,0,.168-.034.335-.034.5,0,.134-.034.268-.034.4,0,.3-.034.6-.034.905a8.171,8.171,0,0,0,.034.905c0,.134.034.268.034.4,0,.168.034.335.034.5.034.168.034.335.067.5,0,.134.034.235.034.369.034.2.067.4.1.57,0,.1.034.168.034.268.034.2.1.4.134.637a.425.425,0,0,1,.034.2c.067.235.1.436.168.637,0,.067.034.1.034.168.067.235.134.436.2.67,0,.034.034.1.034.134a5.6,5.6,0,0,0,.268.67.117.117,0,0,0,.034.067v.034l.3.7c0,.034.034.067.034.1.1.235.235.469.335.67,0,.034.034.067.034.1.134.235.235.436.369.67.034.034.034.067.067.1.134.235.268.436.4.637.034.034.034.067.067.1.134.2.268.4.436.637.034.034.034.067.067.1a7.366,7.366,0,0,0,.469.6c.034.034.034.067.067.1.168.2.3.4.469.57.034.034.034.067.067.067.168.2.335.369.5.57l.034.034.034.034.2.2A17.91,17.91,0,0,0,511.1-5.8a17.91,17.91,0,0,0,12.7-5.263l.2-.2.034-.034.034-.034c.168-.168.335-.369.5-.57.034-.034.034-.067.067-.067a7.025,7.025,0,0,0,.469-.57c.034-.034.034-.067.067-.1.168-.2.3-.4.469-.6.034-.034.034-.067.067-.1.134-.2.3-.4.436-.637.034-.034.034-.067.067-.1.134-.2.268-.436.4-.637a.123.123,0,0,0,.034-.1,6.649,6.649,0,0,0,.369-.67c0-.034.034-.067.034-.1.1-.235.235-.469.335-.67,0-.034.034-.067.034-.1l.3-.7V-17.1a.117.117,0,0,1,.033-.067c.1-.235.168-.436.268-.67,0-.034.034-.1.034-.134a5.3,5.3,0,0,1,.235-.67c0-.067.034-.1.034-.168a4.9,4.9,0,0,0,.168-.67.425.425,0,0,0,.034-.2c.034-.2.1-.4.134-.637a.738.738,0,0,0,.034-.268c.034-.2.067-.4.1-.57a1.375,1.375,0,0,0,.034-.369c.034-.168.034-.335.067-.5,0-.168.034-.335.034-.5,0-.134.034-.268.034-.4,0-.3.034-.6.034-.905A8.171,8.171,0,0,0,528.965-24.739Zm-29.933,9.251.8.469c-.3.469-.637.905-.972,1.341l-.034-.034-.6-.8c-.067-.1-.134-.168-.2-.268a7.128,7.128,0,0,1-.536-.838c-.034-.067-.1-.168-.134-.235l-.4-.7c-.067-.1-.1-.2-.168-.3-.134-.3-.268-.6-.4-.872-.067-.168-.134-.369-.2-.536,0-.034-.034-.067-.034-.1-.067-.2-.134-.4-.2-.637,0-.034-.034-.067-.034-.1a3.537,3.537,0,0,1-.168-.637c0-.034-.034-.067-.034-.134a3.892,3.892,0,0,1-.134-.6c0-.034-.034-.1-.034-.134l-.1-.6c0-.067-.034-.1-.034-.168a3.7,3.7,0,0,1-.067-.6c0-.067-.034-.134-.034-.2a3.644,3.644,0,0,1-.034-.6V-23c0-.268-.034-.536-.034-.8a7.28,7.28,0,0,0,.034-.838v-.2c0-.2.034-.4.034-.6a.425.425,0,0,1,.034-.2c.034-.2.034-.4.067-.6,0-.067.034-.1.034-.168l.1-.6c0-.034.034-.1.034-.134.034-.2.1-.4.134-.637,0-.034.034-.067.034-.134.067-.2.1-.436.168-.637,0-.034.034-.067.034-.1.067-.2.134-.4.2-.637,0-.034.034-.067.034-.1.067-.168.134-.369.2-.536l.4-.905a1.359,1.359,0,0,1,.168-.3c.134-.235.268-.469.4-.737.034-.067.1-.168.134-.235.168-.268.369-.57.536-.838.067-.1.134-.168.2-.268l.6-.8.034-.034a12.388,12.388,0,0,1,.972,1.341l-.8.469a1.118,1.118,0,0,0-.4,1.475,1.118,1.118,0,0,0,1.475.4l.8-.469c.168.335.335.7.469,1.039l.3.8-.905.235A1.1,1.1,0,0,0,500-27.454a1.1,1.1,0,0,0,1.307.771l.905-.235a18.734,18.734,0,0,1,.268,1.978h-.9a1.059,1.059,0,0,0-1.073,1.073,1.059,1.059,0,0,0,1.073,1.073h.9a12.771,12.771,0,0,1-.268,1.978l-.905-.235A1.072,1.072,0,0,0,500-20.28a1.072,1.072,0,0,0,.771,1.307l.905.235-.3.8a9.769,9.769,0,0,1-.469,1.039l-.8-.469a1.066,1.066,0,0,0-1.475.4A1.066,1.066,0,0,0,499.032-15.487ZM511.1-8.012a15.818,15.818,0,0,1-10.659-4.123,18.359,18.359,0,0,0,1.374-1.81l.872.5a1.066,1.066,0,0,0,1.475-.4,1.066,1.066,0,0,0-.4-1.475l-.905-.469c.2-.436.436-.872.6-1.307.134-.335.268-.7.369-1.039l.972.268a1.072,1.072,0,0,0,1.307-.771,1.072,1.072,0,0,0-.771-1.307l-.939-.268a21.159,21.159,0,0,0,.335-2.547h1.006a1.059,1.059,0,0,0,1.073-1.073,1.059,1.059,0,0,0-1.073-1.073h-1.006a21.159,21.159,0,0,0-.335-2.547l.972-.268a1.1,1.1,0,0,0,.771-1.307,1.1,1.1,0,0,0-1.307-.771l-.972.268c-.134-.335-.268-.67-.4-1.039a11.364,11.364,0,0,0-.6-1.307l.871-.5a1.118,1.118,0,0,0,.4-1.475,1.118,1.118,0,0,0-1.475-.4l-.872.5a14.3,14.3,0,0,0-1.374-1.81,15.721,15.721,0,0,1,10.659-4.123,15.868,15.868,0,0,1,10.693,4.156,18.349,18.349,0,0,0-1.374,1.81l-.838-.5a1.048,1.048,0,0,0-1.441.4,1.048,1.048,0,0,0,.4,1.441l.872.5c-.2.436-.436.872-.6,1.307-.134.335-.268.7-.369,1.039l-.972-.268a1.072,1.072,0,0,0-1.307.771,1.072,1.072,0,0,0,.771,1.307l.972.268a21.171,21.171,0,0,0-.335,2.547H516.53a1.059,1.059,0,0,0-1.073,1.073,1.059,1.059,0,0,0,1.073,1.073h1.006a21.171,21.171,0,0,0,.335,2.547l-.972.268a1.1,1.1,0,0,0-.771,1.307,1.1,1.1,0,0,0,1.307.771l.972-.268c.134.369.235.7.369,1.039a9.233,9.233,0,0,0,.6,1.307l-.905.5a1.086,1.086,0,0,0-.4,1.441,1.086,1.086,0,0,0,1.441.4l.872-.5a14.3,14.3,0,0,0,1.374,1.81A15.721,15.721,0,0,1,511.1-8.012Zm15.721-14.95v.2c0,.2-.034.4-.034.6a.425.425,0,0,1-.034.2c-.034.2-.034.4-.067.6,0,.067-.034.1-.034.168l-.1.6c0,.034-.034.1-.034.134-.034.2-.1.4-.134.6,0,.034-.034.067-.034.134-.067.2-.1.436-.168.637,0,.034-.034.067-.034.1-.067.2-.134.436-.2.637,0,.034-.034.067-.034.1-.067.168-.134.369-.2.536-.134.3-.268.6-.4.872-.067.1-.1.2-.168.3l-.4.7c-.034.067-.1.168-.134.235-.168.268-.369.57-.536.838-.067.1-.134.168-.2.268l-.6.8-.034.034a12.379,12.379,0,0,1-.972-1.341l.8-.469a1.127,1.127,0,0,0,.4-1.475,1.086,1.086,0,0,0-1.441-.4l-.8.469c-.168-.335-.335-.7-.469-1.039l-.3-.8.905-.235a1.1,1.1,0,0,0,.771-1.307,1.1,1.1,0,0,0-1.307-.771l-.905.235a18.75,18.75,0,0,1-.268-1.978h.905a1.059,1.059,0,0,0,1.073-1.073,1.059,1.059,0,0,0-1.073-1.073h-.905a12.771,12.771,0,0,1,.268-1.978l.905.235a1.072,1.072,0,0,0,1.307-.771,1.072,1.072,0,0,0-.771-1.307l-.905-.235.3-.8a9.793,9.793,0,0,1,.469-1.039l.8.469a1.048,1.048,0,0,0,1.441-.4,1.048,1.048,0,0,0-.4-1.441l-.8-.469c.3-.469.637-.905.972-1.341l.034.034.6.8c.067.1.134.168.2.268a7.136,7.136,0,0,1,.536.838,1.457,1.457,0,0,1,.134.235c.134.235.268.469.4.737.067.1.1.2.168.3l.4.905c.067.168.134.369.2.536,0,.034.034.067.034.1.067.2.134.4.2.637,0,.034.034.067.034.1a3.542,3.542,0,0,1,.168.637c0,.034.034.067.034.134a3.561,3.561,0,0,1,.134.637c0,.034.034.1.034.134l.1.6c0,.067.034.1.034.168a3.7,3.7,0,0,1,.067.6c0,.067.034.134.034.2a3.644,3.644,0,0,1,.034.6v.2c0,.268.034.536.034.8A6.461,6.461,0,0,1,526.82-22.962Z" transform="translate(-493.2 41.8)" fill="#fff"/>
    </g>
  </g>
</svg>
