<svg xmlns="http://www.w3.org/2000/svg" width="59.681" height="33.819" viewBox="0 0 59.681 33.819">
  <g id="Group_52" data-name="Group 52" transform="translate(-582 -88)">
    <g id="Group_38" data-name="Group 38" transform="translate(582 88)">
      <g id="Group_37" data-name="Group 37" transform="translate(0 0)">
        <path id="Path_211" data-name="Path 211" d="M634.718,88H588.963A6.971,6.971,0,0,0,582,94.963v19.894a6.971,6.971,0,0,0,6.963,6.963h45.755a6.971,6.971,0,0,0,6.963-6.963V94.963A6.971,6.971,0,0,0,634.718,88Zm4.973,26.856a4.979,4.979,0,0,1-4.973,4.973H588.963a4.979,4.979,0,0,1-4.973-4.973V94.963a4.979,4.979,0,0,1,4.973-4.973h45.755a4.979,4.979,0,0,1,4.973,4.973Z" transform="translate(-582 -88)" fill="#fff"/>
      </g>
    </g>
    <g id="Group_40" data-name="Group 40" transform="translate(585.979 91.979)">
      <g id="Group_39" data-name="Group 39" transform="translate(0 0)">
        <path id="Path_212" data-name="Path 212" d="M662.739,120H616.984A2.984,2.984,0,0,0,614,122.984v19.894a2.984,2.984,0,0,0,2.984,2.984h45.755a2.984,2.984,0,0,0,2.984-2.984V122.984A2.984,2.984,0,0,0,662.739,120Zm.995,22.878a1,1,0,0,1-.995.995H616.984a1,1,0,0,1-.995-.995v-2.984h47.745Zm0-4.973H615.989v-9.947h47.745Zm0-11.936H615.989v-2.984a1,1,0,0,1,.995-.995h45.755a1,1,0,0,1,.995.995Z" transform="translate(-614 -120)" fill="#fff"/>
      </g>
    </g>
    <g id="Group_42" data-name="Group 42" transform="translate(598.91 94.963)">
      <g id="Group_41" data-name="Group 41" transform="translate(0 0)">
        <path id="Path_213" data-name="Path 213" d="M720.984,144h-1.989a.995.995,0,1,0,0,1.989h1.989a.995.995,0,1,0,0-1.989Z" transform="translate(-718 -144)" fill="#fff"/>
      </g>
    </g>
    <g id="Group_44" data-name="Group 44" transform="translate(620.792 94.963)">
      <g id="Group_43" data-name="Group 43" transform="translate(0 0)">
        <path id="Path_214" data-name="Path 214" d="M896.984,144h-1.989a.995.995,0,0,0,0,1.989h1.989a.995.995,0,0,0,0-1.989Z" transform="translate(-894 -144)" fill="#fff"/>
      </g>
    </g>
    <g id="Group_46" data-name="Group 46" transform="translate(598.91 112.867)">
      <g id="Group_45" data-name="Group 45" transform="translate(0)">
        <path id="Path_215" data-name="Path 215" d="M720.984,288h-1.989a.995.995,0,1,0,0,1.989h1.989a.995.995,0,1,0,0-1.989Z" transform="translate(-718 -288)" fill="#fff"/>
      </g>
    </g>
    <g id="Group_48" data-name="Group 48" transform="translate(620.792 112.867)">
      <g id="Group_47" data-name="Group 47" transform="translate(0)">
        <path id="Path_216" data-name="Path 216" d="M896.984,288h-1.989a.995.995,0,0,0,0,1.989h1.989a.995.995,0,0,0,0-1.989Z" transform="translate(-894 -288)" fill="#fff"/>
      </g>
    </g>
    <g id="Group_50" data-name="Group 50" transform="translate(610.837 103.915)">
      <g id="Group_49" data-name="Group 49" transform="translate(0 0)">
        <rect id="Rectangle_11" data-name="Rectangle 11" width="3.979" height="1.989" fill="#fff"/>
      </g>
    </g>
    <g id="Group_51" data-name="Group 51" transform="translate(590.757 102.278)">
      <path id="Path_217" data-name="Path 217" d="M908.264,208.938a.822.822,0,0,0-.649.417,2.269,2.269,0,0,0-.328,1.217,2.243,2.243,0,0,0,.328,1.21.833.833,0,0,0,.649.424.8.8,0,0,0,.636-.424,2.244,2.244,0,0,0,.328-1.21,2.27,2.27,0,0,0-.328-1.217A.794.794,0,0,0,908.264,208.938Z" transform="translate(-875.599 -208.179)" fill="none"/>
      <path id="Path_218" data-name="Path 218" d="M703.254,217.862h1.108l-.554-1.47Z" transform="translate(-696.935 -214.706)" fill="none"/>
      <path id="Path_219" data-name="Path 219" d="M965.444,208.94a.9.9,0,0,0-.9.9.9.9,0,1,0,1.8,0A.89.89,0,0,0,965.444,208.94Z" transform="translate(-925.735 -208.181)" fill="none"/>
      <path id="Path_220" data-name="Path 220" d="M655.68,205.247a.372.372,0,0,0-.369.369v2.817l-2.209-3.056a.376.376,0,0,0-.519-.082.369.369,0,0,0-.15.314v3.979a.373.373,0,1,0,.745,0v-2.838l2.188,3.036a.18.18,0,0,0,.034.041.371.371,0,0,0,.28.137.379.379,0,0,0,.376-.376v-3.973A.378.378,0,0,0,655.68,205.247Z" transform="translate(-652.431 -204.929)" fill="#fff"/>
      <path id="Path_221" data-name="Path 221" d="M694.721,205.136a.376.376,0,0,0-.362-.239.382.382,0,0,0-.362.239l-1.511,4.027a.388.388,0,0,0,.226.492.4.4,0,0,0,.13.021.384.384,0,0,0,.355-.239l.335-.889h1.661l.335.889a.383.383,0,0,0,.479.219.388.388,0,0,0,.226-.492Zm-.916,2.66.554-1.47.554,1.47Z" transform="translate(-687.486 -204.64)" fill="#fff"/>
      <path id="Path_222" data-name="Path 222" d="M725.142,204.843h-2.92a.371.371,0,0,0-.376.376.381.381,0,0,0,.376.383h1.08v3.651a.375.375,0,0,0,.376.376.371.371,0,0,0,.376-.376V205.6h1.087a.385.385,0,0,0,.376-.383A.375.375,0,0,0,725.142,204.843Z" transform="translate(-713.215 -204.593)" fill="#fff"/>
      <path id="Path_223" data-name="Path 223" d="M760.7,206.062a4.017,4.017,0,0,0-.943-.287h-.014a2.357,2.357,0,0,1-.855-.3.656.656,0,0,1-.184-.178.331.331,0,0,1-.048-.191.544.544,0,0,1,.26-.431,1.306,1.306,0,0,1,.766-.233,1.983,1.983,0,0,1,1.1.438.345.345,0,0,0,.485-.1.352.352,0,0,0-.1-.485,2.679,2.679,0,0,0-1.491-.547,2.022,2.022,0,0,0-1.183.362,1.263,1.263,0,0,0-.547,1,1.049,1.049,0,0,0,.157.561,1.469,1.469,0,0,0,.636.533,3.694,3.694,0,0,0,.882.267h.014a2.737,2.737,0,0,1,.937.321.645.645,0,0,1,.205.205.391.391,0,0,1,.062.219.615.615,0,0,1-.294.492,1.473,1.473,0,0,1-.855.253,2.23,2.23,0,0,1-1.306-.527.357.357,0,0,0-.5.048.364.364,0,0,0,.055.5,2.948,2.948,0,0,0,1.75.684,2.138,2.138,0,0,0,1.265-.39,1.323,1.323,0,0,0,.588-1.06,1.108,1.108,0,0,0-.164-.581A1.6,1.6,0,0,0,760.7,206.062Z" transform="translate(-744.716 -203.631)" fill="#fff"/>
      <path id="Path_224" data-name="Path 224" d="M871.115,204.476a1.615,1.615,0,0,0-.424-1.1,1.646,1.646,0,0,0-1.217-.54,1.615,1.615,0,0,0-1.1.424l-.212.191a.378.378,0,0,0-.027.533.372.372,0,0,0,.533.027l.212-.191a.9.9,0,0,1,.6-.226.868.868,0,0,1,.656.287.886.886,0,0,1,.226.595.857.857,0,0,1-.287.656l-2.024,1.832a.378.378,0,0,0-.021.533.368.368,0,0,0,.28.123h2.434a.371.371,0,0,0,.376-.376.377.377,0,0,0-.376-.383h-1.456l1.292-1.169A1.646,1.646,0,0,0,871.115,204.476Z" transform="translate(-841.131 -202.835)" fill="#fff"/>
      <path id="Path_225" data-name="Path 225" d="M902.919,202.835a1.541,1.541,0,0,0-1.272.759,3.1,3.1,0,0,0,0,3.268,1.439,1.439,0,0,0,2.537,0,3.144,3.144,0,0,0,0-3.268A1.548,1.548,0,0,0,902.919,202.835Zm.636,3.6a.8.8,0,0,1-.636.424.833.833,0,0,1-.65-.424,2.243,2.243,0,0,1-.328-1.21,2.269,2.269,0,0,1,.328-1.217.823.823,0,0,1,.65-.417.794.794,0,0,1,.636.417,2.27,2.27,0,0,1,.328,1.217A2.244,2.244,0,0,1,903.555,206.438Z" transform="translate(-870.254 -202.835)" fill="#fff"/>
      <path id="Path_226" data-name="Path 226" d="M940.074,203.109c-.007-.007-.007-.021-.014-.034s-.007-.021-.014-.034-.007-.014-.007-.021l-.007-.014-.027-.027a.093.093,0,0,0-.021-.027c-.007-.007-.014-.021-.027-.027s-.021-.014-.027-.02a.09.09,0,0,1-.027-.021c-.014,0-.021-.007-.041-.021a.041.041,0,0,0-.027-.007.074.074,0,0,0-.041-.014.04.04,0,0,1-.027-.007h-.075a.113.113,0,0,0-.048.007.041.041,0,0,0-.027.007c-.014,0-.027.007-.041.007s-.021.021-.034.021-.021.007-.027.014l-.841.5a.383.383,0,0,0,.2.7.342.342,0,0,0,.191-.055l.274-.157v3.364a.371.371,0,0,0,.376.376.381.381,0,0,0,.383-.376v-4.055a.058.058,0,0,1-.014-.048A.29.29,0,0,1,940.074,203.109Z" transform="translate(-902.923 -202.835)" fill="#fff"/>
      <path id="Path_227" data-name="Path 227" d="M961.753,204.333c-.007-.007-.007-.007-.007-.014a1.659,1.659,0,1,0-1.648,1.826,1.612,1.612,0,0,0,.656-.137,1.44,1.44,0,0,1-.089.178,1.394,1.394,0,0,1-.431.479,1.25,1.25,0,0,1-.643.191.4.4,0,0,0-.369.4.381.381,0,0,0,.4.362,1.959,1.959,0,0,0,1.026-.321,2.393,2.393,0,0,0,.882-1.169,4.006,4.006,0,0,0,.239-1.4C961.767,204.592,961.76,204.462,961.753,204.333Zm-1.654,1.06a.906.906,0,0,1-.9-.9.9.9,0,1,1,.9.9Z" transform="translate(-920.39 -202.835)" fill="#fff"/>
    </g>
  </g>
</svg>
