<?xml version="1.0" encoding="utf-8"?>
<!-- Generator: Adobe Illustrator 24.1.2, SVG Export Plug-In . SVG Version: 6.00 Build 0)  -->
<svg version="1.1" id="Layer_1" xmlns="http://www.w3.org/2000/svg" xmlns:xlink="http://www.w3.org/1999/xlink" x="0px" y="0px"
	 viewBox="0 0 512 512" style="enable-background:new 0 0 512 512;" xml:space="preserve">
<style type="text/css">
	.st0{fill:#FFFFFF;}
</style>
<g>
	<path class="st0" d="M256,512c-60.6,0-119.4-21.6-165.5-60.7c-10.8-9.2-21-19.4-30.2-30.3C21.4,374.9,0,316.3,0,256
		c0-68.4,26.6-132.7,75-181S187.6,0,256,0s132.7,26.6,181,75s75,112.6,75,181c0,60.3-21.4,118.9-60.3,165
		c-9.2,10.9-19.4,21.1-30.2,30.3C375.4,490.4,316.6,512,256,512L256,512z M256,32C132.5,32,32,132.5,32,256
		c0,52.8,18.7,104.1,52.7,144.4c8.1,9.5,17,18.5,26.5,26.5C151.5,461.1,203,480,256,480s104.5-18.9,144.8-53.1
		c9.5-8.1,18.4-17,26.5-26.5c34-40.3,52.7-91.5,52.7-144.4C480,132.5,379.5,32,256,32L256,32z"/>
	<path class="st0" d="M256,256c-52.9,0-96-43.1-96-96s43.1-96,96-96s96,43.1,96,96S308.9,256,256,256z M256,96
		c-35.3,0-64,28.7-64,64s28.7,64,64,64s64-28.7,64-64S291.3,96,256,96z"/>
	<path class="st0" d="M411.2,455.1c-1.3,0-2.6-0.2-3.9-0.5c-8.6-2.2-13.8-10.8-11.6-19.4c2.9-11.4,4.3-23.3,4.3-35.2
		c0-78.3-63.6-142.9-141.9-144l-2.1,0l-2.1,0C175.6,257.1,112,321.7,112,400c0,11.9,1.5,23.7,4.3,35.2c2.2,8.6-3.1,17.3-11.6,19.4
		s-17.3-3.1-19.4-11.6c-3.5-14-5.3-28.4-5.3-43c0-46.6,18-90.5,50.7-123.6c32.7-33.1,76.3-51.7,122.8-52.4c0.1,0,0.1,0,0.2,0l2.3,0
		l2.3,0c0.1,0,0.1,0,0.2,0c46.5,0.6,90.1,19.2,122.8,52.4C414,309.5,432,353.4,432,400c0,14.5-1.8,29-5.3,43
		C424.9,450.2,418.4,455.1,411.2,455.1z"/>
</g>
</svg>
