<?xml version="1.0" encoding="utf-8"?>
<!-- Generator: Adobe Illustrator 24.1.2, SVG Export Plug-In . SVG Version: 6.00 Build 0)  -->
<svg version="1.1" id="Capa_1" xmlns="http://www.w3.org/2000/svg" xmlns:xlink="http://www.w3.org/1999/xlink" x="0px" y="0px"
	 viewBox="0 0 512 512" style="enable-background:new 0 0 512 512;" xml:space="preserve">
<style type="text/css">
	.st0{fill:#FFFFFF;}
</style>
<g>
	<g>
		<path class="st0" d="M500.1,162.5c13.5-42.5,2.2-89.4-29.5-121.2c-33-33-80.1-42.6-121.3-29.5C308.6-9.3,259-1.6,226.7,30.7
			L30.7,226.7c-32.4,32.4-40,82-18.9,122.7c-13.1,41.3-3.4,88.4,29.5,121.3c31.6,31.6,78.5,43.1,121.2,29.5
			c38.8,20.3,89,14.9,122.8-18.9l195.9-195.9C515,251.5,520.5,201.4,500.1,162.5z M52,247.9L247.9,52c17.5-17.5,41.8-24.9,65-21.1
			c-4.2,3.2-8.2,6.7-11.9,10.5L41.4,300.9c-3.8,3.8-7.3,7.8-10.5,11.9C27.1,289.7,34.4,265.4,52,247.9z M132,475.6
			c-25.4,1.6-50.9-7.6-69.5-26.2c-35.1-35.1-35.1-92.2,0-127.3L322.1,62.6c35.2-35.2,92.1-35.2,127.3,0c18.6,18.6,27.8,44,26.2,69.5
			c-17.3-12.4-41.9-11.3-58,4.8L136.8,417.6c-8.5,8.5-13.2,19.8-13.2,31.8C123.6,458.9,126.6,468,132,475.6z M460,264.1L264.1,460
			c-29.2,29.2-76.8,29.2-106.1,0c-5.8-5.8-5.8-15.4,0-21.2L438.8,158c5.8-5.8,15.4-5.8,21.2,0C489.3,187.3,489.3,234.8,460,264.1z"
			/>
	</g>
</g>
<g>
	<g>
		<path class="st0" d="M361.2,68.9l-20.7,21.7c22.8,21.7,5.4,45.9-14.3,42c-35.6-7.1-67.2,24.2-60.1,60.1
			c2.9,14.7-9.9,27.7-24.8,24.8c-16.8-3.4-34,1.9-46.1,14c-12.1,12.1-17.3,29.3-14,46.1c2.9,14.7-10,27.7-24.8,24.8
			c-47.2-9.4-84.1,47.2-44.1,89.9l21.9-20.5c-19.6-20.9-2.9-43.8,16.3-40c35.7,7.1,67.2-24.3,60.1-60.1c-1.4-7,0.7-14,5.8-19
			c5.1-5.1,12-7.2,19-5.8c35.7,7.1,67.2-24.3,60.1-60.1c-2.9-14.7,9.9-27.7,24.8-24.8C369.4,171.8,405.8,111.4,361.2,68.9z"/>
	</g>
</g>
</svg>
