<?xml version="1.0" encoding="utf-8"?>
<!-- Generator: Adobe Illustrator 24.0.1, SVG Export Plug-In . SVG Version: 6.00 Build 0)  -->
<svg version="1.1" id="Layer_1" xmlns="http://www.w3.org/2000/svg" xmlns:xlink="http://www.w3.org/1999/xlink" x="0px" y="0px"
	 viewBox="0 0 11 7" enable-background="new 0 0 11 7" xml:space="preserve">
<g>
	<path fill="#FFFFFF" d="M7.94,0.58l2.73,2.72c0.11,0.11,0.11,0.29,0,0.4L7.94,6.42c-0.11,0.11-0.29,0.11-0.4,0L7.37,6.25
		c-0.11-0.11-0.11-0.29,0-0.4L9.34,3.9H0.53c-0.16,0-0.28-0.13-0.28-0.28V3.38c0-0.16,0.13-0.28,0.28-0.28h8.81L7.37,1.15
		c-0.11-0.11-0.11-0.29,0-0.4l0.17-0.17C7.65,0.47,7.83,0.47,7.94,0.58z"/>
</g>
</svg>
