<svg xmlns="http://www.w3.org/2000/svg" width="45" height="35.014" viewBox="0 0 45 35.014">
  <path id="Path_111" data-name="Path 111" d="M3517.067-841.824a3.713,3.713,0,0,0-.376,1.607,3.754,3.754,0,0,0,3.727,3.749l.012,0h.012l.012,0a3.754,3.754,0,0,0,3.727-3.749,3.708,3.708,0,0,0-.376-1.608l8.763-8.763,10-10a1.25,1.25,0,0,0,0-1.768,1.251,1.251,0,0,0-1.769,0L3539-860.552a21.27,21.27,0,0,0-18.552-10.926h-.018a21.271,21.271,0,0,0-18.552,10.926l-1.807-1.807a1.25,1.25,0,0,0-1.763.005,1.25,1.25,0,0,0-.005,1.763l10,10Zm4.246,2.493a1.244,1.244,0,0,1-1.755,0,1.244,1.244,0,0,1-.009-1.755l.013-.009.009-.014a1.225,1.225,0,0,1,1.727,0l.01.014.015.01A1.244,1.244,0,0,1,3521.313-839.331Zm.724-4.261a3.71,3.71,0,0,0-1.583-.373l-.012,0h-.012l-.012,0a3.71,3.71,0,0,0-1.583.373l-7.878-7.879,7.878-7.879a3.7,3.7,0,0,0,1.584.373l.011,0h.012l.011,0a3.7,3.7,0,0,0,1.584-.373l7.878,7.879Zm-1.6-25.385a18.719,18.719,0,0,1,16.708,10.279l-5.459,5.459-8.608-8.607-.007,0-.005-.007a1.2,1.2,0,0,0-.2-.131,1.267,1.267,0,0,0-.207-.133,1.217,1.217,0,0,0-.247-.048.676.676,0,0,0-.491.012,1.246,1.246,0,0,0-.2.042,1.265,1.265,0,0,0-.23.153,1.189,1.189,0,0,0-.177.118l0,.007-.007.005a1.212,1.212,0,0,1-.861.359,1.213,1.213,0,0,1-.861-.359l-.007,0,0-.007a1.191,1.191,0,0,0-.2-.13,1.282,1.282,0,0,0-.211-.14,1.226,1.226,0,0,0-.241-.05.644.644,0,0,0-.468,0,1.217,1.217,0,0,0-.23.045,1.272,1.272,0,0,0-.2.132,1.189,1.189,0,0,0-.206.133l-.005.007-.007,0-8.607,8.607-5.46-5.46A18.718,18.718,0,0,1,3520.437-868.978Z" transform="translate(-3497.939 871.479)" fill="#fff"/>
</svg>
