<?xml version="1.0" encoding="utf-8"?>
<!-- Generator: Adobe Illustrator 24.1.2, SVG Export Plug-In . SVG Version: 6.00 Build 0)  -->
<svg version="1.1" id="Capa_1" xmlns="http://www.w3.org/2000/svg" xmlns:xlink="http://www.w3.org/1999/xlink" x="0px" y="0px"
	 viewBox="0 0 512 512" style="enable-background:new 0 0 512 512;" xml:space="preserve">
<style type="text/css">
	.st0{fill:#FFFFFF;}
</style>
<g>
	<path class="st0" d="M436.8,75.2C388.3,26.7,324.1,0,256,0S123.7,26.7,75.2,75.2C26.7,123.7,0,187.9,0,256s26.7,132.3,75.2,180.8
		C123.7,485.3,187.9,512,256,512s132.3-26.7,180.8-75.2C485.3,388.3,512,324.1,512,256S485.3,123.7,436.8,75.2z M256,482
		C131.4,482,30,380.6,30,256S131.4,30,256,30s226,101.4,226,226S380.6,482,256,482z"/>
	<path class="st0" d="M301,210.8c0,8.3,6.7,15,15,15s15-6.7,15-15c0-16.6-8.6-32.6-23.6-43.8c-10.2-7.7-22.8-12.8-36.4-15v-16.2
		c0-8.3-6.7-15-15-15s-15,6.7-15,15V152c-13.6,2.2-26.2,7.3-36.4,15c-15,11.2-23.6,27.2-23.6,43.8s8.6,32.6,23.6,43.8
		c10.2,7.7,22.8,12.8,36.4,15v59.4c-17.3-4.2-30-15.4-30-28.2c0-8.3-6.7-15-15-15s-15,6.7-15,15c0,16.6,8.6,32.6,23.6,43.8
		c10.2,7.7,22.8,12.8,36.4,15V376c0,8.3,6.7,15,15,15s15-6.7,15-15v-16.3c13.6-2.2,26.2-7.3,36.4-15c15-11.2,23.6-27.2,23.6-43.8
		s-8.6-32.6-23.6-43.8c-10.2-7.7-22.8-12.8-36.4-15v-59.4C288.3,186.9,301,198.1,301,210.8L301,210.8z M211,210.8
		c0-12.8,12.7-24,30-28.2v56.4C223.7,234.8,211,223.6,211,210.8z M301,300.8c0,12.8-12.7,24-30,28.2v-56.4
		C288.3,276.9,301,288.1,301,300.8z"/>
</g>
</svg>
