<svg xmlns="http://www.w3.org/2000/svg" width="47.625" height="36.959" viewBox="0 0 47.625 36.959">
  <g id="icon" transform="translate(-461.986 -42.667)">
    <g id="_037---Baseball-Shirt" data-name="037---Baseball-Shirt" transform="translate(461.986 42.667)">
      <path id="Shape" d="M498.823,43.248a2.4,2.4,0,0,0-1.569-.581H474.34a2.4,2.4,0,0,0-1.567.579L462.546,52.01a1.617,1.617,0,0,0-.241,2.188l3.952,5.262a1.616,1.616,0,0,0,2.068.441l4.616-2.562V77.216a2.41,2.41,0,0,0,2.41,2.41h20.89a2.41,2.41,0,0,0,2.41-2.41V57.338l4.625,2.567a1.607,1.607,0,0,0,2.054-.439l3.963-5.276a1.612,1.612,0,0,0-.241-2.179ZM485.8,49.255l-3.32-4.981h6.64ZM467.542,58.5l-3.953-5.263,1.591-1.366,4.2,5.6Zm7.006,18.721v-24.1a.8.8,0,1,0-1.607,0V55.5L470.8,56.687l-4.4-5.865,7.418-6.357a.794.794,0,0,1,.519-.191h6.207l4.447,6.669V78.019h-9.641A.8.8,0,0,1,474.548,77.216Zm23.3-24.907a.8.8,0,0,0-.8.8v24.1a.8.8,0,0,1-.8.8H486.6V50.943l4.447-6.669h6.207a.8.8,0,0,1,.521.192l7.416,6.355-4.4,5.865L498.652,55.5V53.112a.8.8,0,0,0-.8-.8Zm6.207,6.191-1.848-1.024,4.2-5.607L508,53.235Z" transform="translate(-461.986 -42.667)" fill="#fff"/>
      <path id="Shape-2" data-name="Shape" d="M745.963,162.133h-3.749a1.738,1.738,0,0,0-1.741,1.731V168a1.727,1.727,0,0,0,.779,1.446l1.873,1.233a1.751,1.751,0,0,0,1.928,0l1.873-1.239A1.726,1.726,0,0,0,747.7,168v-4.135a1.738,1.738,0,0,0-1.74-1.731ZM746.1,168a.123.123,0,0,1-.057.1l-1.871,1.235a.142.142,0,0,1-.161,0l-1.874-1.235a.123.123,0,0,1-.055-.1v-4.14a.129.129,0,0,1,.134-.124h3.749a.129.129,0,0,1,.134.124Z" transform="translate(-714.252 -150.885)" fill="#fff"/>
      <circle id="Oval" cx="0.803" cy="0.803" r="0.803" transform="translate(19.793 8.838)" fill="#fff"/>
      <circle id="Oval-2" data-name="Oval" cx="0.803" cy="0.803" r="0.803" transform="translate(19.793 13.659)" fill="#fff"/>
      <circle id="Oval-3" data-name="Oval" cx="0.803" cy="0.803" r="0.803" transform="translate(19.793 18.479)" fill="#fff"/>
      <circle id="Oval-4" data-name="Oval" cx="0.803" cy="0.803" r="0.803" transform="translate(19.793 23.3)" fill="#fff"/>
      <circle id="Oval-5" data-name="Oval" cx="0.803" cy="0.803" r="0.803" transform="translate(19.793 28.121)" fill="#fff"/>
    </g>
  </g>
</svg>
