<svg xmlns="http://www.w3.org/2000/svg" width="22.352" height="20.828" viewBox="0 0 22.352 20.828">
  <g id="Group_24" data-name="Group 24" transform="translate(-590.158 105.512)">
    <path id="Path_109" data-name="Path 109" d="M599.346-102.656a6.34,6.34,0,0,0-6.333,6.333,6.34,6.34,0,0,0,6.333,6.333,6.34,6.34,0,0,0,6.333-6.333A6.34,6.34,0,0,0,599.346-102.656Z" fill="none"/>
    <path id="Path_110" data-name="Path 110" d="M611.353-84.88a.684.684,0,0,0,.963,0,.678.678,0,0,0-.006-.955l-5.336-5.341.294-.5a9.183,9.183,0,0,0,1.272-4.644,9.2,9.2,0,0,0-9.189-9.189,9.2,9.2,0,0,0-9.193,9.189,9.2,9.2,0,0,0,9.188,9.189,9.122,9.122,0,0,0,6.255-2.473l.531-.495Zm-12.007-3.61a7.842,7.842,0,0,1-7.833-7.833,7.842,7.842,0,0,1,7.833-7.833,7.841,7.841,0,0,1,7.833,7.833A7.841,7.841,0,0,1,599.346-88.49Z" fill="#fff"/>
  </g>
</svg>
