<?xml version="1.0" encoding="utf-8"?>
<!-- Generator: Adobe Illustrator 24.1.2, SVG Export Plug-In . SVG Version: 6.00 Build 0)  -->
<svg version="1.1" id="Capa_1" xmlns="http://www.w3.org/2000/svg" xmlns:xlink="http://www.w3.org/1999/xlink" x="0px" y="0px"
	 viewBox="0 0 512 512" style="enable-background:new 0 0 512 512;" xml:space="preserve">
<style type="text/css">
	.st0{fill:#FFFFFF;}
</style>
<g>
	<g>
		<path class="st0" d="M376.4,136c8.4-2.3,14.6-10.1,14.6-19.2c0-11-9-20-20-20s-20,9-20,20c0,5.5,2.2,10.5,5.8,14.1
			c-12.9-2.7-26.2-4.1-39.8-4.1c-46.9,0-92.2,16.9-127.6,47.5c-32.4,28.1-54.7,66-63.3,107.7L0,312.5v38l19.4,19.4
			c30.2,30.2,69.9,45.3,109.6,45.3s79.4-15.1,109.6-45.3l22.3-22.3c75.6,18,153.2,27.3,232,27.6l12.1,0l2.6-11.9
			c3-13.6,4.5-27.7,4.5-41.7C512,234.9,454.9,161.2,376.4,136z M217.4,348.7c-48.7,48.7-128,48.7-176.8,0L30,338.1v-2L138.1,310
			c29.3,11.1,58.9,20.7,89,29L217.4,348.7z M241,306.8c0,1.6,0,3.3,0.1,4.9c-28.6-7.7-57-16.7-84.9-27C164,250.8,182.5,220,209,197
			c28.5-24.7,64.6-38.8,102.2-40.1c-15.7,13.1-29.4,28.6-40.4,46.1C251.3,234.1,241,269.9,241,306.8z M480.4,345.1
			c-70.9-1.2-140.7-9.8-208.9-25.8c-0.3-4.2-0.5-8.4-0.5-12.6c0-31.2,8.7-61.5,25.2-87.8c15.1-24,36.1-43.7,61-57.3
			c71.6,18,124.8,82.9,124.8,160C482,329.6,481.4,337.4,480.4,345.1z"/>
	</g>
</g>
</svg>
