<?xml version="1.0" encoding="utf-8"?>
<!-- Generator: Adobe Illustrator 24.1.2, SVG Export Plug-In . SVG Version: 6.00 Build 0)  -->
<svg version="1.1" id="Capa_1" xmlns="http://www.w3.org/2000/svg" xmlns:xlink="http://www.w3.org/1999/xlink" x="0px" y="0px"
	 viewBox="0 0 479.6 479.6" style="enable-background:new 0 0 479.6 479.6;" xml:space="preserve">
<style type="text/css">
	.st0{fill:#FFFFFF;}
</style>
<g>
	<g>
		<path class="st0" d="M475.9,336.4c-0.4-2.8-1.1-5.6-2-8.3c-8.6-24-33.2-38.3-58.3-34.1c-8.3,1.3-16.1-4.4-17.4-12.7l-12.6-80.9
			C375.1,132,325.6,75.9,259,57.1c-6.1-37.1-41-62.2-78.1-56.2c-36.6,6-61.7,40.2-56.4,76.9C67,114.1,36.7,181.1,47.3,248.3
			l13.6,86.1c1.2,8.3-4.4,16.1-12.7,17.4C23,355.4,4,376.7,3.1,402.1c-0.3,28.3,22.4,51.4,50.7,51.7c0.2,0,0.4,0,0.5,0
			c2.7,0,5.3-0.2,8-0.6l52.5-8.3c18.3,32.6,59.5,44.3,92.2,26c17.2-9.7,29.4-26.3,33.3-45.7l192.9-30.4
			C461.2,390.5,480.2,364.3,475.9,336.4z M186.8,36.3c1.8-0.3,3.6-0.4,5.4-0.4c11.4,0.1,22.1,5.8,28.4,15.4h-0.8
			c-6.4-0.2-12.7,0-19.1,0.5c-6.7,0.6-13.3,1.7-19.9,3.1c-1.4,0.3-2.8,0.7-4.2,1c-5.4,1.3-10.6,2.7-15.8,4.5c-0.5,0.2-1,0.2-1.6,0.4
			C162.8,48,173.6,38.4,186.8,36.3z M173.8,445.5c-7.2,0-14.3-2.3-20.1-6.6l47.8-7.5C195.1,440.3,184.8,445.5,173.8,445.5z
			 M439.8,353.2c-2.6,4.3-7,7.2-11.9,8l-205.6,32.3l-99.9,15.7l-65.4,10.2c-5,0.8-10-0.6-13.8-3.9c-3.9-3.3-6.1-8.1-6-13.2
			c0.7-8.8,7.5-15.8,16.2-16.8c26.9-4.3,45.2-29.5,41.1-56.4L81.1,243c-8.9-56.8,18.7-113.1,69.1-140.9c0.3-0.1,0.6-0.2,0.9-0.3
			c16.3-8.8,34.3-14.3,52.8-15.9c5.6-0.5,11.2-0.6,16.9-0.3l2.8,0.1c5.8,0.4,11.6,1.1,17.3,2.2c0.2,0,0.4,0,0.5,0
			c57.7,12.5,101.7,59.5,110.3,117.9l12.7,80.9c4.2,26.9,29.5,45.3,56.4,41.1c8.6-1.7,17.2,2.9,20.6,11
			C443.1,343.5,442.5,348.9,439.8,353.2z"/>
	</g>
</g>
</svg>
