<svg xmlns="http://www.w3.org/2000/svg" width="42.56" height="33.904" viewBox="0 0 42.56 33.904">
  <path id="Path_108" data-name="Path 108" d="M593.889,61.115V49.729l.473-.142c1.817-.545,2.2-1.468,2.2-2.147s-.382-1.6-2.2-2.147l-15.548-4.664a14.239,14.239,0,0,0-7.068,0L556.2,45.294c-1.817.545-2.2,1.468-2.2,2.147s.381,1.6,2.2,2.147l5.815,1.744v6.125c0,1.167.759,2.811,4.373,4.016a32.579,32.579,0,0,0,17.787,0c3.614-1.2,4.373-2.849,4.373-4.016V51.332l2.849-.855V61.115a3.924,3.924,0,0,0-2.671,3.713V70.17a3.918,3.918,0,1,0,7.836,0V64.828a3.924,3.924,0,0,0-2.671-3.713Zm-21.426-18.1a11.829,11.829,0,0,1,5.634,0l14.742,4.423-5.9,1.771-.01,0L578.1,51.863a11.833,11.833,0,0,1-5.634,0l-8.828-2.648-.01,0-5.9-1.771Zm13.59,14.439c0,.161-.453.912-2.668,1.65a30.157,30.157,0,0,1-16.21,0c-2.215-.738-2.668-1.49-2.668-1.65V52.08l7.239,2.172a14.239,14.239,0,0,0,7.068,0l7.239-2.172Zm8.013,12.713a1.424,1.424,0,0,1-2.848,0V64.828a1.424,1.424,0,1,1,2.848,0Z" transform="translate(-554 -40.184)" fill="#fff"/>
</svg>
