<?xml version="1.0" encoding="utf-8"?>
<!-- Generator: Adobe Illustrator 24.0.3, SVG Export Plug-In . SVG Version: 6.00 Build 0)  -->
<!DOCTYPE svg PUBLIC "-//W3C//DTD SVG 1.1//EN" "http://www.w3.org/Graphics/SVG/1.1/DTD/svg11.dtd" [
	<!ENTITY ns_extend "http://ns.adobe.com/Extensibility/1.0/">
	<!ENTITY ns_ai "http://ns.adobe.com/AdobeIllustrator/10.0/">
	<!ENTITY ns_graphs "http://ns.adobe.com/Graphs/1.0/">
	<!ENTITY ns_vars "http://ns.adobe.com/Variables/1.0/">
	<!ENTITY ns_imrep "http://ns.adobe.com/ImageReplacement/1.0/">
	<!ENTITY ns_sfw "http://ns.adobe.com/SaveForWeb/1.0/">
	<!ENTITY ns_custom "http://ns.adobe.com/GenericCustomNamespace/1.0/">
	<!ENTITY ns_adobe_xpath "http://ns.adobe.com/XPath/1.0/">
]>
<svg version="1.1" id="Layer_1" xmlns:x="&ns_extend;" xmlns:i="&ns_ai;" xmlns:graph="&ns_graphs;"
	 xmlns="http://www.w3.org/2000/svg" xmlns:xlink="http://www.w3.org/1999/xlink" x="0px" y="0px" viewBox="0 0 25 25"
	 enable-background="new 0 0 25 25" xml:space="preserve">
<metadata>
	<sfw  xmlns="&ns_sfw;">
		<slices></slices>
		<sliceSourceBounds  bottomLeftOrigin="true" height="25" width="25" x="0" y="-25"></sliceSourceBounds>
	</sfw>
</metadata>
<g transform="translate(0 -0.005)">
	<path fill="#FFFFFF" d="M25,9.9L25,9.9C25,9.9,25,9.9,25,9.9C25,9.9,25,9.8,25,9.9c0-0.1,0-0.1,0-0.1v0c0,0,0,0,0-0.1v0
		c0,0,0,0,0-0.1l0,0l0,0l0,0c0,0,0,0,0-0.1l0,0l0,0l0,0c0,0,0,0,0,0l0,0c0,0,0,0,0,0l0,0l-1.3-1V5.1c0-0.9-0.8-1.7-1.7-1.7h-4.2
		l-3.4-2.8c-1-0.8-2.4-0.8-3.4,0L7.4,3.4H3.2c-0.9,0-1.7,0.8-1.7,1.7v3.2l-1.2,1l0,0c0,0,0,0,0,0l0,0c0,0,0,0,0,0l0,0l0,0l0,0
		c0,0,0,0,0,0.1l0,0l0,0l0,0c0,0,0,0,0,0.1v0c0,0,0,0,0,0.1v0c0,0,0,0,0,0c0,0,0,0,0,0c0,0,0,0,0,0.1l0,0h0v12.4
		c0,0.7,0.3,1.4,0.8,2c0,0,0,0,0,0C1.4,24.8,2,25,2.7,25h19.6c0.7,0,1.3-0.2,1.8-0.7c0,0,0,0,0,0c0.5-0.5,0.8-1.2,0.8-2L25,9.9
		L25,9.9L25,9.9z M3.2,4.9h18.6C21.9,4.9,22,5,22,5.1v5.7l-0.4,0.3l-8.3,6.9c-0.5,0.4-1.1,0.4-1.6,0l-8.3-6.9L3,10.8V5.1
		C3,5,3.1,4.9,3.2,4.9L3.2,4.9L3.2,4.9z M1.5,22.3V11.5l0.3,0.3l0,0l7.2,5.9l-7.4,5.1C1.5,22.6,1.5,22.5,1.5,22.3z M10.1,18.6
		l0.7,0.6c1,0.8,2.4,0.8,3.4,0l0.7-0.6l7.1,4.9H3L10.1,18.6z M16.1,17.7l7.2-5.9l0,0l0.3-0.3v10.8c0,0.1,0,0.3-0.1,0.4L16.1,17.7z
		 M11.7,1.8c0.5-0.4,1.1-0.4,1.6,0l2,1.7H9.7L11.7,1.8z"/>
	<path fill="#FFFFFF" d="M6.4,8.1c0,0.4,0.3,0.7,0.7,0.7h6.9c0.4,0,0.7-0.3,0.7-0.7c0-0.4-0.3-0.7-0.7-0.7H7.2
		C6.7,7.3,6.4,7.7,6.4,8.1z"/>
	<path fill="#FFFFFF" d="M7.2,11.7h10.7c0.4,0,0.7-0.3,0.7-0.7c0-0.4-0.3-0.7-0.7-0.7c0,0,0,0,0,0H7.2c-0.4,0-0.7,0.3-0.7,0.7
		C6.4,11.4,6.7,11.7,7.2,11.7z"/>
</g>
</svg>
