<svg xmlns="http://www.w3.org/2000/svg" width="35.225" height="35.301" viewBox="0 0 35.225 35.301">
  <g id="icon" transform="translate(-0.552)">
    <path id="Path_1" data-name="Path 1" d="M34.629,3.6H27.9V1.148a1.148,1.148,0,0,0-2.3,0V3.6H10.783V1.148a1.148,1.148,0,0,0-2.3,0V3.6H1.7A1.148,1.148,0,0,0,.552,4.752v29.4A1.148,1.148,0,0,0,1.7,35.3H34.629a1.148,1.148,0,0,0,1.148-1.148V4.752A1.148,1.148,0,0,0,34.629,3.6ZM2.848,33.005V5.9h5.64V8.071a1.148,1.148,0,1,0,2.3,0V5.9h6.233V33.005Zm30.634,0H19.312V5.9H25.6V8.071a1.148,1.148,0,1,0,2.3,0V5.9h5.584V33.005Z" fill="#fff"/>
    <path id="Path_2" data-name="Path 2" d="M110.757,214.756a1.114,1.114,0,0,1-1.114-1.114v-8.218a1.115,1.115,0,0,1-.554-2.035l1.044-.7a1.114,1.114,0,0,1,1.736.923v10.034a1.114,1.114,0,0,1-1.114,1.114Z" transform="translate(-100.599 -188.532)" fill="#fff"/>
    <path id="Path_3" data-name="Path 3" d="M326.343,213.987c-.171,0,.995.011-4.692-.05a2.394,2.394,0,0,1-1.164-4.472c3.778-2.163,3.49-2,3.587-2.043a1.858,1.858,0,0,0,.966-2.536,1.882,1.882,0,0,0-2.2-.966l-2.285,1.059a1.114,1.114,0,0,1-.936-2.021c2.551-1.182,2.378-1.105,2.463-1.133a4.086,4.086,0,0,1,2.913,7.628l-3.4,1.945a.167.167,0,0,0,.081.312l4.68.05a1.114,1.114,0,0,1-.012,2.227Z" transform="translate(-296.465 -187.709)" fill="#fff"/>
  </g>
</svg>
