<?xml version="1.0" encoding="utf-8"?>
<!-- Generator: Adobe Illustrator 24.0.3, SVG Export Plug-In . SVG Version: 6.00 Build 0)  -->
<!DOCTYPE svg PUBLIC "-//W3C//DTD SVG 1.1//EN" "http://www.w3.org/Graphics/SVG/1.1/DTD/svg11.dtd" [
	<!ENTITY ns_extend "http://ns.adobe.com/Extensibility/1.0/">
	<!ENTITY ns_ai "http://ns.adobe.com/AdobeIllustrator/10.0/">
	<!ENTITY ns_graphs "http://ns.adobe.com/Graphs/1.0/">
	<!ENTITY ns_vars "http://ns.adobe.com/Variables/1.0/">
	<!ENTITY ns_imrep "http://ns.adobe.com/ImageReplacement/1.0/">
	<!ENTITY ns_sfw "http://ns.adobe.com/SaveForWeb/1.0/">
	<!ENTITY ns_custom "http://ns.adobe.com/GenericCustomNamespace/1.0/">
	<!ENTITY ns_adobe_xpath "http://ns.adobe.com/XPath/1.0/">
]>
<svg version="1.1" id="Layer_1" xmlns:x="&ns_extend;" xmlns:i="&ns_ai;" xmlns:graph="&ns_graphs;"
	 xmlns="http://www.w3.org/2000/svg" xmlns:xlink="http://www.w3.org/1999/xlink" x="0px" y="0px" viewBox="0 0 30 30"
	 enable-background="new 0 0 30 30" xml:space="preserve">
<metadata>
	<sfw  xmlns="&ns_sfw;">
		<slices></slices>
		<sliceSourceBounds  bottomLeftOrigin="true" height="30" width="30" x="0" y="-30"></sliceSourceBounds>
	</sfw>
</metadata>
<g transform="translate(-0.057)">
	<g transform="translate(5.862)">
		<path fill="#FFFFFF" d="M17.8,1.7c-1.8-2.1-5-2.3-7.1-0.4c-0.3,0.3-0.6,0.6-0.9,1C9.7,2.4,9.7,2.5,9.6,2.6
			C9.5,2.5,9.5,2.4,9.4,2.3c-1.5-2.3-4.6-3-6.9-1.4c-0.4,0.2-0.7,0.5-1,0.9C0.5,2.8,0,4.2,0,5.6C0.1,7.4,0.8,9,2,10.3
			c1.5,1.6,3.1,3.1,4.8,4.4C7.5,15.3,8.2,16,9,16.7c0.3,0.3,0.8,0.3,1.2,0c0.8-0.7,1.5-1.3,2.3-1.9c1.3-1.1,2.3-2,3.3-2.8
			c1.8-1.7,3.5-3.7,3.5-6.3C19.2,4.2,18.7,2.8,17.8,1.7z M14.5,10.6c-0.9,0.9-2,1.7-3.2,2.8c-0.5,0.5-1.1,0.9-1.7,1.4
			c-0.6-0.5-1.1-1-1.7-1.4c-3.8-3.2-6.1-5.2-6.1-7.8c-0.1-2,1.3-3.7,3.3-3.8c0.1,0,0.1,0,0.2,0c1.1,0,2.1,0.6,2.7,1.5
			c0.4,0.5,0.7,1.1,0.8,1.7c0.1,0.5,0.6,0.7,1.1,0.6c0.3-0.1,0.5-0.3,0.6-0.6c0,0,0.9-3.1,3.5-3.1c2,0.1,3.5,1.7,3.5,3.7
			c0,0.1,0,0.1,0,0.2C17.4,7.2,16.6,8.6,14.5,10.6z"/>
	</g>
	<g transform="translate(0.057 17.362)">
		<path fill="#FFFFFF" d="M27.4,0.3c-0.7,0-1.4,0.3-1.9,0.8l-2.6,2.8c-0.3-1.1-1.4-1.9-2.5-1.9h-4.1c-0.6,0-1.1-0.2-1.5-0.6
			c-2.3-2-5.7-2-8.1-0.1C6.2,0.8,5.4,0.3,4.5,0.3H0.9C0.4,0.3,0,0.7,0,1.2c0,0,0,0,0,0v10.5c0,0.5,0.4,0.9,0.9,0.9c0,0,0,0,0,0h3.6
			c0.8,0,1.5-0.3,2-0.9L7,11.9c1.8,0.5,3.6,0.8,5.5,0.8h7.8c1.9,0,3.8-0.9,4.9-2.5l4.2-5.6l0,0c0.9-1.2,0.6-2.8-0.5-3.7
			C28.5,0.5,27.9,0.3,27.4,0.3L27.4,0.3z M5.4,10c0,0.5-0.4,0.9-0.9,0.9H1.8V2.1h2.8C5,2.1,5.4,2.5,5.4,3V10z M28.1,3.5L28.1,3.5
			l-4.2,5.6c-0.8,1.1-2.1,1.8-3.5,1.8h-7.8c-1.7,0-3.4-0.2-5-0.7l-0.3-0.1c0,0,0-0.1,0-0.1V3.4l0.6-0.5c1.7-1.5,4.1-1.5,5.8,0
			c0.7,0.7,1.7,1,2.7,1h4.1c0.5,0,0.9,0.4,0.9,0.8c0,0.5-0.4,0.9-0.8,0.9c0,0,0,0-0.1,0h-6.2c-0.5,0-0.9,0.4-0.8,0.9
			c0,0.5,0.4,0.8,0.8,0.8h6.8c0.7,0,1.4-0.3,1.9-0.8l3.9-4.2c0.2-0.2,0.4-0.3,0.6-0.3c0.5,0,0.9,0.4,0.9,0.9
			C28.2,3.2,28.2,3.3,28.1,3.5L28.1,3.5z"/>
	</g>
</g>
</svg>
