<?xml version="1.0" encoding="utf-8"?>
<!-- Generator: Adobe Illustrator 24.0.3, SVG Export Plug-In . SVG Version: 6.00 Build 0)  -->
<!DOCTYPE svg PUBLIC "-//W3C//DTD SVG 1.1//EN" "http://www.w3.org/Graphics/SVG/1.1/DTD/svg11.dtd" [
	<!ENTITY ns_extend "http://ns.adobe.com/Extensibility/1.0/">
	<!ENTITY ns_ai "http://ns.adobe.com/AdobeIllustrator/10.0/">
	<!ENTITY ns_graphs "http://ns.adobe.com/Graphs/1.0/">
	<!ENTITY ns_vars "http://ns.adobe.com/Variables/1.0/">
	<!ENTITY ns_imrep "http://ns.adobe.com/ImageReplacement/1.0/">
	<!ENTITY ns_sfw "http://ns.adobe.com/SaveForWeb/1.0/">
	<!ENTITY ns_custom "http://ns.adobe.com/GenericCustomNamespace/1.0/">
	<!ENTITY ns_adobe_xpath "http://ns.adobe.com/XPath/1.0/">
]>
<svg version="1.1" id="Layer_1" xmlns:x="&ns_extend;" xmlns:i="&ns_ai;" xmlns:graph="&ns_graphs;"
	 xmlns="http://www.w3.org/2000/svg" xmlns:xlink="http://www.w3.org/1999/xlink" x="0px" y="0px" viewBox="0 0 92 91"
	 enable-background="new 0 0 92 91" xml:space="preserve">
<metadata>
	<sfw  xmlns="&ns_sfw;">
		<slices></slices>
		<sliceSourceBounds  bottomLeftOrigin="true" height="91" width="92" x="0" y="-91"></sliceSourceBounds>
	</sfw>
</metadata>
<g>
	<path fill="#FFFFFF" d="M72.8,22.4c0,0,0.1,0,0.1,0C72.9,22.4,72.9,22.4,72.8,22.4z"/>
	<path fill="#FFFFFF" d="M73.1,22.4C73.1,22.4,73,22.4,73.1,22.4C73.1,22.4,73.1,22.4,73.1,22.4C73.1,22.4,73.1,22.4,73.1,22.4z"/>
	<path fill="#FFFFFF" d="M73.4,22.4C73.5,22.4,73.5,22.4,73.4,22.4C73.5,22.4,73.5,22.4,73.4,22.4z"/>
	<path fill="#FFFFFF" d="M73.7,22.4C73.7,22.4,73.7,22.4,73.7,22.4C73.7,22.4,73.7,22.4,73.7,22.4z"/>
	<path fill="#FFFFFF" d="M72.6,22.4c0.1,0,0.1,0,0.2,0C72.7,22.4,72.7,22.4,72.6,22.4z"/>
	<path fill="#FFFFFF" d="M72.1,22.5c0,0,0.1,0,0.1,0C72.2,22.5,72.2,22.5,72.1,22.5z"/>
	<path fill="#FFFFFF" d="M72.5,22.4c0,0,0.1,0,0.1,0C72.6,22.4,72.5,22.4,72.5,22.4z"/>
	<path fill="#FFFFFF" d="M71.9,22.5c0.1,0,0.1,0,0.2,0C72,22.5,72,22.5,71.9,22.5z"/>
	<path fill="#FFFFFF" d="M73.9,22.5C73.9,22.5,73.9,22.5,73.9,22.5C73.9,22.5,73.9,22.5,73.9,22.5z"/>
	<path fill="#FFFFFF" d="M72.3,22.4c0,0,0.1,0,0.1,0C72.4,22.4,72.3,22.4,72.3,22.4z"/>
	<path fill="#FFFFFF" d="M73.2,22.4C73.3,22.4,73.3,22.4,73.2,22.4C73.3,22.4,73.3,22.4,73.2,22.4z"/>
	<path fill="#FFFFFF" d="M77.2,24.9c0.1,0.2,0.3,0.4,0.4,0.7C77.5,25.4,77.4,25.2,77.2,24.9c-0.5-0.8-1.2-1.5-2-1.9
		C76,23.5,76.7,24.1,77.2,24.9z"/>
	<path fill="#FFFFFF" d="M75,22.9c-0.1-0.1-0.2-0.1-0.3-0.1c0,0,0,0,0,0c0,0,0,0,0,0C74.8,22.8,74.9,22.8,75,22.9z"/>
	<path fill="#FFFFFF" d="M79.1,29.9c0.1,0.3,0.1,0.6,0.1,0.9C79.2,30.5,79.1,30.2,79.1,29.9z"/>
	<path fill="#FFFFFF" d="M79.3,31.9c0-0.2,0-0.4-0.1-0.6c0-0.1,0-0.3-0.1-0.4c0,0.1,0,0.3,0.1,0.4C79.3,31.5,79.3,31.7,79.3,31.9z"
		/>
	<path fill="#FFFFFF" d="M74.5,22.6C74.5,22.6,74.5,22.7,74.5,22.6C74.5,22.7,74.5,22.6,74.5,22.6z"/>
	<path fill="#FFFFFF" d="M79,29.4c0,0.2,0.1,0.3,0.1,0.5C79,29.8,79,29.6,79,29.4z"/>
	<path fill="#FFFFFF" d="M74.3,22.6C74.3,22.6,74.3,22.6,74.3,22.6C74.3,22.6,74.3,22.6,74.3,22.6z"/>
	<path fill="#FFFFFF" d="M74.1,22.5C74.1,22.5,74.1,22.5,74.1,22.5C74.1,22.5,74.1,22.5,74.1,22.5z"/>
	<path fill="#FFFFFF" d="M80.9,34.9c0-1.3-0.1-2.6-0.2-3.8c-0.2-1.4-0.4-2.6-0.8-3.7c-0.4-1.2-0.9-2.3-1.5-3.2
		c-0.8-1.2-1.8-2.1-3.1-2.7c-0.7-0.3-1.5-0.5-2.3-0.5c-0.5,0-1.1,0.1-1.6,0.3c-0.9,0.3-1.7,0.8-2.3,1.4c-0.1,0.1-0.2,0.2-0.2,0.3
		L45.9,0L8,37.8l46.1,45.9L92,45.9L80.9,34.9z M71.2,22.9c0.2-0.1,0.5-0.2,0.7-0.3c0.1,0,0.1,0,0.2,0c0,0,0,0,0.1,0c0,0,0.1,0,0.1,0
		c0,0,0,0,0.1,0c0,0,0.1,0,0.1,0c0,0,0,0,0.1,0c0,0,0.1,0,0.1,0c0,0,0,0,0,0c0.1,0,0.1,0,0.2,0c0,0,0,0,0,0c0,0,0.1,0,0.1,0
		c0,0,0,0,0.1,0c0,0,0,0,0,0c0,0,0,0,0,0c0,0,0.1,0,0.1,0c0,0,0,0,0.1,0c0,0,0.1,0,0.1,0c0,0,0,0,0.1,0c0.1,0,0.1,0,0.2,0
		c0,0,0,0,0,0c0.1,0,0.1,0,0.2,0c0,0,0,0,0.1,0c0,0,0.1,0,0.1,0c0,0,0,0,0.1,0c0,0,0.1,0,0.1,0c0,0,0,0,0.1,0c0,0,0.1,0,0.1,0
		c0,0,0,0,0.1,0c0.1,0,0.1,0.1,0.2,0.1c0,0,0,0,0,0c0.1,0,0.2,0.1,0.3,0.1c0.1,0,0.1,0.1,0.2,0.1c0.8,0.5,1.5,1.1,2,1.9
		c0.1,0.2,0.3,0.4,0.4,0.7c0.1,0.1,0.1,0.2,0.2,0.4c0.3,0.6,0.5,1.2,0.7,1.8c0.2,0.5,0.3,1.1,0.4,1.6c0,0.2,0.1,0.3,0.1,0.5
		c0.1,0.3,0.1,0.6,0.1,0.9c0,0.1,0,0.3,0.1,0.4c0,0.2,0,0.4,0.1,0.6c0.1,0.8,0.1,1.6,0.1,2.5c0,0.6,0,1.2,0,1.9c0,0.2,0,0.5,0,0.7
		c0,0.5-0.1,1-0.1,1.5c0,0.3-0.1,0.5-0.1,0.8c-0.2,1.6-0.6,3.3-1,4.9c-0.6,2.2-1.4,4.3-2.5,6.4c-0.4,0.8-0.9,1.6-1.4,2.4
		c-0.3,0.5-0.7,0.9-1,1.3c-0.1,0.1-0.2,0.3-0.3,0.4c-0.2,0.2-0.3,0.4-0.5,0.6c-0.2,0.2-0.5,0.5-0.8,0.7c-0.3,0.3-0.7,0.5-1,0.8
		c-0.1,0.1-0.3,0.2-0.4,0.3c-1,0.6-2.1,1.1-3.3,1.2c0,0,0,0,0,0c-0.1,0-0.2,0-0.3,0c0,0-0.1,0-0.1,0c-0.1,0-0.1,0-0.2,0
		c0,0-0.1,0-0.1,0c-0.1,0-0.1,0-0.2,0c0,0-0.1,0-0.1,0c-0.1,0-0.1,0-0.2,0c-0.1,0-0.1,0-0.2,0c0,0,0,0-0.1,0c-0.1,0-0.2,0-0.2,0
		c0,0,0,0,0,0c-0.1,0-0.1,0-0.2,0c0,0,0,0-0.1,0c-0.1,0-0.1,0-0.2,0c0,0,0,0,0,0c-0.1,0-0.2,0-0.2,0c0,0,0,0-0.1,0
		c-0.1,0-0.1,0-0.2,0c0,0,0,0-0.1,0c-0.1,0-0.2,0-0.2-0.1c0,0,0,0,0,0c-0.1,0-0.1,0-0.2-0.1c0,0,0,0-0.1,0c-0.1,0-0.1,0-0.2-0.1
		c0,0,0,0,0,0c-0.1,0-0.2-0.1-0.2-0.1c0,0,0,0-0.1,0c-0.1,0-0.1,0-0.2-0.1c0,0,0,0-0.1,0c-0.1,0-0.2-0.1-0.2-0.1
		c-0.1,0-0.2-0.1-0.3-0.1c-0.1-0.1-0.2-0.1-0.3-0.2c0,0.1-0.1,0.1-0.1,0.2c-0.6,0.9-1.4,1.7-2.2,2.4c-0.2,0.1-0.4,0.3-0.6,0.4
		c-0.2,0.1-0.4,0.3-0.6,0.4c-0.3,0.2-0.6,0.4-1,0.5c-0.1,0.1-0.2,0.1-0.3,0.1c-0.2,0.1-0.5,0.2-0.7,0.2c-0.1,0-0.2,0.1-0.4,0.1
		c-0.5,0.1-1,0.2-1.4,0.3c0,0,0,0,0,0c-0.1,0-0.2,0-0.4,0c0,0-0.1,0-0.1,0c-0.1,0-0.2,0-0.3,0c0,0-0.1,0-0.1,0c-0.1,0-0.2,0-0.4,0
		c0,0,0,0,0,0c-0.1,0-0.2,0-0.4,0c0,0-0.1,0-0.1,0c-0.1,0-0.2,0-0.4,0c0,0,0,0-0.1,0c-0.1,0-0.2,0-0.3,0c0,0,0,0-0.1,0
		c-0.1,0-0.2,0-0.4,0c0,0-0.1,0-0.1,0c-0.1,0-0.2,0-0.4-0.1c-0.2,0-0.5-0.1-0.7-0.2c-0.2,0-0.3-0.1-0.5-0.2c-0.5-0.2-1-0.5-1.5-0.9
		c-0.3-0.2-0.5-0.4-0.8-0.7c-0.5-0.5-1-1.2-1.3-1.8c0,0,0-0.1-0.1-0.1c0-0.1-0.1-0.2-0.1-0.2c-0.1-0.2-0.2-0.3-0.2-0.5
		c-0.1-0.2-0.2-0.4-0.2-0.6c-0.1-0.2-0.2-0.5-0.2-0.7c0-0.2-0.1-0.3-0.1-0.5c0-0.1,0-0.2-0.1-0.2c0-0.2-0.1-0.3-0.1-0.5
		c0-0.1,0-0.2,0-0.2c0-0.1,0-0.2,0-0.2c-0.1-0.3-0.1-0.6-0.1-0.9c0-0.2,0-0.3,0-0.5c0-0.5,0-0.9,0-1.4c0-0.3,0-0.6,0-0.9
		c0-0.6,0.1-1.2,0.2-1.8c0-0.2,0.1-0.4,0.1-0.6c0-0.1,0-0.3,0.1-0.4c0-0.1,0-0.2,0.1-0.3c0.1-0.3,0.1-0.5,0.2-0.8
		c0.1-0.5,0.3-1.1,0.5-1.6c0.2-0.5,0.3-1,0.5-1.5c0.1-0.2,0.2-0.5,0.3-0.7c0.5-1.2,0.9-2.4,1.5-3.6c0.6-1.5,1.3-3,2.1-4.5
		c0-0.1,0.1-0.1,0.1-0.2c0-0.1,0.1-0.1,0.1-0.2c-0.1,0-0.2,0-0.3,0c-0.1,0-0.2,0-0.3,0c-0.4,0.1-0.9,0.2-1.3,0.3
		c-0.2,0.1-0.4,0.1-0.5,0.2c-0.4,0.1-0.7,0.3-1,0.5c-0.8,0.5-1.5,1.1-2.1,1.9c0,0-0.1,0.1-0.1,0.1c0,0-0.1,0.1-0.1,0.1
		c-0.1,0.1-0.1,0.2-0.2,0.3c0.1,0,0.1,0.1,0.2,0.1c0.4,0.2,0.8,0.5,1.1,0.8c0.1,0.1,0.2,0.2,0.2,0.3c0.1,0.2,0.3,0.4,0.4,0.6
		c0.1,0.2,0.1,0.4,0.2,0.6c0.1,0.2,0.1,0.5,0.1,0.7c0,0,0,0.1,0,0.1c0,0.1,0,0.1,0,0.2c0,0.1,0,0.2-0.1,0.4
		c-0.1,0.2-0.1,0.4-0.2,0.6c-0.1,0.1-0.1,0.2-0.2,0.3c0,0-0.1,0.1-0.1,0.1c-0.1,0.1-0.2,0.2-0.3,0.3c-0.2,0.2-0.4,0.4-0.7,0.5
		c-0.1,0-0.1,0.1-0.2,0.1c0,0,0,0-0.1,0c0,0-0.1,0-0.1,0c0,0,0,0-0.1,0c0,0-0.1,0-0.1,0c0,0,0,0-0.1,0c0,0-0.1,0-0.1,0
		c0,0,0,0-0.1,0c0,0-0.1,0-0.1,0c0,0-0.1,0-0.1,0c0,0-0.1,0-0.1,0c0,0-0.1,0-0.1,0c0,0-0.1,0-0.1,0c0,0-0.1,0-0.1,0c0,0-0.1,0-0.1,0
		c0,0-0.1,0-0.1,0c0,0,0,0-0.1,0c0,0-0.1,0-0.1,0c0,0,0,0-0.1,0c0,0-0.1,0-0.1,0c0,0,0,0-0.1,0c0,0-0.1,0-0.1,0c0,0,0,0-0.1,0
		c0,0-0.1,0-0.1,0c0,0,0,0-0.1,0c0,0-0.1,0-0.1,0c0,0,0,0-0.1,0c0,0-0.1,0-0.1,0c0,0,0,0-0.1,0c-0.1,0-0.1,0-0.2-0.1
		c0,0-0.1,0-0.1-0.1c-0.2-0.1-0.4-0.2-0.6-0.3c0,0-0.1-0.1-0.1-0.1c-0.1,0-0.1-0.1-0.2-0.2c-0.1-0.1-0.1-0.1-0.2-0.2
		c-0.1-0.1-0.2-0.2-0.3-0.3c-0.2-0.2-0.4-0.5-0.6-0.7c-0.1-0.1-0.2-0.3-0.3-0.4c-0.2-0.4-0.4-0.9-0.5-1.4c-0.1-0.4-0.1-0.7-0.1-1.1
		c0-0.9,0.1-1.8,0.4-2.6c0.1-0.3,0.2-0.6,0.4-1c0.2-0.4,0.4-0.8,0.6-1.2c0.3-0.5,0.6-0.9,1-1.4c0.1-0.2,0.3-0.3,0.4-0.5
		c0.2-0.2,0.3-0.3,0.5-0.5c0.1-0.1,0.2-0.1,0.2-0.2c0.2-0.1,0.3-0.3,0.5-0.4c0.2-0.1,0.3-0.3,0.5-0.4c0.1-0.1,0.2-0.1,0.3-0.2
		c0.2-0.1,0.4-0.2,0.5-0.3c0.5-0.3,1.1-0.6,1.6-0.8c0.1,0,0.1-0.1,0.2-0.1c0.2-0.1,0.3-0.1,0.5-0.2c0.2-0.1,0.4-0.2,0.6-0.2
		c0.6-0.2,1.2-0.4,1.9-0.6c1-0.3,2-0.5,3-0.6c0.6-0.1,1.1-0.2,1.7-0.2c0.3,0,0.6-0.1,0.9-0.1c0.3,0,0.6,0,0.9-0.1c0.2,0,0.3,0,0.5,0
		c0,0,0.1,0,0.1,0c0.2,0,0.3,0,0.5,0c0,0,0.1,0,0.1,0c0.1,0,0.3,0,0.4,0c0,0,0.1,0,0.1,0c0.2,0,0.3,0,0.5,0c0,0,0.1,0,0.1,0
		c0.2,0,0.3,0,0.5,0c0,0,0,0,0,0c0,0,0.1,0,0.2,0c0,0,0,0,0,0c0,0,0,0.1-0.1,0.1c-0.6,1-1.1,2-1.6,3c-0.2,0.3-0.3,0.7-0.5,1
		c-0.5,0.9-0.9,1.8-1.3,2.8c-0.1,0.3-0.3,0.6-0.4,0.9c-0.7,1.5-1.3,3-1.9,4.5c-0.2,0.6-0.5,1.2-0.7,1.8c-0.2,0.4-0.3,0.9-0.4,1.3
		c-0.3,0.9-0.6,1.8-0.8,2.7c-0.1,0.4-0.2,0.9-0.3,1.3c-0.2,0.6-0.3,1.3-0.4,1.9c-0.1,0.7-0.3,1.4-0.3,2.1c-0.1,0.5-0.1,1-0.1,1.5
		c0,0.2,0,0.4,0,0.6c0,0.1,0,0.1,0,0.2c0,0.2,0.1,0.5,0.1,0.7c0,0.2,0.1,0.3,0.1,0.4c0.1,0.2,0.1,0.4,0.2,0.6
		c0.1,0.1,0.1,0.3,0.2,0.4c0,0.1,0.1,0.1,0.1,0.2c0.1,0.1,0.1,0.2,0.2,0.3c0.1,0.1,0.2,0.2,0.2,0.3c0,0,0,0,0,0
		c0.1,0.1,0.2,0.1,0.2,0.2c0.1,0.1,0.1,0.1,0.2,0.2c0.4,0.3,0.9,0.4,1.4,0.5c0.1,0,0.1,0,0.2,0c0,0,0,0,0,0c0.1,0,0.1,0,0.2,0
		c0,0,0,0,0,0c0,0,0,0,0,0c0.1,0,0.1,0,0.2,0c0,0,0,0,0,0c0.1,0,0.1,0,0.2,0c0,0,0,0,0,0c0.1,0,0.1,0,0.2,0c0,0,0,0,0,0
		c0.1,0,0.1,0,0.2,0c0,0,0,0,0,0c0.1,0,0.1,0,0.2,0c0,0,0,0,0,0c0.1,0,0.1,0,0.2,0c0,0,0,0,0,0c0.1,0,0.1,0,0.2-0.1c0,0,0,0,0,0
		c0.1,0,0.1,0,0.2-0.1c0.5-0.2,0.9-0.4,1.4-0.6c0.1,0,0.1-0.1,0.2-0.1c0.1-0.1,0.3-0.2,0.4-0.3c0.2-0.1,0.4-0.3,0.6-0.5
		c0.2-0.2,0.5-0.5,0.7-0.7c0,0,0-0.1,0.1-0.1v0l0,0c0,0,0-0.1,0-0.1c-0.5-0.7-1-1.4-1.3-2.1c-0.2-0.3-0.3-0.6-0.4-1
		c-0.1-0.2-0.2-0.4-0.2-0.7c0-0.1-0.1-0.2-0.1-0.3c-0.1-0.3-0.2-0.7-0.3-1c0-0.1-0.1-0.2-0.1-0.4c0-0.1,0-0.2-0.1-0.4
		c-0.1-0.6-0.2-1.2-0.2-1.8c0-0.1,0-0.2,0-0.4c0-0.5,0-1,0-1.5c0-0.8,0.1-1.6,0.2-2.4c0,0,0,0,0,0c0-0.3,0.1-0.6,0.1-0.8
		c0,0,0,0,0-0.1c0.1-0.9,0.3-1.7,0.5-2.6c0-0.1,0.1-0.2,0.1-0.4c0.1-0.3,0.2-0.6,0.2-0.9c0.3-1.1,0.7-2.2,1.3-3.3
		c0.1-0.1,0.1-0.2,0.2-0.3c0.2-0.3,0.3-0.6,0.5-0.9c0.1-0.2,0.2-0.4,0.4-0.6c0.1-0.2,0.3-0.4,0.4-0.6c0.1-0.1,0.2-0.3,0.3-0.4
		c0.2-0.2,0.3-0.4,0.5-0.6c0.3-0.3,0.6-0.6,0.9-0.9c0.2-0.2,0.4-0.3,0.6-0.5c0.1-0.1,0.2-0.1,0.3-0.2c0.2-0.1,0.4-0.3,0.6-0.4
		c0.1-0.1,0.2-0.1,0.3-0.2c0.4-0.2,0.8-0.4,1.3-0.5c0.1,0,0.1,0,0.2,0c0,0,0,0,0.1,0c0.1,0,0.1,0,0.2,0c0,0,0,0,0,0
		c0.1,0,0.1,0,0.2,0c0,0,0,0,0,0c0.1,0,0.1,0,0.2,0c0,0,0,0,0,0c0.1,0,0.1,0,0.2,0c0,0,0,0,0,0c0,0,0.1,0,0.1,0c0.1,0,0.1,0,0.2,0
		c0,0,0,0,0.1,0c0.1,0,0.2,0,0.3,0c0,0,0,0,0.1,0c0.1,0,0.1,0,0.2,0c0,0,0.1,0,0.1,0c0.1,0,0.1,0,0.2,0c0,0,0,0,0.1,0
		c0.1,0,0.2,0,0.2,0.1c0,0,0,0,0,0c0.1,0,0.1,0,0.2,0.1c0,0,0.1,0,0.1,0c0.1,0,0.1,0,0.2,0.1c0,0,0,0,0.1,0c0.1,0,0.2,0.1,0.2,0.1
		c0.1,0.1,0.3,0.1,0.4,0.2c0.1,0.1,0.3,0.2,0.4,0.3c0.1,0,0.1,0.1,0.2,0.1c0.4,0.3,0.8,0.7,1.1,1.2c0,0.1,0.1,0.1,0.1,0.2
		c0.1,0.1,0.1,0.2,0.2,0.3c0.1,0.1,0.1,0.2,0.2,0.3c0.1,0.2,0.2,0.4,0.3,0.7c0.3,0.7,0.5,1.4,0.6,2.1c0.1,0.8,0.2,1.7,0.2,2.5
		c0,0,0,0,0,0c0,0.3,0,0.6,0,0.8c0,0.8-0.1,1.6-0.3,2.5c0,0.1,0,0.3-0.1,0.4c-0.1,0.3-0.1,0.7-0.2,1c-0.1,0.6-0.3,1.2-0.4,1.8
		c-0.3,1.3-0.7,2.5-1.2,3.7c-0.2,0.6-0.5,1.2-0.8,1.8c-0.6,1.3-1.4,2.6-2.2,3.9c-0.2,0.2-0.3,0.5-0.5,0.7c0,0,0,0,0,0.1c0,0,0,0,0,0
		h0v0c0,0,0,0,0,0c0,0,0,0,0.1,0c0,0,0,0,0,0c0,0,0,0,0,0c0,0,0,0,0,0c0,0,0.1,0,0.1,0c0,0,0,0,0,0c0,0,0.1,0,0.1,0c0,0,0,0,0,0
		c0,0,0.1,0,0.1,0c0,0,0,0,0,0c0,0,0,0,0.1,0c0.1,0,0.2,0,0.3-0.1c0.6-0.2,1.1-0.5,1.6-0.8c0.3-0.2,0.7-0.5,1-0.8
		c0.5-0.5,1-1,1.4-1.5c0.1-0.2,0.3-0.3,0.4-0.5c0.3-0.5,0.7-1,1-1.5c0.1-0.1,0.1-0.2,0.2-0.3c0.1-0.2,0.2-0.4,0.3-0.6
		c0.1-0.2,0.2-0.4,0.3-0.6c0.2-0.3,0.3-0.7,0.5-1.1c0.5-1.4,0.9-2.8,1.2-4.2c0-0.2,0.1-0.3,0.1-0.5c0.3-1.7,0.4-3.3,0.4-5
		c0-0.2,0-0.3,0-0.5c0-0.3,0-0.6-0.1-0.9c0-0.2-0.1-0.5-0.1-0.7c0-0.1,0-0.2,0-0.2c0-0.2-0.1-0.3-0.1-0.5c0-0.1,0-0.2,0-0.2
		c0-0.2-0.1-0.5-0.2-0.7c-0.3-1-0.7-2-1.3-2.8c-0.7-0.9-1.5-1.6-2.5-2.1c-0.2-0.1-0.4-0.2-0.5-0.2c-0.2-0.1-0.4-0.1-0.6-0.2
		c-0.1,0-0.2-0.1-0.3-0.1c-0.1,0-0.1,0-0.2,0c0,0,0-0.1,0-0.1c0-0.1,0-0.1,0-0.2s0-0.1,0-0.2c0-0.1,0-0.1,0-0.2c0,0,0-0.1,0-0.1
		c0.1-0.2,0.1-0.4,0.2-0.6c0-0.1,0.1-0.2,0.1-0.3c0.1-0.1,0.1-0.3,0.2-0.4c0,0,0.1-0.1,0.1-0.1c0.2-0.2,0.4-0.5,0.6-0.7
		C70.5,23.3,70.8,23.1,71.2,22.9z"/>
	<path fill="#FFFFFF" d="M66.1,38c0-0.1,0-0.2,0-0.2c0-0.1,0-0.2,0-0.3c0-0.3,0-0.7,0-1c0-0.2,0-0.3-0.1-0.5c0,0,0-0.1,0-0.1
		c0-0.2-0.1-0.4-0.2-0.6c0-0.1-0.1-0.2-0.1-0.3c0,0,0-0.1-0.1-0.1c-0.1-0.2-0.3-0.3-0.5-0.4c-0.1,0-0.1,0-0.2,0c0,0-0.1,0-0.1,0
		c0,0,0,0,0,0c0,0-0.1,0-0.1,0c0,0,0,0,0,0c0,0,0,0,0,0c0,0-0.1,0-0.1,0c0,0,0,0,0,0c0,0-0.1,0-0.1,0c0,0,0,0,0,0c0,0-0.1,0-0.1,0
		c0,0,0,0,0,0c0,0-0.1,0-0.1,0c0,0,0,0,0,0c0,0-0.1,0-0.1,0c0,0,0,0,0,0c0,0-0.1,0-0.1,0.1c0,0,0,0,0,0c0,0-0.1,0-0.1,0.1
		c0,0,0,0,0,0c0,0-0.1,0-0.1,0.1c-0.3,0.2-0.5,0.4-0.7,0.7c0,0-0.1,0.1-0.1,0.1c-0.1,0.1-0.2,0.3-0.3,0.5c-0.1,0.2-0.2,0.3-0.3,0.5
		c-0.1,0.1-0.1,0.2-0.2,0.3c-0.2,0.4-0.3,0.9-0.5,1.3c-0.2,0.6-0.3,1.1-0.4,1.7c0,0.2-0.1,0.4-0.1,0.7c0,0.2-0.1,0.4-0.1,0.6
		c0,0.1,0,0.3,0,0.4c0,0.1,0,0.2,0,0.3c0,0.1,0,0.2,0,0.4c0,0.2,0,0.4,0,0.7c0,0.1,0,0.2,0,0.4c0,0.1,0,0.2,0,0.3c0,0.4,0,0.9,0,1.3
		c0,0.6,0.1,1.1,0.2,1.7c0,0.1,0,0.3,0.1,0.4c0,0.2,0.1,0.4,0.1,0.5c0.1,0.4,0.2,0.8,0.3,1.2c0,0.1,0.1,0.3,0.1,0.4
		c0.1,0.4,0.3,0.9,0.4,1.3c0,0,0,0.1,0,0.1c0,0.1,0.1,0.1,0.1,0.2c0,0,0,0.1,0,0.1c0,0,0,0,0,0c0,0,0-0.1,0-0.1c0,0,0-0.1,0-0.1
		c0-0.1,0.1-0.2,0.1-0.3c0.1-0.3,0.3-0.6,0.4-0.9c0.5-1,0.9-2,1.2-3c0.2-0.6,0.5-1.3,0.7-2c0.1-0.2,0.2-0.5,0.2-0.7
		c0.3-0.9,0.5-1.7,0.7-2.6c0.1-0.2,0.1-0.5,0.2-0.7C65.9,39.8,66,38.9,66.1,38z"/>
</g>
<g>
	<path fill="#FFFFFF" d="M6.5,44.8l1.1-1.1c0.6-0.6,0.8-1.1,0.7-1.7c-0.1-0.4-0.3-0.9-0.8-1.3l-1.3-1.3L0,45.7l0.9,0.9l2.2-2.2
		l0.4,0.4c0.4,0.4,0.9,0.7,1.3,0.8C5.3,45.6,5.9,45.3,6.5,44.8z M4.2,43.9l-0.3-0.3l2.4-2.4l0.3,0.3C6.9,41.7,7,41.9,7,42.1
		c0,0.2-0.1,0.4-0.4,0.7l-1.1,1.1C5,44.4,4.7,44.4,4.2,43.9z"/>
	<polygon fill="#FFFFFF" points="11.8,45 9.2,47.6 8.2,46.5 10.7,44 9.8,43.1 3.6,49.3 4.5,50.2 7.4,47.3 8.4,48.4 5.6,51.2 
		6.5,52.1 12.7,45.9 	"/>
	<polygon fill="#FFFFFF" points="13.8,47 7.6,53.2 8.5,54.1 14.7,47.9 	"/>
	<polygon fill="#FFFFFF" points="11.3,55.3 16.7,49.9 15.8,49 9.6,55.2 11.8,57.4 12.7,56.6 	"/>
	<path fill="#FFFFFF" d="M19.4,52.6l-7.3,5.1l0.8,0.8l1.1-0.8l1.1,1.1L14.4,60l0.9,0.9l5.2-7.3L19.4,52.6z M18.1,54.9
		c-0.4,0.5-0.7,0.9-1,1.4L15.9,58l-0.8-0.8l1.7-1.2C17.2,55.6,17.7,55.3,18.1,54.9z"/>
	<path fill="#FFFFFF" d="M24.5,57.7l-3.2,3.2c-0.1,0.1-0.3,0.3-0.4,0.4c0.1-0.2,0.2-0.4,0.3-0.5l2.3-4.1l-1.1-1.1l-6.2,6.2l0.8,0.8
		l3.7-3.7c0.1-0.1,0.3-0.3,0.4-0.4c-0.1,0.2-0.2,0.4-0.3,0.5l-2.7,4.8l1,1l6.2-6.2L24.5,57.7z"/>
	<polygon fill="#FFFFFF" points="27.9,62.7 28.7,61.8 25.9,59.1 25.1,59.9 26,60.8 20.6,66.2 21.5,67.1 27,61.8 	"/>
	<polygon fill="#FFFFFF" points="31.3,64.5 28.8,67 27.7,66 30.3,63.4 29.4,62.5 23.1,68.7 24.1,69.6 26.9,66.8 27.9,67.9 
		25.1,70.7 26,71.6 32.2,65.4 	"/>
	<path fill="#FFFFFF" d="M31.9,73.6c0.6-0.6,0.8-1.1,0.6-1.7c0.6,0.2,1.1,0,1.7-0.6l0.6-0.6c1.3-1.2,0.7-2.2-0.1-2.9l-1.3-1.3
		l-6.2,6.2l0.9,0.9l2.7-2.7l0.2,0.2c0.3,0.3,0.5,0.6,0.5,0.8c0,0.2-0.2,0.5-0.5,0.8l-0.5,0.5c-0.7,0.7-1,1.1-1.1,1.4l0,0.1l1,1
		l0.1-0.2c0.1-0.4,0.3-0.7,1.3-1.7L31.9,73.6z M31.9,70.5l-0.4-0.4l1.9-1.9l0.4,0.4c0.3,0.3,0.4,0.5,0.4,0.6c0,0.2-0.1,0.4-0.4,0.6
		l-0.6,0.6C32.7,71,32.4,71,31.9,70.5z"/>
	<path fill="#FFFFFF" d="M38.5,74.5c0.5-0.5,0.8-1,0.8-1.6c0-0.5-0.2-1-0.7-1.4c-1-0.9-2-0.9-3,0.1l-3.3,3.3c-0.5,0.5-0.8,1-0.8,1.6
		c0,0.5,0.2,1,0.7,1.4c0.4,0.4,0.9,0.7,1.4,0.7c0,0,0,0,0,0c0.5,0,1-0.3,1.6-0.8L38.5,74.5z M33.1,75.9l3.5-3.5
		c0.2-0.2,0.5-0.4,0.7-0.4c0.2,0,0.3,0.1,0.5,0.3c0.2,0.2,0.3,0.4,0.2,0.5c0,0.2-0.1,0.4-0.4,0.6L34.2,77c-0.4,0.4-0.8,0.5-1.2,0.1
		C32.6,76.7,32.7,76.4,33.1,75.9z"/>
	<path fill="#FFFFFF" d="M41.2,79.4l1.1-1.1c1-1,1-2,0-3L40.9,74l-6.2,6.2l0.9,0.9l2.2-2.2l0.4,0.4C39.2,80.4,40.2,80.4,41.2,79.4z
		 M38.9,78.5l-0.3-0.3l2.4-2.4l0.3,0.3c0.3,0.3,0.4,0.5,0.4,0.7c0,0.2-0.1,0.4-0.4,0.7l-1.1,1.1C39.7,79,39.4,79,38.9,78.5z"/>
	<polygon fill="#FFFFFF" points="44.5,77.6 38.3,83.8 39.2,84.7 45.4,78.5 	"/>
	<polygon fill="#FFFFFF" points="44.1,83.9 45.3,85.1 46.1,84.3 44.9,83.1 46.6,81.4 48,82.7 48.8,81.9 46.5,79.6 40.3,85.8 
		42.6,88.2 43.5,87.3 42.1,85.9 	"/>
	<path fill="#FFFFFF" d="M51.1,84c-0.5-0.5-0.9-0.7-1.4-0.7c-0.5,0-1,0.3-1.5,0.8l0,0c-1.1,1.1-1,2.1-1,3c0.1,0.8,0.1,1.4-0.5,2.1
		l-0.1,0.1c-0.5,0.5-0.8,0.5-1.1,0.1c-0.3-0.3-0.4-0.6,0.1-1.1l0.9-0.9l-0.9-0.9l-0.8,0.8c-0.5,0.5-0.8,1-0.8,1.5
		c0,0.5,0.2,1,0.6,1.4c0.4,0.4,0.9,0.7,1.3,0.7c0.5,0,1-0.3,1.5-0.8l0.1-0.1c1.1-1.1,1-2.1,0.9-3c-0.1-0.8-0.1-1.5,0.5-2.1l0.1-0.1
		c0.5-0.5,0.8-0.4,1.1-0.1c0.2,0.2,0.3,0.4,0.2,0.5c0,0.2-0.1,0.4-0.4,0.6l-0.7,0.7l0.9,0.9l0.7-0.7C51.9,85.8,52,84.9,51.1,84z"/>
</g>
</svg>
