<?xml version="1.0" encoding="utf-8"?>
<!-- Generator: Adobe Illustrator 24.0.3, SVG Export Plug-In . SVG Version: 6.00 Build 0)  -->
<!DOCTYPE svg PUBLIC "-//W3C//DTD SVG 1.1//EN" "http://www.w3.org/Graphics/SVG/1.1/DTD/svg11.dtd" [
	<!ENTITY ns_extend "http://ns.adobe.com/Extensibility/1.0/">
	<!ENTITY ns_ai "http://ns.adobe.com/AdobeIllustrator/10.0/">
	<!ENTITY ns_graphs "http://ns.adobe.com/Graphs/1.0/">
	<!ENTITY ns_vars "http://ns.adobe.com/Variables/1.0/">
	<!ENTITY ns_imrep "http://ns.adobe.com/ImageReplacement/1.0/">
	<!ENTITY ns_sfw "http://ns.adobe.com/SaveForWeb/1.0/">
	<!ENTITY ns_custom "http://ns.adobe.com/GenericCustomNamespace/1.0/">
	<!ENTITY ns_adobe_xpath "http://ns.adobe.com/XPath/1.0/">
]>
<svg version="1.1" id="Layer_1" xmlns:x="&ns_extend;" xmlns:i="&ns_ai;" xmlns:graph="&ns_graphs;"
	 xmlns="http://www.w3.org/2000/svg" xmlns:xlink="http://www.w3.org/1999/xlink" x="0px" y="0px" viewBox="0 0 480 152"
	 enable-background="new 0 0 480 152" xml:space="preserve">
<metadata>
	<sfw  xmlns="&ns_sfw;">
		<slices></slices>
		<sliceSourceBounds  bottomLeftOrigin="true" height="152" width="480" x="0" y="-152"></sliceSourceBounds>
	</sfw>
</metadata>
<g>
	<g>
		<path fill="#FFFFFF" d="M119.3,38.4c0.1,0,0.1,0,0.2,0C119.5,38.4,119.4,38.4,119.3,38.4z"/>
		<path fill="#FFFFFF" d="M119.7,38.4C119.7,38.4,119.7,38.4,119.7,38.4C119.7,38.4,119.7,38.4,119.7,38.4
			C119.8,38.4,119.7,38.4,119.7,38.4z"/>
		<path fill="#FFFFFF" d="M120.4,38.4c0,0,0.1,0,0.1,0C120.4,38.4,120.4,38.4,120.4,38.4z"/>
		<path fill="#FFFFFF" d="M120.8,38.5C120.8,38.5,120.8,38.5,120.8,38.5C120.8,38.5,120.8,38.5,120.8,38.5z"/>
		<path fill="#FFFFFF" d="M119,38.4c0.1,0,0.2,0,0.3,0C119.2,38.4,119.1,38.4,119,38.4z"/>
		<path fill="#FFFFFF" d="M118.1,38.6c0.1,0,0.1,0,0.2,0C118.2,38.6,118.2,38.6,118.1,38.6z"/>
		<path fill="#FFFFFF" d="M118.7,38.5c0.1,0,0.2,0,0.2,0C118.9,38.5,118.8,38.5,118.7,38.5z"/>
		<path fill="#FFFFFF" d="M117.7,38.7c0.1,0,0.2-0.1,0.3-0.1C117.9,38.7,117.8,38.7,117.7,38.7z"/>
		<path fill="#FFFFFF" d="M121.1,38.6c0,0,0.1,0,0.1,0C121.2,38.6,121.2,38.6,121.1,38.6z"/>
		<path fill="#FFFFFF" d="M118.4,38.5c0.1,0,0.1,0,0.2,0C118.5,38.5,118.5,38.5,118.4,38.5z"/>
		<path fill="#FFFFFF" d="M120,38.4c0,0,0.1,0,0.1,0C120.1,38.4,120,38.4,120,38.4z"/>
		<path fill="#FFFFFF" d="M126.8,42.8c0.3,0.4,0.5,0.8,0.7,1.2C127.3,43.6,127.1,43.2,126.8,42.8c-0.9-1.4-2.1-2.5-3.5-3.3
			C124.8,40.3,125.9,41.4,126.8,42.8z"/>
		<path fill="#FFFFFF" d="M123.1,39.3c-0.2-0.1-0.3-0.2-0.5-0.3c0,0,0,0,0,0c0,0,0,0,0,0C122.7,39.1,122.9,39.2,123.1,39.3z"/>
		<path fill="#FFFFFF" d="M130,51.4c0.1,0.5,0.2,1,0.2,1.5C130.2,52.4,130.1,51.9,130,51.4z"/>
		<path fill="#FFFFFF" d="M130.4,54.8c0-0.4-0.1-0.7-0.1-1.1c0-0.3-0.1-0.5-0.1-0.8c0,0.3,0.1,0.5,0.1,0.8
			C130.4,54,130.4,54.4,130.4,54.8z"/>
		<path fill="#FFFFFF" d="M122.1,38.9c0,0,0.1,0,0.1,0C122.2,38.9,122.2,38.9,122.1,38.9z"/>
		<path fill="#FFFFFF" d="M129.8,50.6c0.1,0.3,0.1,0.6,0.2,0.9C129.9,51.1,129.9,50.9,129.8,50.6z"/>
		<path fill="#FFFFFF" d="M121.8,38.8c0,0,0.1,0,0.1,0C121.9,38.8,121.8,38.8,121.8,38.8z"/>
		<path fill="#FFFFFF" d="M121.5,38.6c0,0,0.1,0,0.1,0C121.5,38.7,121.5,38.7,121.5,38.6z"/>
		<path fill="#FFFFFF" d="M133.1,59.9c0-2.3-0.1-4.4-0.3-6.5c-0.3-2.3-0.7-4.4-1.3-6.4c-0.7-2.1-1.5-4-2.6-5.6
			c-1.4-2.1-3.1-3.6-5.3-4.6c-1.3-0.6-2.6-0.9-3.9-0.9c-0.9,0-1.8,0.1-2.7,0.4c-1.5,0.5-2.8,1.3-4,2.5c-0.1,0.1-0.3,0.3-0.4,0.4
			L73.2,0L0,73.1L78.9,152l73.2-73.1L133.1,59.9z M116.5,39.3c0.4-0.2,0.8-0.4,1.2-0.5c0.1,0,0.2-0.1,0.3-0.1c0,0,0.1,0,0.1,0
			c0.1,0,0.1,0,0.2,0c0,0,0.1,0,0.1,0c0.1,0,0.1,0,0.2,0c0,0,0.1,0,0.1,0c0.1,0,0.2,0,0.2,0c0,0,0,0,0,0c0.1,0,0.2,0,0.3,0
			c0,0,0.1,0,0.1,0c0.1,0,0.1,0,0.2,0c0,0,0.1,0,0.1,0c0,0,0.1,0,0.1,0c0,0,0,0,0.1,0c0.1,0,0.1,0,0.2,0c0,0,0.1,0,0.1,0
			c0.1,0,0.2,0,0.2,0c0,0,0.1,0,0.1,0c0.1,0,0.2,0,0.3,0c0,0,0,0,0,0c0.1,0,0.2,0,0.3,0.1c0,0,0.1,0,0.1,0c0.1,0,0.1,0,0.2,0.1
			c0,0,0.1,0,0.1,0c0.1,0,0.1,0,0.2,0.1c0,0,0.1,0,0.1,0c0.1,0,0.1,0.1,0.2,0.1c0,0,0.1,0,0.1,0c0.1,0,0.2,0.1,0.3,0.1c0,0,0,0,0,0
			c0.2,0.1,0.3,0.2,0.5,0.3c0.1,0.1,0.2,0.1,0.3,0.2c1.4,0.8,2.6,2,3.5,3.3c0.3,0.4,0.5,0.8,0.7,1.2c0.1,0.2,0.2,0.4,0.3,0.6
			c0.5,1,0.9,2.1,1.3,3.2c0.3,0.9,0.5,1.9,0.7,2.8c0.1,0.3,0.1,0.6,0.2,0.9c0.1,0.5,0.2,1,0.2,1.5c0,0.3,0.1,0.5,0.1,0.8
			c0,0.4,0.1,0.7,0.1,1.1c0.1,1.4,0.2,2.8,0.2,4.2c0,1.1,0,2.1-0.1,3.2c0,0.4,0,0.8-0.1,1.3c-0.1,0.9-0.1,1.8-0.2,2.6
			c0,0.4-0.1,0.9-0.2,1.3c-0.4,2.8-1,5.6-1.7,8.3c-1,3.8-2.4,7.4-4.2,10.9c-0.7,1.4-1.5,2.8-2.4,4.1c-0.5,0.8-1.1,1.6-1.7,2.3
			c-0.2,0.2-0.4,0.4-0.6,0.7c-0.3,0.3-0.6,0.6-0.9,1c-0.4,0.4-0.8,0.8-1.3,1.2c-0.6,0.5-1.1,0.9-1.8,1.3c-0.2,0.2-0.5,0.3-0.7,0.5
			c-1.8,1.1-3.7,1.8-5.7,2.1c0,0,0,0,0,0c-0.2,0-0.3,0-0.5,0.1c-0.1,0-0.1,0-0.2,0c-0.1,0-0.2,0-0.3,0c-0.1,0-0.1,0-0.2,0
			c-0.1,0-0.2,0-0.3,0c-0.1,0-0.1,0-0.2,0c-0.1,0-0.2,0-0.3,0c-0.1,0-0.2,0-0.3,0c0,0-0.1,0-0.1,0c-0.1,0-0.3,0-0.4,0c0,0,0,0-0.1,0
			c-0.1,0-0.2,0-0.4,0c0,0-0.1,0-0.1,0c-0.1,0-0.2,0-0.3,0c0,0,0,0-0.1,0c-0.1,0-0.3,0-0.4-0.1c0,0-0.1,0-0.1,0
			c-0.1,0-0.2,0-0.3-0.1c0,0-0.1,0-0.1,0c-0.1,0-0.3-0.1-0.4-0.1c0,0,0,0,0,0c-0.1,0-0.2-0.1-0.4-0.1c0,0-0.1,0-0.1,0
			c-0.1,0-0.2-0.1-0.3-0.1c0,0-0.1,0-0.1,0c-0.1,0-0.3-0.1-0.4-0.1c0,0-0.1,0-0.1,0c-0.1,0-0.2-0.1-0.3-0.1c0,0-0.1,0-0.1,0
			c-0.1-0.1-0.3-0.1-0.4-0.2c-0.2-0.1-0.3-0.2-0.5-0.3c-0.2-0.1-0.3-0.2-0.5-0.3c-0.1,0.1-0.1,0.2-0.2,0.3c-1.1,1.6-2.3,3-3.8,4.1
			c-0.3,0.3-0.7,0.5-1,0.7s-0.7,0.5-1.1,0.7c-0.5,0.3-1.1,0.6-1.7,0.9c-0.2,0.1-0.4,0.2-0.6,0.2c-0.4,0.2-0.8,0.3-1.2,0.4
			c-0.2,0.1-0.4,0.1-0.6,0.2c-0.8,0.2-1.6,0.4-2.5,0.5c0,0,0,0,0,0c-0.2,0-0.4,0-0.6,0.1c-0.1,0-0.1,0-0.2,0c-0.2,0-0.3,0-0.5,0
			c-0.1,0-0.1,0-0.2,0c-0.2,0-0.4,0-0.6,0c0,0,0,0,0,0c-0.2,0-0.4,0-0.6,0c0,0-0.1,0-0.1,0c-0.2,0-0.4,0-0.6,0c0,0-0.1,0-0.1,0
			c-0.2,0-0.4,0-0.6-0.1c0,0-0.1,0-0.1,0c-0.2,0-0.4-0.1-0.6-0.1c0,0-0.1,0-0.1,0c-0.2,0-0.4-0.1-0.6-0.1c-0.4-0.1-0.8-0.2-1.2-0.3
			c-0.3-0.1-0.5-0.2-0.8-0.3c-0.9-0.4-1.8-0.9-2.6-1.5c-0.5-0.4-0.9-0.8-1.3-1.2c-0.9-0.9-1.7-2-2.3-3.1c0-0.1-0.1-0.1-0.1-0.2
			C74.1,99.3,74,99.2,74,99c-0.1-0.3-0.3-0.5-0.4-0.8c-0.1-0.3-0.3-0.6-0.4-1c-0.2-0.4-0.3-0.8-0.4-1.2c-0.1-0.3-0.2-0.5-0.2-0.8
			c0-0.1-0.1-0.3-0.1-0.4c-0.1-0.3-0.1-0.6-0.2-0.8c0-0.1-0.1-0.3-0.1-0.4c0-0.1-0.1-0.3-0.1-0.4c-0.1-0.5-0.2-1.1-0.2-1.6
			c0-0.3-0.1-0.5-0.1-0.8c-0.1-0.8-0.1-1.6-0.1-2.4c0-0.5,0-1.1,0.1-1.6c0.1-1,0.2-2,0.3-3c0.1-0.4,0.1-0.7,0.2-1.1
			c0-0.2,0.1-0.5,0.1-0.7c0-0.2,0.1-0.4,0.1-0.6c0.1-0.4,0.2-0.9,0.3-1.3c0.2-0.9,0.5-1.9,0.8-2.8c0.3-0.9,0.6-1.7,0.9-2.5
			c0.1-0.4,0.3-0.8,0.5-1.3c0.8-2.1,1.6-4.2,2.5-6.2c1.1-2.6,2.3-5.2,3.6-7.7c0.1-0.1,0.1-0.2,0.2-0.4c0.1-0.1,0.1-0.3,0.2-0.4
			c-0.2,0-0.4,0.1-0.6,0.1c-0.2,0-0.4,0-0.5,0.1c-0.8,0.1-1.5,0.3-2.2,0.5c-0.3,0.1-0.6,0.2-0.9,0.3c-0.6,0.2-1.2,0.5-1.8,0.9
			c-1.4,0.8-2.6,1.9-3.5,3.2c0,0.1-0.1,0.2-0.1,0.2c0,0.1-0.1,0.2-0.1,0.2c-0.1,0.2-0.2,0.4-0.3,0.6c0.1,0.1,0.2,0.1,0.3,0.2
			c0.7,0.4,1.3,0.8,1.8,1.4c0.1,0.2,0.3,0.3,0.4,0.5c0.2,0.3,0.5,0.7,0.6,1.1c0.1,0.3,0.2,0.6,0.3,1c0.1,0.4,0.1,0.8,0.1,1.3
			c0,0.1,0,0.1,0,0.2c0,0.1,0,0.2,0,0.4c0,0.2-0.1,0.4-0.1,0.6c-0.1,0.3-0.2,0.6-0.4,1c-0.1,0.2-0.2,0.4-0.3,0.5
			c-0.1,0.1-0.1,0.2-0.2,0.2c-0.1,0.2-0.3,0.4-0.5,0.6c-0.3,0.3-0.7,0.6-1.2,0.9c-0.1,0.1-0.2,0.1-0.3,0.1c0,0-0.1,0-0.1,0
			c-0.1,0-0.1,0.1-0.2,0.1c0,0-0.1,0-0.1,0c-0.1,0-0.1,0-0.2,0.1c0,0-0.1,0-0.1,0c-0.1,0-0.1,0-0.2,0c0,0-0.1,0-0.1,0
			c-0.1,0-0.1,0-0.2,0c0,0-0.1,0-0.1,0c-0.1,0-0.1,0-0.2,0c0,0-0.1,0-0.1,0c-0.1,0-0.1,0-0.2,0c0,0-0.1,0-0.1,0c-0.1,0-0.1,0-0.2,0
			c0,0-0.1,0-0.1,0c0,0-0.1,0-0.1,0c-0.1,0-0.1,0-0.2,0c0,0-0.1,0-0.1,0c-0.1,0-0.1,0-0.2,0c0,0-0.1,0-0.1,0c-0.1,0-0.1,0-0.2,0
			c0,0-0.1,0-0.1,0c-0.1,0-0.1,0-0.2,0c0,0-0.1,0-0.1,0c-0.1,0-0.1,0-0.2,0c0,0-0.1,0-0.1,0c-0.1,0-0.1,0-0.2-0.1c0,0-0.1,0-0.1,0
			c-0.1,0-0.2-0.1-0.3-0.1c-0.1,0-0.2-0.1-0.2-0.1c-0.3-0.2-0.6-0.3-0.9-0.6c-0.1-0.1-0.2-0.1-0.2-0.2c-0.1-0.1-0.2-0.2-0.3-0.3
			c-0.1-0.1-0.2-0.2-0.3-0.3c-0.2-0.2-0.3-0.3-0.5-0.5c-0.3-0.4-0.7-0.8-1-1.2c-0.2-0.2-0.3-0.5-0.5-0.8c-0.4-0.8-0.7-1.5-0.9-2.4
			c-0.1-0.6-0.2-1.3-0.2-1.9c-0.1-1.6,0.2-3.1,0.7-4.5c0.2-0.6,0.4-1.1,0.6-1.6c0.3-0.7,0.6-1.4,1-2.1c0.5-0.8,1-1.6,1.6-2.4
			c0.2-0.3,0.5-0.6,0.8-0.9c0.3-0.3,0.5-0.6,0.8-0.8c0.1-0.1,0.3-0.3,0.4-0.4c0.3-0.2,0.6-0.5,0.8-0.7c0.3-0.2,0.6-0.4,0.9-0.7
			c0.2-0.1,0.3-0.2,0.5-0.3c0.3-0.2,0.6-0.4,0.9-0.6c0.9-0.5,1.9-1,2.8-1.4c0.1,0,0.2-0.1,0.3-0.1c0.3-0.1,0.6-0.2,0.9-0.4
			c0.3-0.1,0.7-0.3,1-0.4c1-0.4,2.1-0.7,3.2-1c1.7-0.4,3.5-0.8,5.2-1c1-0.1,1.9-0.3,2.9-0.4c0.5,0,1-0.1,1.5-0.1
			c0.5,0,1-0.1,1.5-0.1c0.3,0,0.5,0,0.8,0c0.1,0,0.1,0,0.2,0c0.3,0,0.5,0,0.8,0c0,0,0.1,0,0.1,0c0.2,0,0.5,0,0.7,0c0,0,0.1,0,0.1,0
			c0.3,0,0.5,0,0.8,0c0.1,0,0.1,0,0.2,0c0.3,0,0.5,0,0.8,0c0,0,0.1,0,0.1,0c0.1,0,0.2,0,0.3,0c0,0,0,0.1,0,0.1
			c0,0.1-0.1,0.1-0.1,0.2c-0.9,1.7-1.8,3.4-2.7,5.1c-0.3,0.6-0.6,1.1-0.9,1.7c-0.8,1.6-1.6,3.1-2.3,4.7c-0.2,0.5-0.5,1-0.7,1.5
			c-1.1,2.5-2.2,5.1-3.2,7.7c-0.4,1-0.8,2.1-1.1,3.1c-0.3,0.8-0.5,1.5-0.8,2.3c-0.5,1.5-1,3-1.4,4.6c-0.2,0.8-0.4,1.5-0.6,2.3
			c-0.3,1.1-0.5,2.2-0.7,3.3c-0.2,1.2-0.4,2.4-0.6,3.7c-0.1,0.9-0.2,1.7-0.2,2.6c0,0.3,0,0.6,0,1c0,0.1,0,0.2,0,0.3
			c0,0.4,0.1,0.9,0.2,1.3c0,0.3,0.1,0.5,0.2,0.8c0.1,0.4,0.2,0.8,0.4,1.1c0.1,0.2,0.2,0.5,0.3,0.7c0.1,0.1,0.1,0.2,0.2,0.3
			c0.1,0.2,0.2,0.4,0.4,0.5c0.1,0.2,0.3,0.3,0.4,0.5c0,0,0,0,0,0c0.1,0.1,0.3,0.2,0.4,0.4c0.1,0.1,0.2,0.2,0.4,0.3
			c0.7,0.5,1.5,0.8,2.5,0.9c0.1,0,0.2,0,0.3,0c0,0,0,0,0.1,0c0.1,0,0.2,0,0.3,0c0,0,0,0,0,0c0,0,0,0,0,0c0.1,0,0.2,0,0.3,0
			c0,0,0,0,0,0c0.1,0,0.2,0,0.3,0c0,0,0,0,0.1,0c0.1,0,0.2,0,0.3,0c0,0,0,0,0,0c0.1,0,0.2,0,0.3,0c0,0,0,0,0.1,0
			c0.1,0,0.2,0,0.3-0.1c0,0,0,0,0.1,0c0.1,0,0.2,0,0.3-0.1c0,0,0,0,0,0c0.1,0,0.2-0.1,0.3-0.1c0,0,0,0,0.1,0c0.1,0,0.2-0.1,0.3-0.1
			c0.8-0.3,1.6-0.6,2.3-1.1c0.1-0.1,0.2-0.1,0.4-0.2c0.2-0.2,0.5-0.3,0.7-0.5c0.3-0.3,0.7-0.5,1-0.8c0.4-0.4,0.8-0.8,1.2-1.2
			c0,0,0.1-0.1,0.1-0.2v0l0,0c0,0,0-0.1-0.1-0.1c-0.9-1.1-1.7-2.3-2.3-3.6c-0.3-0.5-0.5-1.1-0.7-1.7c-0.1-0.4-0.3-0.8-0.4-1.1
			c-0.1-0.2-0.1-0.4-0.2-0.6c-0.2-0.6-0.3-1.2-0.5-1.8c0-0.2-0.1-0.4-0.1-0.6c0-0.2-0.1-0.4-0.1-0.6c-0.2-1-0.3-2-0.4-3.1
			c0-0.2,0-0.4,0-0.6c0-0.8-0.1-1.7-0.1-2.5c0-1.4,0.1-2.8,0.3-4.2c0,0,0,0,0-0.1c0.1-0.5,0.1-1,0.2-1.4c0,0,0-0.1,0-0.1
			c0.2-1.5,0.4-3,0.8-4.4c0-0.2,0.1-0.4,0.1-0.6c0.1-0.5,0.3-1,0.4-1.5c0.6-1.9,1.3-3.8,2.2-5.6c0.1-0.2,0.2-0.4,0.3-0.5
			c0.3-0.5,0.6-1.1,0.9-1.6c0.2-0.3,0.4-0.7,0.6-1c0.2-0.4,0.5-0.7,0.7-1.1c0.2-0.2,0.3-0.5,0.5-0.7c0.3-0.3,0.5-0.7,0.8-1
			c0.5-0.5,1-1,1.5-1.5c0.3-0.3,0.6-0.6,1-0.8c0.2-0.1,0.3-0.2,0.5-0.4c0.3-0.2,0.6-0.4,1-0.6c0.2-0.1,0.3-0.2,0.5-0.3
			c0.7-0.4,1.4-0.7,2.2-0.9c0.1,0,0.2-0.1,0.3-0.1c0,0,0.1,0,0.1,0c0.1,0,0.2,0,0.3-0.1c0,0,0,0,0.1,0c0.1,0,0.2,0,0.3,0
			c0,0,0.1,0,0.1,0c0.1,0,0.2,0,0.3,0c0,0,0.1,0,0.1,0c0.1,0,0.2,0,0.3,0c0,0,0,0,0.1,0c0.1,0,0.2,0,0.2,0c0.1,0,0.2,0,0.4,0
			c0,0,0.1,0,0.1,0c0.1,0,0.3,0,0.4,0c0,0,0.1,0,0.1,0c0.1,0,0.2,0,0.3,0c0,0,0.1,0,0.1,0c0.1,0,0.2,0,0.3,0.1c0,0,0.1,0,0.1,0
			c0.1,0,0.3,0.1,0.4,0.1c0,0,0.1,0,0.1,0c0.1,0,0.2,0.1,0.3,0.1c0,0,0.1,0,0.1,0c0.1,0,0.2,0.1,0.3,0.1c0,0,0.1,0,0.1,0.1
			c0.1,0.1,0.3,0.1,0.4,0.2c0.3,0.1,0.5,0.3,0.7,0.4c0.2,0.1,0.5,0.3,0.7,0.4c0.1,0.1,0.2,0.2,0.3,0.2c0.7,0.6,1.4,1.3,1.9,2
			c0.1,0.1,0.2,0.2,0.2,0.3c0.1,0.2,0.2,0.3,0.3,0.5c0.1,0.2,0.2,0.4,0.3,0.6c0.2,0.4,0.4,0.8,0.5,1.1c0.5,1.2,0.8,2.4,1,3.6
			c0.2,1.5,0.3,2.9,0.3,4.4c0,0,0,0,0,0c0,0.5,0,1,0,1.5c-0.1,1.4-0.2,2.8-0.4,4.2c0,0.2-0.1,0.5-0.1,0.7c-0.1,0.6-0.2,1.1-0.3,1.7
			c-0.2,1-0.5,2.1-0.7,3.1c-0.6,2.1-1.2,4.2-2.1,6.3c-0.4,1-0.8,2-1.3,3c-1.1,2.3-2.4,4.5-3.8,6.7c-0.3,0.4-0.6,0.8-0.9,1.2
			c0,0,0,0.1-0.1,0.1c0,0,0,0,0,0.1h0v0c0,0,0,0,0,0c0,0,0.1,0,0.1,0c0,0,0,0,0,0c0,0,0,0,0.1,0c0,0,0,0,0,0c0.1,0,0.1,0,0.2,0
			c0,0,0,0,0,0c0,0,0.1,0,0.1,0c0,0,0,0,0,0c0.1,0,0.1,0,0.2,0c0,0,0,0,0.1,0c0,0,0.1,0,0.1,0c0.1,0,0.3-0.1,0.4-0.1
			c1-0.3,1.9-0.8,2.8-1.4c0.6-0.4,1.1-0.9,1.7-1.3c0.9-0.8,1.7-1.7,2.4-2.6c0.2-0.3,0.5-0.6,0.7-0.9c0.6-0.8,1.1-1.7,1.6-2.6
			c0.1-0.2,0.2-0.4,0.3-0.5c0.2-0.3,0.3-0.6,0.5-1c0.2-0.3,0.3-0.7,0.5-1c0.3-0.6,0.5-1.2,0.8-1.8c0.9-2.4,1.6-4.8,2.1-7.3
			c0.1-0.3,0.1-0.6,0.2-0.9c0.5-2.9,0.7-5.7,0.7-8.6c0-0.3,0-0.5,0-0.8c0-0.5-0.1-1.1-0.1-1.6c0-0.4-0.1-0.8-0.1-1.2
			c0-0.1,0-0.3-0.1-0.4c0-0.3-0.1-0.5-0.1-0.8c0-0.1-0.1-0.3-0.1-0.4c-0.1-0.4-0.2-0.8-0.3-1.2c-0.5-1.7-1.2-3.4-2.2-4.9
			c-1.1-1.6-2.5-2.8-4.2-3.7c-0.3-0.2-0.6-0.3-0.9-0.4c-0.3-0.1-0.7-0.2-1-0.3c-0.2,0-0.3-0.1-0.5-0.1c-0.1,0-0.2,0-0.3-0.1
			c0-0.1,0-0.1,0-0.2c0-0.1,0-0.2,0-0.3c0-0.1,0-0.2,0-0.3c0-0.1,0-0.2,0.1-0.3c0,0,0-0.1,0-0.1c0.1-0.3,0.2-0.6,0.3-0.9
			c0.1-0.2,0.1-0.3,0.2-0.4c0.1-0.2,0.2-0.4,0.4-0.6c0-0.1,0.1-0.1,0.1-0.2c0.3-0.4,0.6-0.8,1-1.1C115.3,40.1,115.8,39.6,116.5,39.3
			z"/>
		<path fill="#FFFFFF" d="M107.7,65.3c0-0.1,0-0.3,0-0.4c0-0.1,0-0.3,0-0.4c0-0.6,0-1.1,0-1.7c0-0.3-0.1-0.6-0.1-0.9
			c0-0.1,0-0.2,0-0.2c-0.1-0.3-0.1-0.7-0.3-1c-0.1-0.2-0.1-0.3-0.2-0.5c0-0.1-0.1-0.1-0.1-0.2c-0.2-0.3-0.5-0.6-0.9-0.7
			c-0.1,0-0.2-0.1-0.3-0.1c-0.1,0-0.1,0-0.2,0c0,0,0,0-0.1,0c-0.1,0-0.1,0-0.2,0c0,0,0,0,0,0c0,0,0,0,0,0c-0.1,0-0.2,0-0.2,0
			c0,0,0,0,0,0c-0.1,0-0.2,0-0.2,0c0,0,0,0,0,0c-0.1,0-0.2,0-0.2,0c0,0,0,0,0,0c-0.1,0-0.1,0-0.2,0.1c0,0,0,0,0,0
			c-0.1,0-0.2,0.1-0.2,0.1c0,0,0,0,0,0c-0.1,0-0.1,0.1-0.2,0.1c0,0,0,0,0,0c-0.1,0-0.1,0.1-0.2,0.1c0,0,0,0,0,0
			c-0.1,0-0.1,0.1-0.2,0.1c-0.5,0.3-0.9,0.7-1.2,1.1c-0.1,0.1-0.1,0.2-0.2,0.3c-0.2,0.3-0.4,0.5-0.5,0.8c-0.2,0.3-0.3,0.6-0.5,0.9
			c-0.1,0.2-0.2,0.4-0.3,0.6c-0.3,0.7-0.6,1.5-0.8,2.2c-0.3,0.9-0.5,1.9-0.7,2.9c-0.1,0.4-0.1,0.8-0.2,1.2c-0.1,0.4-0.1,0.7-0.1,1.1
			c0,0.2,0,0.4-0.1,0.6c0,0.2,0,0.4,0,0.6c0,0.2,0,0.4,0,0.6c0,0.4,0,0.8,0,1.1c0,0.2,0,0.4,0,0.6c0,0.2,0,0.4,0,0.6
			c0,0.7,0,1.5,0.1,2.2c0.1,1,0.2,1.9,0.3,2.9c0,0.2,0.1,0.5,0.1,0.7c0,0.3,0.1,0.6,0.2,0.9c0.1,0.7,0.3,1.4,0.5,2.1
			c0.1,0.2,0.1,0.5,0.2,0.7c0.2,0.7,0.4,1.5,0.7,2.2c0,0.1,0,0.1,0.1,0.2c0,0.1,0.1,0.2,0.1,0.4c0,0.1,0.1,0.1,0.1,0.2c0,0,0,0,0,0
			c0,0,0.1-0.1,0.1-0.1c0,0,0.1-0.1,0.1-0.1c0.1-0.2,0.2-0.3,0.2-0.5c0.2-0.5,0.5-1,0.7-1.5c0.8-1.7,1.5-3.4,2.1-5.1
			c0.4-1.1,0.8-2.2,1.1-3.4c0.1-0.4,0.3-0.8,0.4-1.2c0.4-1.5,0.8-2.9,1.2-4.4c0.1-0.4,0.2-0.9,0.3-1.3
			C107.3,68.3,107.6,66.8,107.7,65.3z"/>
	</g>
</g>
<g>
	<path fill="#FFFFFF" d="M200.5,16.4v61.9h-12L179.4,46c-1.1-4.1-2.4-9.9-3.5-14.2c0.3,4.2,0.6,10.3,0.6,14.3v32.2H168V16.4h13.4
		l7.8,27.2c1.1,4.2,2.4,9.9,3.4,14.2c-0.2-4.3-0.5-10.3-0.5-14.3V16.4H200.5z"/>
	<path fill="#FFFFFF" d="M230.2,69.2h-11.9l-1.5,9.1h-9.3l10.7-61.9h13L242,78.3h-10.2L230.2,69.2z M219.8,60.7h9L227,49.9
		c-0.9-5.7-1.9-12.8-2.7-21.5c-0.8,8.7-1.9,15.8-2.7,21.5L219.8,60.7z"/>
	<path fill="#FFFFFF" d="M274.5,25.3h-9.4v53.1h-10.2V25.3h-9.4v-8.8h29V25.3z"/>
	<path fill="#FFFFFF" d="M281,16.4h10.2v61.9H281V16.4z"/>
	<path fill="#FFFFFF" d="M300.3,31.8c0-11.3,5.5-16.4,15.4-16.4s15.5,5,15.5,16.4V63c0,11.3-5.6,16.4-15.5,16.4s-15.4-5-15.4-16.4
		V31.8z M315.7,70.5c3.7,0,5.3-2,5.3-6.1v-34c0-4.1-1.6-6.1-5.3-6.1c-3.7,0-5.2,2-5.2,6.1v34C310.5,68.4,312,70.5,315.7,70.5z"/>
	<path fill="#FFFFFF" d="M372.9,16.4v61.9h-12L351.9,46c-1.1-4.1-2.4-9.9-3.5-14.2c0.3,4.2,0.6,10.3,0.6,14.3v32.2h-8.6V16.4h13.4
		l7.8,27.2c1.1,4.2,2.4,9.9,3.4,14.2c-0.2-4.3-0.5-10.3-0.5-14.3V16.4H372.9z"/>
	<path fill="#FFFFFF" d="M402.7,69.2h-11.9l-1.5,9.1H380l10.7-61.9h13l10.7,61.9h-10.2L402.7,69.2z M392.2,60.7h9l-1.8-10.9
		c-0.9-5.7-1.9-12.8-2.7-21.5c-0.8,8.7-1.9,15.8-2.7,21.5L392.2,60.7z"/>
	<path fill="#FFFFFF" d="M421.9,16.4h10.2v53.1h13.1v8.8h-23.3V16.4z"/>
	<path fill="#FFFFFF" d="M459.7,64.4c0,4.1,1.3,6.1,5,6.1c3.7,0,5-2,5-6.1V63c0-13.7-19.5-11.2-19.5-32.2v-0.2
		c0-10.2,5-15.2,14.9-15.2c9.7,0,14.8,5,14.8,16.4v4.7h-9.5v-6.1c0-4.1-1.3-6.1-5-6.1c-3.7,0-5,2-5,6.1v0.5
		c0,13.8,19.5,11.3,19.5,32.2v1.1c0,10.1-5,15.1-14.9,15.1c-9.7,0-14.8-5.1-14.8-16.4v-6.3h9.5V64.4z"/>
</g>
<g>
	<path fill="#FFFFFF" d="M176.4,95.8h-8.5v42.1h6.2v-14.6h2.4c6.9,0,10.3-3.4,10.3-10.1v-7.2C186.7,99.2,183.3,95.8,176.4,95.8z
		 M174,101.4h2c3.4,0,4.5,1.1,4.5,4.5v7.5c0,3.3-1.1,4.4-4.5,4.4h-2V101.4z"/>
	<polygon fill="#FFFFFF" points="205.6,113.2 198.5,113.2 198.5,95.8 192.3,95.8 192.3,137.9 198.5,137.9 198.5,118.8 205.6,118.8 
		205.6,137.9 211.8,137.9 211.8,95.8 205.6,95.8 	"/>
	<rect x="219.2" y="95.8" fill="#FFFFFF" width="6.2" height="42.1"/>
	<polygon fill="#FFFFFF" points="239,95.8 232.8,95.8 232.8,137.9 247.9,137.9 247.9,132.3 239,132.3 	"/>
	<path fill="#FFFFFF" d="M264.5,95.8h-7.2l-7.2,42.1h5.7l1.1-6.6h7.5l1.2,6.6h6.2l-7.1-41.6L264.5,95.8z M261.8,116.1l1.7,9.8h-5.7
		l1.7-9.8c0.4-2.6,0.8-5.3,1.2-8.1C261,110.8,261.4,113.5,261.8,116.1z"/>
	<path fill="#FFFFFF" d="M291.4,117.7c0,0.8,0,1.8,0.1,2.9c-0.3-1.1-0.5-2.1-0.8-3l-6.3-21.8h-7.7v42.1h5.5v-25.3
		c0-0.8,0-1.8-0.1-2.8c0.3,1,0.5,2,0.7,2.9l7.3,25.2h6.6V95.8h-5.4V117.7z"/>
	<polygon fill="#FFFFFF" points="301.4,101.4 307.5,101.4 307.5,137.9 313.7,137.9 313.7,101.4 319.9,101.4 319.9,95.8 301.4,95.8 	
		"/>
	<polygon fill="#FFFFFF" points="337.8,113.2 330.7,113.2 330.7,95.8 324.5,95.8 324.5,137.9 330.7,137.9 330.7,118.8 337.8,118.8 
		337.8,137.9 344,137.9 344,95.8 337.8,95.8 	"/>
	<path fill="#FFFFFF" d="M370.6,126.7V125c0-4-1.2-6.6-3.6-8c2.4-1.4,3.6-4,3.6-7.8v-3.8c0-8.5-5-9.6-10-9.6h-9.1v42.1h6.2v-18.1
		h1.5c4.2,0,5.3,1.2,5.3,5.9v3.4c0,5,0.6,7.1,0.9,8.4l0.1,0.5h6.7l-0.4-0.9C371.1,135.2,370.6,133.8,370.6,126.7z M357.7,101.4h2.5
		c3.4,0,4.3,0.9,4.3,4.2v4.4c0,3.4-0.9,4.2-4.3,4.2h-2.5V101.4z"/>
	<path fill="#FFFFFF" d="M386.3,95.2c-6.4,0-9.7,3.5-9.7,10.5V128c0,7,3.3,10.5,9.7,10.5S396,135,396,128v-22.3
		C396,98.7,392.8,95.2,386.3,95.2z M382.8,105.1c0-3,1-4.3,3.5-4.3c2.5,0,3.5,1.3,3.5,4.3v23.6c0,3-1.1,4.3-3.5,4.3
		c-2.5,0-3.5-1.2-3.5-4.3V105.1z"/>
	<path fill="#FFFFFF" d="M411.3,95.8h-8.5v42.1h6.2v-14.6h2.4c6.9,0,10.3-3.4,10.3-10.1v-7.2C421.6,99.2,418.2,95.8,411.3,95.8z
		 M408.9,101.4h2c3.4,0,4.5,1.1,4.5,4.5v7.5c0,3.3-1.1,4.4-4.5,4.4h-2V101.4z"/>
	<rect x="427.1" y="95.8" fill="#FFFFFF" width="6.2" height="42.1"/>
	<polygon fill="#FFFFFF" points="446.9,118.8 455.2,118.8 455.2,113.2 446.9,113.2 446.9,101.4 456.2,101.4 456.2,95.8 440.7,95.8 
		440.7,137.9 456.5,137.9 456.5,132.3 446.9,132.3 	"/>
	<path fill="#FFFFFF" d="M480,110.1v-4.4c0-7-3.1-10.5-9.3-10.5c-6.2,0-9.3,3.4-9.3,10.1v0.1c0,7.6,3.8,10.8,7.1,13.6
		c2.9,2.4,5.3,4.4,5.3,8.9v0.8c0,3.1-0.9,4.3-3.3,4.3c-2,0-3.3-0.7-3.3-4.3v-6.2h-5.9v5.5c0,7,3.1,10.5,9.3,10.5
		c6.2,0,9.3-3.4,9.3-10.1v-0.5c0-7.6-3.8-10.7-7.1-13.5c-2.9-2.4-5.4-4.5-5.4-9v-0.4c0-3.6,1.3-4.3,3.3-4.3c2.5,0,3.4,1.2,3.4,4.3
		v5.1H480z"/>
</g>
</svg>
