<svg xmlns="http://www.w3.org/2000/svg" width="100.644" height="42.589" viewBox="0 0 100.644 42.589">
  <g id="Group_36" data-name="Group 36" transform="translate(-69.586 -104.759)">
    <g id="Group_32" data-name="Group 32" transform="translate(69.586 105.962)">
      <g id="Group_30" data-name="Group 30" transform="translate(3.614 0)">
        <path id="Path_155" data-name="Path 155" d="M829.766,366.587l.053,0Z" transform="translate(-800.365 -356.416)" fill="#fff"/>
        <path id="Path_156" data-name="Path 156" d="M831.605,366.562h0Z" transform="translate(-802.103 -356.395)" fill="#fff"/>
        <path id="Path_157" data-name="Path 157" d="M836.013,366.779l.027,0Z" transform="translate(-806.341 -356.602)" fill="#fff"/>
        <path id="Path_158" data-name="Path 158" d="M838.654,367.14l.011,0Z" transform="translate(-808.867 -356.947)" fill="#fff"/>
        <path id="Path_159" data-name="Path 159" d="M827.559,366.679l.074-.007Z" transform="translate(-798.254 -356.5)" fill="#fff"/>
        <path id="Path_160" data-name="Path 160" d="M822.289,367.572l.052-.013Z" transform="translate(-793.213 -357.348)" fill="#fff"/>
        <path id="Path_161" data-name="Path 161" d="M825.843,366.878l.065-.01Z" transform="translate(-796.612 -356.687)" fill="#fff"/>
        <path id="Path_162" data-name="Path 162" d="M820.013,368.021l.075-.022Z" transform="translate(-791.036 -357.769)" fill="#fff"/>
        <path id="Path_163" data-name="Path 163" d="M840.675,367.556l.029.007Z" transform="translate(-810.8 -357.345)" fill="#fff"/>
        <path id="Path_164" data-name="Path 164" d="M824.1,367.2l.051-.01Z" transform="translate(-794.945 -356.996)" fill="#fff"/>
        <path id="Path_165" data-name="Path 165" d="M833.831,366.613l.033,0Z" transform="translate(-804.253 -356.443)" fill="#fff"/>
        <path id="Path_166" data-name="Path 166" d="M855.112,374.012q.1.152.187.31-.086-.158-.187-.31a2.774,2.774,0,0,0-.918-.885A2.774,2.774,0,0,1,855.112,374.012Z" transform="translate(-823.732 -362.674)" fill="#fff"/>
        <path id="Path_167" data-name="Path 167" d="M849.589,370.695c-.043-.023-.087-.046-.133-.067h0C849.5,370.648,849.546,370.671,849.589,370.695Z" transform="translate(-819.2 -360.283)" fill="#fff"/>
        <path id="Path_168" data-name="Path 168" d="M894.642,446.079q.036.2.064.4Q894.678,446.277,894.642,446.079Z" transform="translate(-862.423 -432.458)" fill="#fff"/>
        <path id="Path_169" data-name="Path 169" d="M896.163,455.718q-.013-.14-.03-.28-.012-.1-.026-.2.014.1.026.2Q896.149,455.578,896.163,455.718Z" transform="translate(-863.824 -441.219)" fill="#fff"/>
        <path id="Path_170" data-name="Path 170" d="M846.842,369.5l.028.011Z" transform="translate(-816.699 -359.208)" fill="#fff"/>
        <path id="Path_171" data-name="Path 171" d="M893.593,440.726c.016.077.031.155.046.232C893.625,440.881,893.609,440.8,893.593,440.726Z" transform="translate(-861.42 -427.338)" fill="#fff"/>
        <path id="Path_172" data-name="Path 172" d="M844.737,368.723l.032.011Z" transform="translate(-814.686 -358.462)" fill="#fff"/>
        <path id="Path_173" data-name="Path 173" d="M842.7,368.082l.033.01Z" transform="translate(-812.736 -357.849)" fill="#fff"/>
        <path id="Path_174" data-name="Path 174" d="M185.846,148.3a13.22,13.22,0,0,0-.091-1.711,9.413,9.413,0,0,0-.352-1.692,5.724,5.724,0,0,0-.68-1.471,3.385,3.385,0,0,0-1.39-1.224,2.412,2.412,0,0,0-1.032-.239,2.357,2.357,0,0,0-.725.116,2.632,2.632,0,0,0-1.06.659c-.039.039-.077.079-.113.119l-10.41-10.41L152.8,149.648l20.884,20.885,17.195-17.195Zm-4.4-5.458a1.877,1.877,0,0,1,.328-.141l.075-.022.024-.006.052-.013.026-.006.051-.01.024,0,.065-.01h.009l.074-.007h.022l.053,0h.066l.057,0,.033,0,.062.005.027,0,.088.013.011,0,.076.016.029.007.059.016.033.01.056.018.032.011.059.023.028.011.086.038h0c.045.021.089.044.133.067l.073.041a2.774,2.774,0,0,1,.918.885q.1.152.187.31.043.079.083.159a5.661,5.661,0,0,1,.332.836c.077.246.14.494.192.745.016.077.031.155.046.232q.036.2.064.4.014.1.026.2.017.14.03.28c.036.374.053.748.056,1.122,0,.281,0,.562-.017.843q-.008.168-.019.335-.024.35-.064.7-.02.172-.043.343a16.9,16.9,0,0,1-.453,2.208,14.906,14.906,0,0,1-1.119,2.89,10.269,10.269,0,0,1-.648,1.094c-.144.21-.3.413-.461.609q-.076.09-.154.177-.117.131-.24.254-.165.165-.341.316a5.163,5.163,0,0,1-.463.353q-.1.065-.2.127a4,4,0,0,1-1.51.556h0l-.132.017-.044,0-.089.008-.052,0-.081,0-.055,0h-.178l-.109,0H178.7l-.093-.007-.032,0-.091-.01-.019,0-.107-.015-.028,0-.084-.015-.03-.006-.107-.023-.011,0-.1-.025-.031-.009-.085-.026-.022-.007-.1-.036-.025-.009-.083-.032-.03-.012-.1-.045c-.046-.021-.091-.044-.136-.068l-.138-.073c-.017.023-.034.046-.049.069a4.864,4.864,0,0,1-1,1.086q-.128.1-.263.194t-.278.176a4.738,4.738,0,0,1-.446.229q-.076.034-.154.065-.155.062-.313.112-.079.025-.159.047a4.515,4.515,0,0,1-.653.126h0c-.057.007-.113.012-.17.017l-.05,0-.127.007-.049,0c-.056,0-.113,0-.169,0h-.008l-.162,0h-.035l-.164-.01-.029,0-.15-.014-.026,0-.163-.022-.036-.006-.167-.028a2.622,2.622,0,0,1-.306-.077q-.1-.033-.206-.075a2.883,2.883,0,0,1-.684-.4,3.433,3.433,0,0,1-.35-.316,3.868,3.868,0,0,1-.606-.831l-.025-.047q-.028-.053-.055-.106-.053-.105-.1-.212-.056-.127-.105-.257-.06-.159-.109-.322-.033-.109-.061-.219-.014-.055-.027-.11-.026-.111-.049-.223-.011-.056-.021-.112t-.02-.113q-.035-.212-.056-.424-.011-.106-.018-.212-.023-.319-.018-.638,0-.213.017-.427.026-.4.083-.8.021-.147.046-.293.015-.09.032-.18t.031-.157q.035-.172.077-.343.09-.373.207-.742.108-.338.226-.672.059-.167.12-.333c.2-.554.427-1.1.658-1.644.294-.69.6-1.372.955-2.034.016-.03.03-.06.045-.093l.049-.106-.154.02c-.049.006-.1.013-.142.021a4.346,4.346,0,0,0-.591.144q-.124.04-.244.088a3.636,3.636,0,0,0-.47.226,2.687,2.687,0,0,0-.937.856c-.013.02-.026.041-.038.061s-.023.042-.035.063c-.026.05-.049.1-.077.158l.092.047a1.668,1.668,0,0,1,.482.36,1.426,1.426,0,0,1,.1.129,1.449,1.449,0,0,1,.163.295,1.637,1.637,0,0,1,.081.254,1.4,1.4,0,0,1,.037.336c0,.02,0,.039,0,.059s-.005.066-.009.1a1.332,1.332,0,0,1-.126.418,1.326,1.326,0,0,1-.08.14c-.014.021-.029.042-.044.063a1.326,1.326,0,0,1-.126.147,1.347,1.347,0,0,1-.312.232l-.076.038-.025.011-.051.022-.031.011-.046.017-.033.01-.044.013-.034.008-.044.01-.035.006-.043.007-.035,0-.043,0-.035,0h-.113l-.041,0-.033,0-.041,0-.033,0-.041-.007-.032-.006-.042-.009-.031-.007-.044-.012-.029-.008-.049-.016-.025-.008-.074-.028-.064-.027a1.4,1.4,0,0,1-.25-.149c-.022-.017-.044-.034-.066-.052s-.054-.046-.08-.071l-.085-.082c-.042-.042-.083-.086-.124-.13a2.706,2.706,0,0,1-.253-.319,2.158,2.158,0,0,1-.121-.2,2.583,2.583,0,0,1-.228-.625,2.833,2.833,0,0,1-.066-.515,3.427,3.427,0,0,1,.173-1.2q.073-.223.163-.436a5.068,5.068,0,0,1,.273-.548,4.911,4.911,0,0,1,.431-.629q.1-.119.2-.234t.217-.223q.053-.051.107-.1.109-.1.224-.189t.235-.174l.121-.082q.122-.081.249-.155a7.062,7.062,0,0,1,.745-.38l.081-.035q.115-.049.231-.094.136-.053.274-.1c.276-.1.558-.181.843-.254a13.069,13.069,0,0,1,1.379-.274q.384-.056.77-.094.193-.019.386-.035t.387-.027l.211-.011.046,0,.209-.009h.034l.191-.006h.036l.208,0h.045l.215,0h.021l.07,0-.01.021c-.009.02-.016.036-.025.052-.25.441-.485.891-.712,1.344q-.114.227-.225.454c-.2.417-.412.831-.609,1.251q-.094.2-.185.4-.456,1.007-.848,2.041-.157.413-.3.831-.1.3-.2.6-.2.6-.362,1.21-.083.3-.157.612c-.069.288-.133.576-.189.866-.062.32-.115.642-.155.967a5.63,5.63,0,0,0-.045.681q0,.128.007.255c0,.028,0,.057.006.085.009.113.023.227.044.34.012.069.026.137.043.2a2.225,2.225,0,0,0,.1.295,1.826,1.826,0,0,0,.089.188q.025.046.053.091a1.615,1.615,0,0,0,.1.139,1.45,1.45,0,0,0,.108.123l0,0a1.355,1.355,0,0,0,.106.1c.03.025.062.048.094.069a1.435,1.435,0,0,0,.654.23l.091.008h.016l.087,0h.018l.079,0h.005l.082-.006.018,0,.081-.01h.009l.075-.012.017,0,.079-.017.015,0,.072-.018.012,0,.079-.023.018-.006.08-.026a3.283,3.283,0,0,0,.613-.285l.094-.059q.093-.06.182-.127a3.317,3.317,0,0,0,.257-.214,3.547,3.547,0,0,0,.313-.328c.011-.013.02-.027.034-.044h0a.3.3,0,0,0-.021-.034,5.256,5.256,0,0,1-.606-.956q-.106-.216-.194-.44-.059-.15-.109-.3-.025-.077-.049-.154-.07-.232-.124-.473-.018-.08-.034-.161t-.03-.162a8.192,8.192,0,0,1-.1-.815q-.006-.082-.01-.164-.018-.335-.014-.669c0-.371.029-.741.069-1.111l0-.015q.02-.191.045-.381l0-.031c.051-.394.117-.786.206-1.174q.019-.082.039-.164.05-.2.108-.4a9.437,9.437,0,0,1,.573-1.486q.035-.071.071-.142.109-.212.231-.419.081-.138.169-.273t.191-.281q.066-.092.134-.181.1-.134.214-.262a5,5,0,0,1,.392-.4q.125-.115.259-.221.061-.048.123-.094c.083-.061.168-.118.255-.171q.065-.04.133-.076a2.557,2.557,0,0,1,.57-.227l.09-.021.024-.005.076-.014.015,0,.088-.013.022,0,.072-.007.021,0,.087,0h.078l.093,0h.023q.057,0,.114.01l.029,0,.086.013.037.007.085.018.03.007q.056.014.112.03l.02.006.092.03.035.013.08.031.033.014c.037.016.074.032.11.049q.1.048.2.1t.182.119q.044.031.086.064a2.621,2.621,0,0,1,.512.541q.031.044.061.089c.028.043.055.086.081.131s.059.1.086.153q.079.15.143.3a4.424,4.424,0,0,1,.268.965,6.748,6.748,0,0,1,.088,1.159s0,0,0,0q0,.192-.012.385a11.214,11.214,0,0,1-.117,1.12q-.014.091-.029.182-.038.229-.085.456-.084.414-.192.825a14.01,14.01,0,0,1-.543,1.662q-.161.4-.347.8a13.7,13.7,0,0,1-1.007,1.771c-.074.11-.151.219-.227.328-.007.01-.012.02-.02.034l-.008.014h0l.032,0H179l.043,0h.01l.038-.006h0l.042-.009.015,0,.033-.008q.059-.014.117-.031a2.56,2.56,0,0,0,.742-.379,4.359,4.359,0,0,0,.441-.357,5.708,5.708,0,0,0,.634-.7q.092-.118.178-.238a7.782,7.782,0,0,0,.432-.676q.041-.071.08-.143.069-.127.133-.256t.125-.261q.11-.238.207-.483a10.258,10.258,0,0,0,.548-1.92c.014-.075.028-.151.04-.227a12.553,12.553,0,0,0,.179-2.29q0-.108-.007-.215-.009-.214-.03-.427-.015-.16-.038-.318-.008-.053-.016-.106-.017-.106-.037-.211-.01-.053-.021-.1-.034-.157-.076-.313a4.083,4.083,0,0,0-.586-1.291,2.956,2.956,0,0,0-1.114-.968q-.121-.06-.248-.109t-.262-.089l-.136-.037-.08-.02c0-.014,0-.027,0-.041a.625.625,0,0,1,0-.08c0-.026.007-.053.013-.079s.012-.052.019-.078l.011-.039a1.841,1.841,0,0,1,.092-.251q.027-.06.058-.118.047-.087.1-.169l.037-.054a2.447,2.447,0,0,1,.258-.3A2.075,2.075,0,0,1,181.45,142.847Z" transform="translate(-152.8 -132.453)" fill="#fff"/>
        <path id="Path_175" data-name="Path 175" d="M705.328,494.48c0-.038.005-.076.007-.113s0-.077.005-.116a3.761,3.761,0,0,0-.01-.451c-.007-.075-.016-.151-.028-.226q-.006-.033-.012-.066a1.535,1.535,0,0,0-.07-.257,1.048,1.048,0,0,0-.055-.122c-.011-.02-.022-.039-.034-.058a.438.438,0,0,0-.233-.19.464.464,0,0,0-.089-.021l-.055-.005h-.071l-.062,0h-.012l-.063.007h0l-.06.012-.011,0-.059.017-.012,0-.059.022h0l-.057.026-.011.005-.056.03-.011.006-.056.035a1.474,1.474,0,0,0-.328.3q-.027.033-.053.068-.076.1-.141.211c-.046.077-.089.155-.129.235-.026.052-.05.1-.073.157a4.726,4.726,0,0,0-.212.59,7.34,7.34,0,0,0-.177.758q-.027.153-.049.306t-.035.29c-.006.057-.012.114-.016.171s-.008.1-.012.155-.007.108-.01.162q-.008.149-.012.3,0,.08,0,.161t0,.156q0,.292.019.582.024.387.078.772.014.1.029.192c.013.081.027.161.042.241.035.188.076.375.123.56q.025.1.053.2.083.295.19.584l.017.045.038.094.021.051.005-.009.021-.033c.007-.012.014-.023.019-.034l.065-.129c.065-.129.13-.257.19-.388.206-.446.391-.9.559-1.358q.162-.442.3-.891.052-.164.1-.33c.116-.388.224-.778.314-1.171q.039-.169.073-.338A9.846,9.846,0,0,0,705.328,494.48Z" transform="translate(-679.007 -477.201)" fill="#fff"/>
      </g>
      <g id="Group_31" data-name="Group 31" transform="translate(0 17.945)">
        <path id="Path_176" data-name="Path 176" d="M72.51,548.066l.481-.481a.919.919,0,0,0,.327-.769,1.061,1.061,0,0,0-.34-.6l-.572-.572-2.821,2.821.412.412.981-.982.16.16A.859.859,0,0,0,72.51,548.066Zm-1.021-.409-.136-.136,1.094-1.094.136.136c.226.226.227.378,0,.6l-.5.5C71.866,547.885,71.715,547.883,71.489,547.657Z" transform="translate(-69.586 -545.642)" fill="#fff"/>
        <path id="Path_177" data-name="Path 177" d="M110.987,584.223l-1.165,1.165-.478-.478,1.165-1.165-.412-.412-2.821,2.821.412.412,1.283-1.283.478.478-1.283,1.283.412.412,2.821-2.82Z" transform="translate(-105.639 -581.696)" fill="#fff"/>
        <rect id="Rectangle_9" data-name="Rectangle 9" width="3.989" height="0.583" transform="translate(3.436 6.257) rotate(-45)" fill="#fff"/>
        <path id="Path_178" data-name="Path 178" d="M170.522,648.654l2.448-2.448-.412-.412-2.821,2.82,1.012,1.012.373-.373Z" transform="translate(-165.387 -641.444)" fill="#fff"/>
        <path id="Path_179" data-name="Path 179" d="M199.682,683.545l-3.3,2.338.383.383.515-.368.5.5-.364.519.413.413,2.338-3.3Zm-.6,1.045c-.163.209-.317.414-.463.621l-.544.767-.381-.381.767-.544C198.672,684.907,198.878,684.753,199.087,684.59Z" transform="translate(-190.872 -677.556)" fill="#fff"/>
        <path id="Path_180" data-name="Path 180" d="M241.343,714.579l-1.465,1.465c-.055.055-.12.123-.19.2.054-.089.1-.173.147-.248l1.043-1.88-.514-.514-2.821,2.821.366.366,1.7-1.7c.054-.054.118-.121.187-.194-.053.087-.1.171-.145.243l-1.2,2.181.441.441,2.821-2.821Z" transform="translate(-230.249 -706.305)" fill="#fff"/>
        <path id="Path_181" data-name="Path 181" d="M288.221,753.081l.373-.373-1.24-1.24-.373.373.414.414-2.448,2.448.412.412,2.448-2.448Z" transform="translate(-275.593 -742.529)" fill="#fff"/>
        <path id="Path_182" data-name="Path 182" d="M314.853,788.089l-1.165,1.165-.478-.478,1.165-1.165-.412-.412-2.821,2.82.412.412,1.283-1.283.478.478-1.283,1.283.412.412,2.821-2.821Z" transform="translate(-300.651 -776.708)" fill="#fff"/>
        <path id="Path_183" data-name="Path 183" d="M354.9,832.047a.792.792,0,0,0,.292-.779.774.774,0,0,0,.767-.28l.254-.254a.8.8,0,0,0-.025-1.312l-.61-.61-2.821,2.821.412.412,1.216-1.216.1.1c.147.147.211.259.206.363a.661.661,0,0,1-.241.386l-.231.231a2.6,2.6,0,0,0-.5.626l-.022.039.452.452.032-.085c.066-.171.13-.3.609-.78Zm.026-1.426-.167-.167.859-.859.167.167c.226.226.226.348,0,.57l-.293.293C355.268,830.85,355.151,830.85,354.922,830.621Z" transform="translate(-340.456 -816.512)" fill="#fff"/>
        <path id="Path_184" data-name="Path 184" d="M401.507,876.09a1.059,1.059,0,0,0,.364-.708,1.068,1.068,0,0,0-.956-.956,1.063,1.063,0,0,0-.706.365l-1.494,1.494a.851.851,0,0,0-.057,1.356.9.9,0,0,0,.634.3,1.045,1.045,0,0,0,.722-.362Zm-2.587.926a.485.485,0,0,1,.164-.276l1.58-1.58a.449.449,0,0,1,.3-.166.326.326,0,0,1,.227.116c.166.166.151.323-.05.524l-1.58,1.58c-.2.2-.358.216-.524.05A.311.311,0,0,1,398.92,877.016Z" transform="translate(-384.07 -860.147)" fill="#fff"/>
        <path id="Path_185" data-name="Path 185" d="M434.711,910.267l.481-.481a.919.919,0,0,0,.327-.769,1.061,1.061,0,0,0-.34-.6l-.572-.572-2.821,2.821.412.412.982-.982.16.16A.859.859,0,0,0,434.711,910.267Zm-1.021-.409-.136-.136,1.094-1.094.136.136c.226.226.227.378,0,.6l-.5.5C434.067,910.086,433.916,910.084,433.69,909.858Z" transform="translate(-416.056 -892.112)" fill="#fff"/>
        <rect id="Rectangle_10" data-name="Rectangle 10" width="3.989" height="0.583" transform="translate(17.36 20.18) rotate(-45)" fill="#fff"/>
        <path id="Path_186" data-name="Path 186" d="M492.022,968.333l.553.553.373-.373-.553-.553.793-.793.623.623.373-.373-1.035-1.035-2.821,2.821,1.055,1.055.373-.373-.642-.642Z" transform="translate(-472.054 -948.11)" fill="#fff"/>
        <path id="Path_187" data-name="Path 187" d="M532.023,1005.021a.867.867,0,0,0-.633-.3,1.016,1.016,0,0,0-.668.348l-.008.008a1.49,1.49,0,0,0-.431,1.387,1.025,1.025,0,0,1-.239.954l-.055.055c-.209.209-.347.227-.508.065a.279.279,0,0,1-.105-.237.521.521,0,0,1,.171-.271l.413-.413-.393-.393-.37.37c-.469.469-.5.917-.081,1.333a.868.868,0,0,0,.609.3,1,1,0,0,0,.689-.35l.035-.035a1.493,1.493,0,0,0,.43-1.383,1.038,1.038,0,0,1,.243-.962l.023-.023c.238-.238.375-.2.508-.065.164.164.148.3-.062.512l-.339.339.389.389.3-.3C532.407,1005.881,532.436,1005.434,532.023,1005.021Z" transform="translate(-508.879 -984.784)" fill="#fff"/>
      </g>
    </g>
    <g id="Group_33" data-name="Group 33" transform="translate(115.155 132.978)">
      <path id="Path_188" data-name="Path 188" d="M1124.481,756.246h-1.837v10.4h-1.993v-10.4h-1.837v-1.733h5.667Z" transform="translate(-1118.814 -754.513)" fill="#fff"/>
      <path id="Path_189" data-name="Path 189" d="M1280.825,766.645h-1.993V754.513h1.993v4.939h2.062v-4.939h1.993v12.132h-1.993V761.2h-2.062Z" transform="translate(-1271.882 -754.513)" fill="#fff"/>
      <path id="Path_190" data-name="Path 190" d="M1467.18,764.912h2.773v1.733h-4.766V754.513h4.679v1.733h-2.686v3.206h2.34v1.75h-2.34Z" transform="translate(-1450.144 -754.513)" fill="#fff"/>
      <path id="Path_191" data-name="Path 191" d="M1692.237,766.645h-1.993V754.513h2.79a5.475,5.475,0,0,1,1.152.121,2.569,2.569,0,0,1,1.005.451,2.313,2.313,0,0,1,.711.919,3.7,3.7,0,0,1,.269,1.525V759.5a3.7,3.7,0,0,1-.269,1.525,2.382,2.382,0,0,1-.711.927,2.5,2.5,0,0,1-1.005.459,5.451,5.451,0,0,1-1.152.121h-.8Zm0-10.4v4.541h.71a1.328,1.328,0,0,0,.945-.277,1.268,1.268,0,0,0,.286-.936v-2.1a1.3,1.3,0,0,0-.286-.953,1.329,1.329,0,0,0-.945-.277Z" transform="translate(-1665.426 -754.513)" fill="#fff"/>
      <path id="Path_192" data-name="Path 192" d="M1852.3,764.86h-2.322l-.295,1.785h-1.82l2.1-12.132h2.548l2.1,12.132h-1.993Zm-2.045-1.664h1.768l-.347-2.132q-.139-.832-.277-1.88t-.26-2.331q-.122,1.283-.26,2.331t-.277,1.88Z" transform="translate(-1816.202 -754.513)" fill="#fff"/>
      <path id="Path_193" data-name="Path 193" d="M2038.606,761.5v5.147h-1.993V754.513h2.964a7.244,7.244,0,0,1,1.135.087,2.251,2.251,0,0,1,.962.381,2.046,2.046,0,0,1,.667.849,3.671,3.671,0,0,1,.251,1.49v.9a3.906,3.906,0,0,1-.1.962,2.381,2.381,0,0,1-.286.693,1.76,1.76,0,0,1-.425.468,2,2,0,0,1-.537.286,2.083,2.083,0,0,1,.979.806,3.135,3.135,0,0,1,.373,1.707v.364q0,.832.035,1.343a7.946,7.946,0,0,0,.1.849,2.472,2.472,0,0,0,.147.537q.087.2.191.407h-2.149q-.052-.138-.1-.329a4.28,4.28,0,0,1-.1-.477q-.043-.286-.078-.693t-.035-.979v-.9a3.927,3.927,0,0,0-.078-.858,1.3,1.3,0,0,0-.251-.546.882.882,0,0,0-.459-.286,2.788,2.788,0,0,0-.719-.078Zm.8-1.75a1.35,1.35,0,0,0,.927-.251,1.223,1.223,0,0,0,.269-.91v-1.161a1.256,1.256,0,0,0-.269-.918,1.318,1.318,0,0,0-.927-.26h-.8v3.5Z" transform="translate(-1996.752 -754.513)" fill="#fff"/>
      <path id="Path_194" data-name="Path 194" d="M2220.168,760.25q.225-.607.555-1.387t.762-1.768l1.2-2.582h1.924l-2.271,5.113,2.34,7.019h-2.045l-1.577-4.957-.884,1.716v3.241h-1.993V754.513h1.993Z" transform="translate(-2170.429 -754.513)" fill="#fff"/>
    </g>
    <g id="Group_34" data-name="Group 34" transform="translate(115.335 112.224)">
      <path id="Path_195" data-name="Path 195" d="M1125.844,286.758v7.448h-2.884V276.651h4.289a10.485,10.485,0,0,1,1.643.125,3.258,3.258,0,0,1,1.392.552,2.958,2.958,0,0,1,.966,1.229,5.31,5.31,0,0,1,.364,2.157v1.3a5.67,5.67,0,0,1-.151,1.392,3.442,3.442,0,0,1-.414,1,2.536,2.536,0,0,1-.614.677,2.893,2.893,0,0,1-.777.414,3.013,3.013,0,0,1,1.417,1.166,4.532,4.532,0,0,1,.539,2.47v.527q0,1.2.05,1.944a11.475,11.475,0,0,0,.138,1.229,3.578,3.578,0,0,0,.213.777q.125.289.276.589h-3.11q-.075-.2-.15-.477a6.1,6.1,0,0,1-.138-.69q-.063-.414-.113-1t-.05-1.417v-1.3a5.657,5.657,0,0,0-.113-1.241,1.875,1.875,0,0,0-.364-.79,1.278,1.278,0,0,0-.665-.414,4.037,4.037,0,0,0-1.041-.113Zm1.154-2.533a1.953,1.953,0,0,0,1.342-.364,1.769,1.769,0,0,0,.389-1.317v-1.68a1.818,1.818,0,0,0-.389-1.329,1.908,1.908,0,0,0-1.342-.376h-1.154v5.066Z" transform="translate(-1122.96 -276.651)" fill="#fff"/>
      <path id="Path_196" data-name="Path 196" d="M1388.573,291.7h4.013v2.508h-6.9V276.651h6.771v2.508h-3.887v4.64h3.385v2.533h-3.385Z" transform="translate(-1374.278 -276.651)" fill="#fff"/>
      <path id="Path_197" data-name="Path 197" d="M1583.993,284.726q.175,1.053.351,2.37t.326,2.871q.15-1.555.326-2.871t.351-2.37l1.329-8.075h2.658l-3.009,17.555h-3.586l-3.034-17.555h2.934Z" transform="translate(-1559.867 -276.651)" fill="#fff"/>
      <path id="Path_198" data-name="Path 198" d="M1931.7,291.573a1.461,1.461,0,0,0,1.154.4q1.479,0,1.48-1.655V276.651h2.683v13.442a4.3,4.3,0,1,1-8.552,0V276.651h2.884v13.668A1.869,1.869,0,0,0,1931.7,291.573Z" transform="translate(-1893.482 -276.651)" fill="#fff"/>
      <path id="Path_199" data-name="Path 199" d="M2192.344,294.206h-2.884V276.651h4.038a7.919,7.919,0,0,1,1.668.176,3.717,3.717,0,0,1,1.454.652,3.347,3.347,0,0,1,1.028,1.329,5.357,5.357,0,0,1,.389,2.207v2.859a5.356,5.356,0,0,1-.389,2.207,3.448,3.448,0,0,1-1.028,1.342,3.613,3.613,0,0,1-1.454.665,7.9,7.9,0,0,1-1.668.176h-1.154Zm0-15.047v6.571h1.028a1.922,1.922,0,0,0,1.367-.4,1.835,1.835,0,0,0,.414-1.354v-3.035a1.876,1.876,0,0,0-.414-1.379,1.924,1.924,0,0,0-1.367-.4Z" transform="translate(-2143.141 -276.651)" fill="#fff"/>
    </g>
    <g id="Group_35" data-name="Group 35" transform="translate(115.452 104.759)">
      <path id="Path_200" data-name="Path 200" d="M1127.074,109.485h-.745l-.095.573h-.584l.673-3.891h.817l.673,3.891h-.639Zm-.656-.534h.567l-.111-.684q-.045-.267-.089-.6t-.083-.748q-.039.411-.083.748t-.089.6Z" transform="translate(-1125.651 -106.105)" fill="#fff"/>
      <path id="Path_201" data-name="Path 201" d="M1216.824,106.166h.906a1.759,1.759,0,0,1,.37.039.825.825,0,0,1,.323.145.744.744,0,0,1,.228.295,1.188,1.188,0,0,1,.086.489v1.957a1.188,1.188,0,0,1-.086.489.743.743,0,0,1-.228.295.823.823,0,0,1-.323.145,1.748,1.748,0,0,1-.37.039h-.906Zm.639.556v2.78h.239a.426.426,0,0,0,.3-.089.416.416,0,0,0,.092-.306v-1.99a.416.416,0,0,0-.092-.306.426.426,0,0,0-.3-.089Z" transform="translate(-1212.864 -106.105)" fill="#fff"/>
      <path id="Path_202" data-name="Path 202" d="M1301.535,109.485h-.745l-.094.573h-.584l.673-3.891h.817l.673,3.891h-.639Zm-.656-.534h.567l-.111-.684q-.044-.267-.089-.6t-.083-.748q-.039.411-.083.748t-.089.6Z" transform="translate(-1292.535 -106.105)" fill="#fff"/>
      <path id="Path_203" data-name="Path 203" d="M1392.594,108.807q.028-.256.072-.525t.089-.509l.323-1.607h.889v3.891h-.623V108.2q0-.317.011-.609t.028-.609q-.044.317-.092.6t-.108.609l-.384,1.862h-.5l-.384-1.862q-.061-.322-.108-.609t-.092-.6q.017.317.028.609t.011.609v1.857h-.534v-3.891h.9l.322,1.607q.044.239.089.509T1392.594,108.807Z" transform="translate(-1379.687 -106.105)" fill="#fff"/>
      <path id="Path_204" data-name="Path 204" d="M1562.865,109.5h.889v.556h-1.529v-3.891h1.5v.556h-.862v1.028h.75v.562h-.75Z" transform="translate(-1543.265 -106.105)" fill="#fff"/>
      <path id="Path_205" data-name="Path 205" d="M1638.72,109.485h-.745l-.094.573h-.584l.673-3.891h.817l.673,3.891h-.639Zm-.656-.534h.567l-.111-.684q-.045-.267-.089-.6t-.083-.748q-.039.411-.083.748t-.089.6Z" transform="translate(-1615.076 -106.105)" fill="#fff"/>
      <path id="Path_206" data-name="Path 206" d="M1720.65,106.722h-.589v3.335h-.639v-3.335h-.589v-.556h1.818Z" transform="translate(-1693.07 -106.105)" fill="#fff"/>
      <path id="Path_207" data-name="Path 207" d="M1800.52,105.787a1.066,1.066,0,0,1,.247-.784.982.982,0,0,1,.72-.245.992.992,0,0,1,.723.245,1.059,1.059,0,0,1,.25.784v1.957a1.059,1.059,0,0,1-.25.784.992.992,0,0,1-.723.245.982.982,0,0,1-.72-.245,1.066,1.066,0,0,1-.247-.784Zm.639,2.046a.461.461,0,0,0,.075.289.3.3,0,0,0,.253.094.313.313,0,0,0,.256-.094.448.448,0,0,0,.078-.289V105.7a.448.448,0,0,0-.078-.289.313.313,0,0,0-.256-.094.3.3,0,0,0-.253.094.461.461,0,0,0-.075.289Z" transform="translate(-1771.21 -104.759)" fill="#fff"/>
      <path id="Path_208" data-name="Path 208" d="M1889.855,106.166v3.891h-.75l-.573-2.035q-.05-.195-.108-.442t-.108-.448q.005.1.014.217t.014.239q.005.122.008.236t0,.209v2.023h-.539v-3.891h.839l.489,1.707q.05.2.108.445t.1.45q-.011-.206-.022-.459t-.011-.442v-1.7Z" transform="translate(-1854.714 -106.105)" fill="#fff"/>
      <path id="Path_209" data-name="Path 209" d="M1977.748,106.166h.567v.845l-.545.6-.05-.039.322-.562h-.295Z" transform="translate(-1940.714 -106.105)" fill="#fff"/>
      <path id="Path_210" data-name="Path 210" d="M2034.315,107.833a.488.488,0,0,0,.069.289.281.281,0,0,0,.242.094.288.288,0,0,0,.247-.094.488.488,0,0,0,.069-.289v-.083a.647.647,0,0,0-.092-.359,1.175,1.175,0,0,0-.225-.256,3.647,3.647,0,0,0-.295-.225,1.581,1.581,0,0,1-.295-.264,1.354,1.354,0,0,1-.225-.372,1.426,1.426,0,0,1-.092-.548v-.011a.836.836,0,0,1,.934-.956.919.919,0,0,1,.692.245,1.1,1.1,0,0,1,.236.784v.295h-.595V105.7a.489.489,0,0,0-.069-.289.281.281,0,0,0-.242-.094.288.288,0,0,0-.247.094.489.489,0,0,0-.069.289v.033a.649.649,0,0,0,.092.359,1.234,1.234,0,0,0,.225.258,3.237,3.237,0,0,0,.295.228,1.581,1.581,0,0,1,.295.264,1.366,1.366,0,0,1,.225.37,1.407,1.407,0,0,1,.092.545v.067a.833.833,0,0,1-.934.951.913.913,0,0,1-.692-.247,1.1,1.1,0,0,1-.236-.781v-.395h.595Z" transform="translate(-1994.282 -104.759)" fill="#fff"/>
    </g>
  </g>
</svg>
