<svg xmlns="http://www.w3.org/2000/svg" width="87.595" height="35.141" viewBox="0 0 87.595 35.141">
  <g id="Group_29" data-name="Group 29" transform="translate(-2319.109 1156.667)">
    <path id="Path_112" data-name="Path 112" d="M3371.548-1082.3c0,2.677-1.919,3.99-5.773,3.99a10.45,10.45,0,0,1-5.942-1.517l1.188-2.8a8.556,8.556,0,0,0,4.652,1.245c1.46,0,2.054-.29,2.054-.921,0-.546-.543-.8-1.732-.8a8.566,8.566,0,0,0-2.8.426l-2.734-.7.645-6.734h9.763v3.086h-6.792l-.187,1.944a5.855,5.855,0,0,1,3.311-.887C3370-1085.967,3371.548-1084.688,3371.548-1082.3Z" transform="translate(-1002.346 -64.103)" fill="#fff"/>
    <path id="Path_113" data-name="Path 113" d="M3688.854-1089.657a5.821,5.821,0,0,1,6.2-6,5.821,5.821,0,0,1,6.2,6,5.82,5.82,0,0,1-6.2,6A5.821,5.821,0,0,1,3688.854-1089.657Zm8.574,0c0-1.654-.917-2.694-2.377-2.694s-2.377,1.04-2.377,2.694.917,2.694,2.377,2.694S3697.428-1088,3697.428-1089.657Z" transform="translate(-1319.233 -58.759)" fill="#fff"/>
    <path id="Path_114" data-name="Path 114" d="M4041.046-1082.3c0,2.677-1.918,3.99-5.773,3.99a10.45,10.45,0,0,1-5.942-1.517l1.188-2.8a8.556,8.556,0,0,0,4.652,1.245c1.46,0,2.054-.29,2.054-.921,0-.546-.543-.8-1.732-.8a8.567,8.567,0,0,0-2.8.426l-2.733-.7.645-6.734h9.763v3.086h-6.792l-.187,1.944a5.857,5.857,0,0,1,3.311-.887C4039.5-1085.967,4041.046-1084.688,4041.046-1082.3Z" transform="translate(-1647.155 -64.103)" fill="#fff" opacity="0.5"/>
    <path id="Path_115" data-name="Path 115" d="M4358.352-1089.657a5.82,5.82,0,0,1,6.2-6,5.82,5.82,0,0,1,6.2,6,5.82,5.82,0,0,1-6.2,6A5.82,5.82,0,0,1,4358.352-1089.657Zm8.574,0c0-1.654-.917-2.694-2.377-2.694s-2.377,1.04-2.377,2.694.917,2.694,2.377,2.694S4366.926-1088,4366.926-1089.657Z" transform="translate(-1964.043 -58.759)" fill="#fff" opacity="0.5"/>
    <g id="Group_25" data-name="Group 25" transform="translate(2358.09 -1139.064)">
      <path id="Path_116" data-name="Path 116" d="M3378.728-670.342v6.623h-2.538v-15.611h3.774c1.986,0,3.84.4,3.84,3.613v1.16c0,1.918-.728,2.743-1.721,3.1,1.015.4,1.721,1.271,1.721,3.234v.468c0,2.832.243,3.345.6,4.036h-2.737a9.193,9.193,0,0,1-.4-3.189v-1.16c0-1.784-.464-2.275-1.92-2.275Zm1.015-2.252c1.125,0,1.523-.357,1.523-1.494v-1.494c0-1.137-.4-1.516-1.523-1.516h-1.015v4.5Z" transform="translate(-3376.19 679.329)" fill="#fff"/>
      <path id="Path_117" data-name="Path 117" d="M3632-666.015h-2.958l-.375,2.3h-2.317l2.67-15.611h3.244l2.671,15.611H3632.4Zm-2.6-2.141h2.251l-.441-2.743c-.221-1.427-.486-3.234-.684-5.419-.2,2.185-.464,3.992-.685,5.419Z" transform="translate(-3617.124 679.329)" fill="#fff"/>
      <path id="Path_118" data-name="Path 118" d="M3911.965-663.718h-2.538v-15.611h5.8v2.23h-3.267v4.438h2.825v2.252h-2.825Z" transform="translate(-3889.763 679.329)" fill="#fff"/>
      <path id="Path_119" data-name="Path 119" d="M4118.434-663.718H4115.9v-15.611h5.8v2.23h-3.267v4.438h2.825v2.252h-2.825Z" transform="translate(-4088.618 679.329)" fill="#fff"/>
      <path id="Path_120" data-name="Path 120" d="M4322.366-679.329h2.538v13.381h3.266v2.23h-5.8Z" transform="translate(-4287.475 679.329)" fill="#fff"/>
      <path id="Path_121" data-name="Path 121" d="M4527.19-665.948h3.531v2.23h-6.069v-15.611h5.958v2.23h-3.421v4.126h2.979v2.252h-2.979Z" transform="translate(-4482.301 679.329)" fill="#fff"/>
    </g>
    <g id="Group_28" data-name="Group 28" transform="translate(2319.109 -1156.667)">
      <g id="Group_26" data-name="Group 26" transform="translate(3.069)">
        <path id="Path_122" data-name="Path 122" d="M3079.289-922.534l.045,0Z" transform="translate(-3054.325 931.17)" fill="#fff"/>
        <path id="Path_123" data-name="Path 123" d="M3081.124-922.558h0Z" transform="translate(-3056.074 931.191)" fill="#fff"/>
        <path id="Path_124" data-name="Path 124" d="M3085.536-922.341l.022,0Z" transform="translate(-3060.342 930.982)" fill="#fff"/>
        <path id="Path_125" data-name="Path 125" d="M3088.177-921.98l.01,0Z" transform="translate(-3062.885 930.634)" fill="#fff"/>
        <path id="Path_126" data-name="Path 126" d="M3077.082-922.442l.063-.006Z" transform="translate(-3052.199 931.085)" fill="#fff"/>
        <path id="Path_127" data-name="Path 127" d="M3071.811-921.549l.044-.011Z" transform="translate(-3047.123 930.23)" fill="#fff"/>
        <path id="Path_128" data-name="Path 128" d="M3075.366-922.244l.056-.008Z" transform="translate(-3050.546 930.896)" fill="#fff"/>
        <path id="Path_129" data-name="Path 129" d="M3069.536-921.1l.064-.019Z" transform="translate(-3044.931 929.806)" fill="#fff"/>
        <path id="Path_130" data-name="Path 130" d="M3090.2-921.564l.025.006Z" transform="translate(-3064.831 930.234)" fill="#fff"/>
        <path id="Path_131" data-name="Path 131" d="M3073.623-921.92l.043-.009Z" transform="translate(-3048.868 930.585)" fill="#fff"/>
        <path id="Path_132" data-name="Path 132" d="M3083.354-922.507h0Z" transform="translate(-3058.24 931.142)" fill="#fff"/>
        <path id="Path_133" data-name="Path 133" d="M3104.5-915.241q.085.129.158.263-.073-.134-.158-.263a2.353,2.353,0,0,0-.779-.752A2.353,2.353,0,0,1,3104.5-915.241Z" transform="translate(-3077.852 924.868)" fill="#fff"/>
        <path id="Path_134" data-name="Path 134" d="M3099.092-918.436c-.037-.02-.074-.039-.113-.057h0C3099.018-918.475,3099.055-918.456,3099.092-918.436Z" transform="translate(-3073.289 927.276)" fill="#fff"/>
        <path id="Path_135" data-name="Path 135" d="M3144.165-843.041q.03.168.054.338Q3144.2-842.873,3144.165-843.041Z" transform="translate(-3116.808 854.607)" fill="#fff"/>
        <path id="Path_136" data-name="Path 136" d="M3145.676-833.474c-.007-.079-.016-.159-.026-.238q-.01-.085-.022-.17.012.085.022.17C3145.66-833.633,3145.668-833.554,3145.676-833.474Z" transform="translate(-3118.217 845.785)" fill="#fff"/>
        <path id="Path_137" data-name="Path 137" d="M3096.364-919.617l.023.009Z" transform="translate(-3070.77 928.359)" fill="#fff"/>
        <path id="Path_138" data-name="Path 138" d="M3143.115-848.394q.021.1.039.2Q3143.136-848.3,3143.115-848.394Z" transform="translate(-3115.797 859.762)" fill="#fff"/>
        <path id="Path_139" data-name="Path 139" d="M3094.26-920.4l.028.01Z" transform="translate(-3068.743 929.11)" fill="#fff"/>
        <path id="Path_140" data-name="Path 140" d="M3092.222-921.038l.028.008Z" transform="translate(-3066.781 929.727)" fill="#fff"/>
        <path id="Path_141" data-name="Path 141" d="M2430.382-1143.208a11.2,11.2,0,0,0-.077-1.453,7.994,7.994,0,0,0-.3-1.437,4.874,4.874,0,0,0-.577-1.249,2.878,2.878,0,0,0-1.18-1.039,2.048,2.048,0,0,0-.876-.2,2,2,0,0,0-.616.1,2.237,2.237,0,0,0-.9.559q-.049.05-.1.1l-8.839-8.839-14.6,14.6,17.733,17.733,14.6-14.6Zm-3.733-4.634a1.59,1.59,0,0,1,.278-.12l.064-.019.02-.005.044-.011.022-.005.044-.009.021,0,.056-.008h.007l.063-.006h.018l.045,0h.133l.053,0,.023,0,.075.011.01,0,.065.013.025.006.05.013.028.008.048.015.027.01.05.019.024.009.073.032h0c.039.018.076.037.113.057l.062.035a2.351,2.351,0,0,1,.779.752c.057.086.11.174.158.263.024.045.048.09.071.135a4.812,4.812,0,0,1,.281.71c.065.209.119.42.163.633q.021.1.039.2.03.168.054.338.012.085.022.17.015.119.026.238c.031.317.045.635.047.953,0,.238,0,.477-.015.716q-.007.142-.016.285-.021.3-.055.593-.017.146-.037.291a14.313,14.313,0,0,1-.385,1.875,12.647,12.647,0,0,1-.95,2.454,8.723,8.723,0,0,1-.55.929q-.183.267-.392.517c-.043.051-.086.1-.13.15q-.1.111-.2.216-.14.14-.29.268a4.426,4.426,0,0,1-.393.3c-.055.037-.111.073-.168.108a3.4,3.4,0,0,1-1.282.472h0l-.112.014-.037,0-.076.007-.044,0-.069,0-.046,0h-.151l-.093,0h-.015l-.079-.005-.027,0-.077-.008-.016,0-.091-.013-.024,0-.071-.013-.025,0-.09-.02-.009,0-.082-.021-.026-.007-.073-.022-.019-.006-.089-.03-.021-.008-.07-.027-.025-.01-.088-.038c-.039-.018-.078-.037-.116-.058l-.117-.062-.042.058a4.127,4.127,0,0,1-.849.922q-.108.086-.223.164t-.236.149a4.029,4.029,0,0,1-.379.194l-.13.056q-.131.053-.266.095l-.135.04a3.838,3.838,0,0,1-.555.107h0c-.048.006-.1.01-.144.014l-.042,0-.108.006-.041,0-.144,0h-.006l-.137,0h-.03l-.139-.008-.024,0-.127-.012-.022,0-.139-.019-.031,0-.142-.024a2.2,2.2,0,0,1-.26-.066q-.089-.028-.175-.064a2.453,2.453,0,0,1-.581-.342,2.961,2.961,0,0,1-.3-.268,3.291,3.291,0,0,1-.514-.705l-.021-.04c-.016-.03-.031-.06-.047-.09q-.045-.089-.085-.18c-.032-.072-.062-.145-.09-.218-.034-.09-.065-.181-.093-.274-.019-.061-.036-.123-.052-.186-.008-.031-.016-.062-.023-.094-.015-.063-.029-.126-.042-.189-.006-.032-.012-.064-.018-.1s-.011-.064-.017-.1q-.029-.18-.048-.36-.009-.09-.016-.18-.019-.27-.016-.542,0-.181.014-.362.022-.341.07-.677.018-.125.04-.249.013-.076.027-.152c.009-.044.017-.089.026-.133q.03-.146.065-.291.076-.317.176-.63.092-.287.192-.57.05-.142.1-.283c.173-.47.362-.934.558-1.4.25-.586.513-1.165.811-1.727.013-.025.026-.051.039-.079s.026-.057.042-.09l-.131.017c-.041.005-.081.011-.121.018a3.677,3.677,0,0,0-.5.122q-.105.034-.208.074a3.088,3.088,0,0,0-.4.192,2.283,2.283,0,0,0-.8.727l-.032.052-.029.054c-.022.042-.042.086-.065.134l.078.04a1.415,1.415,0,0,1,.409.305,1.2,1.2,0,0,1,.089.109,1.236,1.236,0,0,1,.138.25,1.4,1.4,0,0,1,.069.216,1.2,1.2,0,0,1,.031.285c0,.017,0,.034,0,.05s0,.056-.008.084a1.175,1.175,0,0,1-.027.141,1.135,1.135,0,0,1-.079.214,1.121,1.121,0,0,1-.068.119c-.012.018-.024.036-.038.053a1.1,1.1,0,0,1-.107.125,1.152,1.152,0,0,1-.265.2l-.064.032-.021.01-.043.019-.026.01-.04.014-.028.009-.038.011-.029.007-.037.008-.03.005-.037.006-.03,0-.037,0-.03,0h-.1l-.035,0-.027,0-.035,0-.028,0-.035-.006-.027-.005-.036-.008-.027-.006-.038-.01-.025-.007-.042-.013-.021-.007-.063-.023-.054-.023a1.192,1.192,0,0,1-.212-.126l-.056-.044c-.023-.019-.046-.039-.068-.06l-.072-.07c-.036-.036-.071-.073-.1-.11a2.278,2.278,0,0,1-.215-.271,1.806,1.806,0,0,1-.1-.173,2.206,2.206,0,0,1-.194-.531,2.4,2.4,0,0,1-.056-.437,2.906,2.906,0,0,1,.146-1.022q.062-.19.139-.37a4.316,4.316,0,0,1,.231-.465,4.2,4.2,0,0,1,.366-.534q.082-.1.17-.2t.185-.19q.045-.043.091-.085.092-.083.19-.16t.2-.148l.1-.07q.1-.068.211-.132a5.931,5.931,0,0,1,.633-.323l.069-.03c.065-.028.13-.055.2-.08s.155-.059.233-.086c.234-.082.474-.154.716-.216a11.117,11.117,0,0,1,1.171-.233q.326-.047.654-.08c.109-.011.219-.021.328-.029s.219-.016.329-.023l.179-.01.04,0,.178-.008h.029l.163,0h.03l.177,0h.038l.183,0h.018l.06,0-.008.017c-.008.017-.014.031-.021.045-.212.375-.411.756-.6,1.141q-.1.192-.191.386c-.173.354-.35.705-.517,1.062q-.079.17-.157.341-.387.855-.72,1.733-.133.351-.257.706-.089.254-.171.509-.166.51-.307,1.028-.07.259-.133.52c-.059.244-.113.489-.161.736-.053.272-.1.546-.132.821a4.84,4.84,0,0,0-.038.578q0,.108.006.217c0,.024,0,.048,0,.072.008.1.02.193.037.289.01.058.022.116.037.173a1.867,1.867,0,0,0,.081.25,1.514,1.514,0,0,0,.076.159c.014.026.029.052.045.077a1.35,1.35,0,0,0,.083.118,1.163,1.163,0,0,0,.092.1l0,0a1.177,1.177,0,0,0,.09.081c.026.021.053.041.08.059a1.218,1.218,0,0,0,.555.195l.078.006h.014l.074,0h.015l.067,0h0l.07-.005h.016l.069-.008h.008l.063-.01.014,0,.068-.014.013,0,.061-.015.01,0,.067-.02.015,0,.068-.022a2.793,2.793,0,0,0,.52-.242l.08-.05c.053-.034.1-.07.155-.108q.113-.085.219-.182a3.044,3.044,0,0,0,.266-.278l.029-.038h0a.252.252,0,0,0-.018-.029,4.465,4.465,0,0,1-.515-.812q-.09-.183-.165-.374-.05-.127-.093-.257c-.014-.043-.028-.087-.041-.131-.04-.132-.074-.266-.1-.4-.01-.046-.02-.091-.029-.137s-.017-.091-.025-.137a6.851,6.851,0,0,1-.083-.692q-.005-.07-.009-.14c-.01-.189-.014-.379-.011-.568,0-.315.025-.63.059-.943v-.013c.012-.108.024-.216.038-.323,0-.009,0-.018,0-.027.044-.335.1-.668.175-1,.011-.047.021-.093.033-.14q.042-.171.092-.34a8.045,8.045,0,0,1,.486-1.262c.02-.04.04-.081.061-.121q.092-.181.2-.356.069-.117.143-.232c.053-.081.106-.161.163-.239q.056-.078.114-.154.088-.114.181-.222a4.2,4.2,0,0,1,.333-.344q.106-.1.22-.188.051-.041.1-.08c.07-.052.143-.1.217-.145.037-.022.074-.044.112-.064a2.173,2.173,0,0,1,.484-.193l.076-.018.021,0,.064-.012.013,0,.075-.011.019,0,.061-.006.018,0,.074,0h.066l.079,0h.019l.1.009.025,0,.073.011.031.005.072.015.025.006.1.026.017.005.078.026.03.011.068.026.028.011.094.042c.058.027.113.057.167.089s.1.065.154.1l.073.055a2.219,2.219,0,0,1,.435.459c.018.025.035.05.052.076s.047.073.069.111.05.086.073.13q.067.127.121.258a3.752,3.752,0,0,1,.228.82,5.764,5.764,0,0,1,.074.984v0q0,.163-.01.327c-.017.32-.051.636-.1.951q-.012.077-.025.155-.033.194-.072.387-.072.352-.163.7a11.861,11.861,0,0,1-.461,1.411q-.137.343-.294.677a11.665,11.665,0,0,1-.855,1.5c-.063.094-.129.186-.193.278a.321.321,0,0,0-.017.029l-.007.012h0l.027,0h.026l.037,0h.008l.032,0h0l.036-.008.013,0,.028-.006c.034-.008.067-.016.1-.026a2.177,2.177,0,0,0,.63-.322,3.73,3.73,0,0,0,.374-.3,4.856,4.856,0,0,0,.539-.592q.078-.1.151-.2a6.58,6.58,0,0,0,.367-.574l.068-.122q.059-.107.113-.217t.106-.222q.093-.2.176-.41a8.708,8.708,0,0,0,.465-1.631q.018-.1.034-.192a10.717,10.717,0,0,0,.152-1.944q0-.091-.006-.182c-.006-.121-.014-.242-.025-.363q-.013-.136-.032-.27c0-.03-.009-.06-.014-.09q-.014-.09-.032-.179c-.006-.03-.012-.059-.018-.089q-.028-.133-.064-.266a3.466,3.466,0,0,0-.5-1.1,2.506,2.506,0,0,0-.945-.822c-.068-.034-.138-.065-.21-.093s-.146-.053-.223-.075l-.116-.031-.068-.017c0-.012,0-.023,0-.035a.573.573,0,0,1,0-.068.62.62,0,0,1,.011-.067c0-.022.01-.044.016-.066s.006-.022.009-.033a1.576,1.576,0,0,1,.078-.213q.023-.051.049-.1.04-.074.086-.143l.032-.046a2.084,2.084,0,0,1,.219-.257A1.762,1.762,0,0,1,2426.649-1147.842Z" transform="translate(-2402.323 1156.667)" fill="#fff"/>
        <path id="Path_142" data-name="Path 142" d="M2954.483-794.886c0-.032,0-.064.007-.1s0-.066,0-.1a3.175,3.175,0,0,0-.009-.383c-.005-.064-.013-.128-.024-.192,0-.019-.006-.037-.01-.056a1.326,1.326,0,0,0-.06-.218.841.841,0,0,0-.047-.1c-.009-.017-.019-.033-.029-.05a.372.372,0,0,0-.2-.162.4.4,0,0,0-.075-.017l-.047,0h-.06l-.053,0h-.011l-.053.006h0l-.051.01-.009,0-.05.014-.01,0-.05.018h0l-.049.022-.009,0-.047.025-.009.005-.048.03a1.258,1.258,0,0,0-.279.257l-.045.058c-.043.057-.083.117-.12.179s-.076.132-.109.2c-.022.044-.042.089-.062.134a3.98,3.98,0,0,0-.18.5,6.129,6.129,0,0,0-.15.643c-.016.086-.029.173-.042.26s-.021.164-.03.246c0,.048-.01.1-.014.146s-.007.087-.01.131-.006.092-.008.138c0,.084-.008.169-.01.253,0,.045,0,.091,0,.136s0,.088,0,.132q0,.248.016.494.02.329.066.655.012.082.025.163.016.1.036.2c.03.16.064.318.1.475.014.056.029.112.045.167q.07.25.161.5c0,.013.009.026.015.038s.021.052.032.08l.018.044,0-.007.017-.028c.006-.01.012-.019.016-.029l.055-.109c.055-.109.11-.219.162-.33.174-.378.331-.763.474-1.153q.137-.375.258-.757.044-.14.086-.28c.1-.33.19-.661.267-.995q.033-.143.062-.287A8.373,8.373,0,0,0,2954.483-794.886Z" transform="translate(-2932.135 809.557)" fill="#fff"/>
      </g>
      <g id="Group_27" data-name="Group 27" transform="translate(0 15.237)">
        <path id="Path_143" data-name="Path 143" d="M2321.592-741.42l.409-.408a.78.78,0,0,0,.278-.653.9.9,0,0,0-.289-.511l-.485-.486-2.4,2.395.35.35.833-.833.135.136A.73.73,0,0,0,2321.592-741.42Zm-.867-.347-.116-.116.929-.929.116.116c.192.192.193.321,0,.511l-.425.425C2321.045-741.573,2320.917-741.575,2320.725-741.767Z" transform="translate(-2319.109 743.478)" fill="#fff"/>
        <path id="Path_144" data-name="Path 144" d="M2359.949-705.032l-.99.989-.406-.406.99-.989-.35-.35-2.4,2.395.35.35,1.089-1.089.406.406-1.089,1.089.35.35,2.4-2.395Z" transform="translate(-2355.409 707.177)" fill="#fff"/>
        <rect id="Rectangle_7" data-name="Rectangle 7" width="3.387" height="0.495" transform="translate(2.918 5.313) rotate(-45)" fill="#fff"/>
        <path id="Path_145" data-name="Path 145" d="M2419.926-640.9l2.079-2.078-.35-.35-2.4,2.395.859.859.316-.316Z" transform="translate(-2415.567 647.02)" fill="#fff"/>
        <path id="Path_146" data-name="Path 146" d="M2448.706-605.575l-2.8,1.985.325.325.438-.313.427.427-.309.441.351.351,1.985-2.8Zm-.506.887c-.138.177-.269.352-.393.527l-.462.651-.323-.324.651-.462C2447.848-604.419,2448.023-604.549,2448.2-604.688Z" transform="translate(-2441.225 610.66)" fill="#fff"/>
        <path id="Path_147" data-name="Path 147" d="M2490.292-574.689l-1.244,1.244c-.047.047-.1.1-.161.169.046-.076.088-.147.125-.211l.885-1.6-.437-.437-2.4,2.395.311.311,1.44-1.44c.046-.046.1-.1.159-.164-.045.074-.087.145-.123.207l-1.021,1.852.374.374,2.395-2.4Z" transform="translate(-2480.872 581.714)" fill="#fff"/>
        <path id="Path_148" data-name="Path 148" d="M2537.249-536.282l.316-.316-1.053-1.053-.317.316.352.352-2.078,2.079.35.35,2.078-2.079Z" transform="translate(-2526.527 545.242)" fill="#fff"/>
        <path id="Path_149" data-name="Path 149" d="M2563.816-501.165l-.989.989-.406-.406.99-.989-.35-.35-2.395,2.395.35.35,1.089-1.089.406.406-1.089,1.089.35.35,2.4-2.395Z" transform="translate(-2551.758 510.829)" fill="#fff"/>
        <path id="Path_150" data-name="Path 150" d="M2604.094-457.562a.672.672,0,0,0,.248-.662.658.658,0,0,0,.652-.238l.216-.216a.679.679,0,0,0-.021-1.114l-.518-.518-2.4,2.395.35.35,1.032-1.033.083.083c.125.125.179.22.175.308a.562.562,0,0,1-.2.328l-.2.2a2.213,2.213,0,0,0-.424.532l-.018.033.383.384.028-.072c.056-.146.111-.255.517-.662Zm.023-1.21-.142-.142.729-.729.142.142c.191.191.192.3,0,.484l-.249.249C2604.41-458.578,2604.311-458.578,2604.117-458.772Z" transform="translate(-2591.834 470.752)" fill="#fff"/>
        <path id="Path_151" data-name="Path 151" d="M2650.552-413.281a.9.9,0,0,0,.309-.6.762.762,0,0,0-.26-.55.765.765,0,0,0-.552-.262.9.9,0,0,0-.6.31l-1.268,1.268a.723.723,0,0,0-.049,1.151.765.765,0,0,0,.539.259.888.888,0,0,0,.613-.307Zm-2.2.787a.412.412,0,0,1,.139-.234l1.342-1.341a.381.381,0,0,1,.252-.141.277.277,0,0,1,.193.1c.141.141.128.274-.042.445l-1.341,1.341c-.171.171-.3.183-.445.042A.264.264,0,0,1,2648.356-412.495Z" transform="translate(-2635.747 426.819)" fill="#fff"/>
        <path id="Path_152" data-name="Path 152" d="M2683.793-379.218l.408-.408a.78.78,0,0,0,.278-.653.9.9,0,0,0-.289-.511l-.486-.485-2.395,2.395.35.35.833-.833.136.136A.73.73,0,0,0,2683.793-379.218Zm-.867-.347-.116-.116.928-.929.116.116c.192.192.193.321,0,.511l-.425.425C2683.246-379.371,2683.118-379.373,2682.926-379.565Z" transform="translate(-2667.953 394.633)" fill="#fff"/>
        <rect id="Rectangle_8" data-name="Rectangle 8" width="3.387" height="0.495" transform="translate(14.74 17.135) rotate(-45)" fill="#fff"/>
        <path id="Path_153" data-name="Path 153" d="M2741.289-321.081l.47.47.316-.316-.47-.47.673-.673.529.529.316-.316-.879-.879-2.4,2.395.9.9.316-.316-.545-.545Z" transform="translate(-2724.334 338.252)" fill="#fff"/>
        <path id="Path_154" data-name="Path 154" d="M2781.063-284.144a.736.736,0,0,0-.538-.254.863.863,0,0,0-.567.3l-.007.007a1.266,1.266,0,0,0-.366,1.178.87.87,0,0,1-.2.81l-.046.046c-.177.178-.295.193-.432.055a.238.238,0,0,1-.09-.2.444.444,0,0,1,.145-.231l.351-.351-.334-.334-.314.314c-.4.4-.421.779-.068,1.131a.737.737,0,0,0,.517.252.85.85,0,0,0,.585-.3l.03-.03a1.268,1.268,0,0,0,.365-1.175.881.881,0,0,1,.207-.817l.02-.02c.2-.2.319-.168.432-.056.14.14.125.257-.052.435l-.288.288.33.33.251-.251C2781.39-283.414,2781.414-283.793,2781.063-284.144Z" transform="translate(-2761.412 301.327)" fill="#fff"/>
      </g>
    </g>
  </g>
</svg>
