<svg version="1" xmlns="http://www.w3.org/2000/svg" width="933.333" height="933.333" viewBox="0 0 700.000000 700.000000"><path d="M175.7 177.2L3.1 350.5l173.7 173.8L350.5 698 524 524.5 697.5 351l-41.7-41.7-41.7-41.8-.6-11c-2.7-48.6-16-77.8-41.3-90.2-7.3-3.6-8.1-3.8-17.7-3.8-9.3 0-10.5.2-16.5 3.2-3.6 1.7-8.5 4.9-10.8 6.9l-4.4 3.7-86.1-86.1C389.3 42.8 350 4 349.4 4c-.6 0-78.8 78-173.7 173.2zm389.5-2.2c17.9 6.7 30.4 28.3 35.4 60.9 2 12.9 2.2 43.2.5 57.6-6.5 53-26.2 100.9-52.5 127.1-10.3 10.3-19.8 16.4-31.1 20-14.3 4.5-27.9 4.2-41-1.2l-6-2.4-3.4 4.2c-15.3 18.9-34.6 29.4-56.6 30.5-20.6 1.1-33.1-3.1-45.1-15.1-15.3-15.4-21.9-34.7-21.8-63.6.1-26.8 5.4-47.4 23-89.8 3.5-8.3 9.2-20.8 12.6-27.7 3.4-6.9 5.9-12.7 5.7-12.9-.3-.3-3.6.2-7.4 1-10.3 2.3-22.1 8.3-28.3 14.4-4.6 4.5-9 10.7-8 11.4.2.2 2.3 1.7 4.8 3.3 12.6 8.5 14 27.3 2.8 36.8-9.9 8.4-22.4 7.3-32.6-2.8-10.2-10-13.8-19.9-12.9-35.2 1.2-21.4 15.3-44.8 34.9-57.7 13.5-8.9 31.8-16 51.4-19.8 16-3.1 34.3-5 47.5-5h11.6l-12.9 25.4c-7 14-16 32.7-19.8 41.5-17.5 40.4-29.8 81.8-33.2 111.4-2 17.7 1.2 31.6 8.9 38.9 11.5 11 34.3 6.8 50.4-9.3l4-4-3.5-4.8c-13.3-18.1-19.7-46.8-17.5-78.2 3.1-43.5 15.9-76.8 38.5-99.3 12.2-12.3 26.1-17.9 38.7-15.7 27.8 4.9 42.8 34.2 38.8 75.9-3.6 37.8-16.2 74-36.5 105.2-3.6 5.6-5.1 8.6-4.2 8.8 2.6.6 12.7-4 18.6-8.4 28.8-21.7 48-70.2 48-121.1 0-37.5-13.6-63.4-37.5-71.3-7.4-2.5-7.8-3.5-4.4-11 3.9-8.7 10.9-15.3 19.7-18.5 5.5-2 14.3-1.8 20.4.5z"/><path d="M484.5 265.9c-8.2 3.7-14.7 14.6-19 31.6-6.6 25.9-5.4 57.1 3.2 84l2.6 8 4.8-10.1c9.7-20.5 19.9-51.8 23.5-71.9 2.1-12.2 2.4-30.5.6-35.7-1.6-4.5-5.5-7.8-9.1-7.8-1.4 0-4.4.9-6.6 1.9z"/></svg>